<svg width="434" height="835" viewBox="0 0 434 835" fill="none" xmlns="http://www.w3.org/2000/svg">
<path d="M132.5 195.562C136.9 184.362 143.333 113.562 145.5 79.5619C151.5 28.5625 163.5 4.56152 185.5 4.56186C206.33 4.56218 229.715 0.656055 247.5 5.19719C262.16 8.94027 273.015 18.4225 275.5 40.5619C279.878 79.5619 294.5 151.062 294.5 195.562H281.5C275.5 135.562 276.875 51.5625 247.5 5.19719C229.715 0.656055 206.33 4.56218 185.5 4.56186C154.5 32.5625 156 135.062 148 195.562H132.5Z" fill="#3A3A3A"/>
<path d="M185.5 4.56186C163.5 4.56152 151.5 28.5625 145.5 79.5619C143.333 113.562 136.9 184.362 132.5 195.562H148C156 135.062 154.5 32.5625 185.5 4.56186ZM185.5 4.56186C206.33 4.56218 229.715 0.656055 247.5 5.19719M247.5 5.19719C262.16 8.94027 273.015 18.4225 275.5 40.5619C279.878 79.5619 294.5 151.062 294.5 195.562H281.5C275.5 135.562 276.875 51.5625 247.5 5.19719Z" stroke="#3A3A3A" stroke-width="5"/>
<path d="M385 482.537V467.562C430.5 467.562 411 591.062 431 766.562H414C400.5 616.813 416.6 492.121 385 482.537Z" fill="#3A3A3A" stroke="#3A3A3A" stroke-width="5"/>
<path d="M49 482.537V467.562C3.5 467.562 23 591.062 3 766.562H20C33.5 616.813 17.4 492.121 49 482.537Z" fill="#3A3A3A" stroke="#3A3A3A" stroke-width="5"/>
<path d="M49 455.562C64.6667 438.562 122 314.562 131 196.062H298.5C310.5 277.062 346 418.562 384.5 455.562V832.062H49V455.562Z" fill="#3A3A3A" stroke="#3A3A3A" stroke-width="5"/>
<path d="M218.8 405.2C215.76 405.2 213.2 404.16 211.12 402.08C209.04 400 208 397.44 208 394.4L215.2 370.4L198.4 388.4C196.64 389.52 194.48 390.08 191.92 390.08C189.84 390.08 188 389.68 186.4 388.88C184.8 387.92 183.6 386.56 182.8 384.8C182 382.88 181.6 381.2 181.6 379.76C181.6 377.84 182.08 376.08 183.04 374.48C184.16 372.72 185.68 371.36 187.6 370.4L211.6 364.4L187.6 358.4C185.68 357.44 184.16 356.16 183.04 354.56C182.08 352.8 181.6 350.96 181.6 349.04C181.6 345.68 182.56 343.12 184.48 341.36C186.56 339.6 189.04 338.72 191.92 338.72C194.48 338.72 196.64 339.28 198.4 340.4L215.2 358.4L208 334.4C208 331.36 209.04 328.8 211.12 326.72C213.2 324.64 215.76 323.6 218.8 323.6C221.84 323.6 224.4 324.64 226.48 326.72C228.56 328.8 229.6 331.36 229.6 334.4L222.4 358.4L239.2 340.4C240.96 339.28 243.12 338.72 245.68 338.72C247.76 338.72 249.6 339.2 251.2 340.16C252.8 340.96 254 342.24 254.8 344C255.6 345.92 256 347.6 256 349.04C256 350.96 255.44 352.8 254.32 354.56C253.36 356.16 251.92 357.44 250 358.4L226 364.4L250 370.4C251.92 371.36 253.36 372.72 254.32 374.48C255.44 376.08 256 377.84 256 379.76C256 383.12 254.96 385.68 252.88 387.44C250.96 389.2 248.56 390.08 245.68 390.08C243.12 390.08 240.96 389.52 239.2 388.4L222.4 370.4L229.6 394.4C229.6 397.44 228.56 400 226.48 402.08C224.4 404.16 221.84 405.2 218.8 405.2Z" fill="#F3C9CB"/>
<path d="M148.828 329.239L149.45 327.102L142.299 322.928L125.832 321.861L124.458 323.143L123.991 322.871L126.26 318.985C126.889 317.907 127.619 317.18 128.45 316.803C129.293 316.406 130.261 316.249 131.353 316.33L143.21 317.082L135.553 306.277L133.259 308.064L132.793 307.792L136.241 301.885L136.707 302.157L136.188 305.188L144.983 317.616L152.445 321.972L154 320.378L154.466 320.65L149.294 329.512L148.828 329.239Z" fill="white"/>
<path d="M164.774 309.756C162.573 311.899 160.276 312.963 157.883 312.948C155.473 312.916 153.23 311.833 151.154 309.701C149.798 308.308 148.885 306.836 148.413 305.286C147.942 303.735 147.911 302.224 148.321 300.753C148.748 299.265 149.581 297.918 150.819 296.713C152.057 295.508 153.367 294.685 154.747 294.245C156.145 293.789 157.478 293.713 158.747 294.019C160.016 294.29 161.111 294.899 162.032 295.845C162.451 296.275 162.768 296.686 162.983 297.079L163.281 297.644C162.692 298.518 162.018 299.426 161.259 300.366C159.704 302.382 158.007 304.285 156.167 306.077C158.109 308.072 159.774 309.231 161.161 309.555C162.532 309.862 163.699 309.547 164.662 308.609C165.332 307.956 165.801 307.199 166.067 306.337C166.334 305.441 166.379 304.576 166.204 303.742C166.028 302.874 165.673 302.165 165.137 301.614L165.782 300.987C166.452 301.674 166.882 302.529 167.072 303.55C167.262 304.571 167.171 305.63 166.8 306.728C166.412 307.809 165.737 308.819 164.774 309.756ZM155.539 305.432C156.64 304.36 157.492 303.447 158.096 302.691C158.372 302.389 158.64 302.045 158.899 301.658C158.833 301.555 158.692 301.324 158.476 300.965C158.143 300.452 157.743 299.954 157.274 299.473C155.884 298.045 154.682 297.189 153.668 296.904C152.637 296.602 151.854 296.71 151.321 297.229C150.032 298.485 151.438 301.219 155.539 305.432Z" fill="white"/>
<path d="M178.043 299.885C176.759 300.637 175.446 301.03 174.103 301.065C173.449 301.087 172.875 301.033 172.383 300.905C172.318 301.554 172.162 302.119 171.914 302.598C171.8 302.831 171.66 303.066 171.492 303.303L170.716 303.758L167.624 298.476L168.866 297.749C169.645 298.461 170.511 299.038 171.466 299.481C173.497 300.433 175.331 300.43 176.967 299.472C177.837 298.963 178.368 298.374 178.56 297.705C178.761 297.003 178.625 296.248 178.153 295.441C177.752 294.757 177.108 294.37 176.22 294.278C175.341 294.153 174.048 294.131 172.343 294.211C170.898 294.307 169.695 294.343 168.736 294.321C167.786 294.265 166.868 294.052 165.983 293.68C165.107 293.275 164.402 292.617 163.868 291.706C163.141 290.463 163.081 289.15 163.688 287.765C164.305 286.347 165.721 284.99 167.937 283.692C169.035 283.05 170.219 282.745 171.491 282.78C172.104 282.782 172.661 282.831 173.162 282.927C173.213 282.397 173.37 281.833 173.631 281.234C173.862 280.821 174.003 280.586 174.053 280.529L174.829 280.074L177.921 285.356L176.679 286.083C175.847 285.374 174.997 284.801 174.129 284.364C172.147 283.355 170.442 283.269 169.013 284.105C168.454 284.433 168.099 284.919 167.948 285.563C167.797 286.208 167.903 286.841 168.267 287.462C168.728 288.249 169.447 288.718 170.425 288.868C171.391 288.998 172.747 289.011 174.493 288.906C175.919 288.823 177.08 288.81 177.976 288.869C178.881 288.896 179.744 289.086 180.563 289.441C181.403 289.783 182.066 290.368 182.551 291.197C184.309 294.2 182.807 297.096 178.043 299.885Z" fill="white"/>
<path d="M194.997 292.701C192.056 293.588 189.527 293.474 187.411 292.358C185.287 291.219 183.795 289.225 182.936 286.376C182.374 284.514 182.242 282.787 182.538 281.194C182.834 279.6 183.503 278.245 184.545 277.128C185.61 276.005 186.97 275.194 188.624 274.694C190.278 274.195 191.819 274.069 193.247 274.315C194.698 274.554 195.916 275.101 196.902 275.957C197.903 276.783 198.594 277.828 198.976 279.092C199.149 279.666 199.24 280.177 199.25 280.626L199.255 281.264C198.329 281.768 197.313 282.263 196.206 282.748C193.897 283.82 191.513 284.727 189.055 285.469C189.859 288.135 190.802 289.931 191.884 290.858C192.959 291.762 194.14 292.02 195.427 291.631C196.323 291.361 197.087 290.905 197.721 290.262C198.37 289.59 198.809 288.843 199.038 288.022C199.283 287.171 199.294 286.378 199.072 285.643L199.934 285.383C200.211 286.302 200.199 287.258 199.897 288.252C199.595 289.246 199.026 290.144 198.191 290.948C197.349 291.728 196.284 292.313 194.997 292.701ZM188.795 284.608C190.265 284.164 191.443 283.746 192.327 283.354C192.711 283.213 193.107 283.031 193.516 282.807C193.504 282.685 193.486 282.415 193.46 281.997C193.401 281.388 193.275 280.762 193.081 280.118C192.505 278.211 191.833 276.897 191.064 276.177C190.288 275.433 189.544 275.169 188.832 275.384C187.109 275.904 187.096 278.978 188.795 284.608Z" fill="white"/>
<path d="M201.767 273.019L199.941 272.576L199.913 272.036L204.406 271.798C205.652 271.731 206.649 271.943 207.396 272.432C208.166 272.896 208.841 273.617 209.422 274.595L214.141 282.672L217.614 272.718L214.86 271.783L214.831 271.243L221.482 270.89L221.511 271.429L218.692 272.661L212.75 289.74L211.672 289.797L201.767 273.019Z" fill="white"/>
<path d="M227.606 290.847C225.51 290.434 223.985 289.669 223.031 288.551C222.078 287.433 221.738 286.18 222.012 284.791C222.193 283.872 222.572 283.005 223.149 282.189C223.397 281.798 223.685 281.451 224.014 281.149C225.026 281.104 226.116 281.099 227.283 281.133C229.91 281.211 232.209 281.395 234.182 281.687L234.391 280.627C234.907 278.013 234.944 276.149 234.503 275.035C234.063 273.921 233.183 273.234 231.864 272.974C231.37 272.876 230.934 272.851 230.558 272.899L230.029 272.978L228.984 278.276L228.504 278.292C228.118 278.265 227.795 278.225 227.536 278.174C226.736 278.017 226.135 277.653 225.733 277.085C225.36 276.498 225.252 275.804 225.41 275.003C225.623 273.92 226.346 273.108 227.578 272.568C228.833 272.033 230.544 271.979 232.71 272.406C234.547 272.769 236.059 273.409 237.248 274.329C238.465 275.229 239.301 276.324 239.756 277.612C240.239 278.882 240.335 280.258 240.042 281.742L238.162 291.278L240.176 292.226L240.072 292.755L236.893 292.129C235.48 291.85 234.471 291.198 233.866 290.174C233.606 289.756 233.435 289.257 233.354 288.679C232.908 289.202 232.415 289.655 231.875 290.038C230.606 290.889 229.183 291.158 227.606 290.847ZM229.262 289.89C230.133 290.062 231.015 289.746 231.907 288.944C232.236 288.641 232.6 288.224 232.998 287.691L234.008 282.57C232.925 282.356 231.877 282.211 230.865 282.133C230.117 282.084 229.611 282.045 229.347 282.017C229.178 282.253 228.991 282.583 228.785 283.007C228.373 283.856 228.081 284.715 227.909 285.587C227.649 286.905 227.657 287.922 227.931 288.637C228.206 289.351 228.65 289.769 229.262 289.89Z" fill="white"/>
<path d="M256.833 302.178C254.853 300.908 253.389 299.368 252.439 297.561C251.522 295.746 251.191 293.751 251.446 291.576C251.701 289.402 252.581 287.143 254.085 284.8C255.589 282.457 257.276 280.717 259.147 279.579C261.018 278.442 262.963 277.922 264.982 278.02C267.034 278.111 269.05 278.792 271.029 280.062C273.008 281.333 274.457 282.876 275.373 284.691C276.323 286.498 276.671 288.489 276.416 290.664C276.16 292.839 275.281 295.098 273.777 297.441C272.273 299.783 270.586 301.524 268.715 302.661C266.844 303.799 264.882 304.322 262.83 304.231C260.811 304.133 258.812 303.449 256.833 302.178ZM257.222 301.572C258.009 302.078 258.95 302.211 260.045 301.973C261.159 301.747 262.438 300.999 263.88 299.729C265.323 298.459 266.855 296.562 268.475 294.037C270.096 291.513 271.183 289.33 271.737 287.49C272.291 285.649 272.439 284.176 272.18 283.068C271.941 281.974 271.428 281.174 270.64 280.668C269.853 280.163 268.901 280.023 267.787 280.248C266.693 280.487 265.424 281.241 263.981 282.511C262.539 283.781 261.007 285.679 259.387 288.203C257.766 290.728 256.679 292.91 256.125 294.751C255.571 296.591 255.413 298.058 255.652 299.153C255.911 300.26 256.434 301.067 257.222 301.572Z" fill="white"/>
<path d="M267.182 307.801L268.997 309.091L281.027 298.786L280.032 296.794L280.443 296.443L282.55 298.904C283.471 299.979 283.851 301.124 283.689 302.337C283.619 302.808 283.453 303.297 283.193 303.805C283.885 303.654 284.553 303.603 285.196 303.653C286.719 303.771 288.003 304.44 289.049 305.661C289.924 306.682 290.486 307.781 290.735 308.958C291.018 310.137 291.009 311.251 290.707 312.3C290.404 313.349 289.87 314.201 289.105 314.857L280.356 322.351L281.351 324.343L280.94 324.694L277.896 321.14C276.491 319.499 276.608 317.977 278.249 316.571L285.358 310.482C286.506 309.499 287.201 308.54 287.444 307.605C287.72 306.674 287.624 305.934 287.156 305.387C286.562 304.695 285.667 304.387 284.469 304.465C283.957 304.493 283.42 304.605 282.861 304.8L272.744 313.465L273.739 315.457L273.329 315.808L266.772 308.153L267.182 307.801Z" fill="white"/>
<path d="M284.174 333.554C282.837 330.788 282.553 328.273 283.324 326.007C284.116 323.731 285.851 321.946 288.53 320.65C290.28 319.803 291.965 319.401 293.586 319.444C295.206 319.487 296.649 319.935 297.915 320.789C299.192 321.665 300.206 322.88 300.959 324.436C301.711 325.991 302.078 327.494 302.059 328.942C302.05 330.413 301.701 331.702 301.01 332.809C300.351 333.927 299.428 334.774 298.239 335.349C297.699 335.61 297.209 335.781 296.767 335.861L296.138 335.965C295.494 335.13 294.846 334.204 294.194 333.186C292.773 331.075 291.503 328.863 290.385 326.551C287.879 327.763 286.253 328.976 285.507 330.19C284.782 331.394 284.713 332.6 285.298 333.81C285.706 334.653 286.276 335.337 287.01 335.861C287.776 336.397 288.582 336.714 289.429 336.811C290.308 336.919 291.093 336.806 291.784 336.472L292.176 337.282C291.312 337.7 290.365 337.838 289.337 337.695C288.308 337.553 287.332 337.132 286.407 336.433C285.504 335.724 284.76 334.764 284.174 333.554ZM291.195 326.159C291.864 327.542 292.461 328.639 292.987 329.451C293.187 329.808 293.429 330.171 293.714 330.539C293.832 330.509 294.096 330.448 294.505 330.357C295.097 330.203 295.696 329.981 296.301 329.688C298.094 328.821 299.286 327.951 299.878 327.078C300.49 326.195 300.635 325.419 300.311 324.749C299.527 323.129 296.488 323.599 291.195 326.159Z" fill="white"/>
</svg>
