<svg width="576" height="1153" viewBox="0 0 576 1153" fill="none" xmlns="http://www.w3.org/2000/svg">
<path d="M425.131 419.154C408.604 427.887 384.9 463.849 382.562 479.776" stroke="#070707" stroke-width="3"/>
<path d="M421.63 80.084C439.158 96.01 450.075 132.794 435.652 158.687C432.543 160.719 425.387 163.565 421.63 158.687C411.113 152.008 396.59 138.651 395.087 120.67C395.087 105.771 397.091 86.7626 395.087 68.2679C386.573 46.1765 399.094 32.3058 411.113 53.8831C413.116 62.6167 416.121 72.8916 421.63 80.084Z" fill="#F3C9CB"/>
<path d="M452.179 209.547C452.179 157.145 481.893 130.602 498.754 120.67C506.767 100.634 520.288 99.6062 519.787 112.45C518.409 116.22 518.831 118.369 519.787 119.516C548.834 113.865 557.848 126.321 565.861 145.843C577.88 157.145 574.875 168.448 567.363 175.64C571.77 191.258 562.189 197.902 556.847 199.272C558.449 200.916 553.842 203.382 551.338 204.41C548.538 203.954 544.807 203.449 540.644 203.032C529.171 201.882 514.41 201.394 506.767 204.41C500.256 208.177 474.487 219.308 455.257 217.253C454.68 216.466 454.154 215.652 453.707 214.823C452.773 213.094 452.179 211.3 452.179 209.547Z" fill="#F3C9CB"/>
<path d="M313.457 316.406C308.116 312.467 305.941 297.911 313.457 272.738C315.766 272.738 318.212 273.493 320.464 274.537C324.971 259.38 333.151 255.955 336.49 259.38C338.092 250.75 344.503 251.674 347.508 253.215C350.312 240.886 364.368 245.802 371.045 249.802C377.438 248.179 386.1 250.237 395.584 253.215C400.092 249.619 406.602 246.023 413.112 259.38C416.284 257.154 422.928 256.092 424.13 269.655C429.138 295.514 434.447 352.573 415.616 373.945C370.044 426.861 331.983 361.615 331.983 349.286C331.148 340.723 326.274 322.16 313.457 316.406Z" fill="#F3C9CB"/>
<path d="M448.669 504.95C435.148 520.362 413.313 527.554 392.079 504.95C390.493 503.865 388.991 502.74 387.572 501.579C351.35 471.941 369.135 418.632 422.628 405.284C457.684 379.083 460.688 390.385 445.164 407.339C462.792 401.174 468.868 410.935 469.703 416.586C491.337 419.052 478.717 445.67 469.703 458.671C475.843 459.122 482.921 457.763 487.231 451.52C493.741 461.795 487.231 483.886 474.711 490.051C467.199 492.791 451.474 499.607 448.669 504.95Z" fill="#F3C9CB"/>
<path d="M395.087 48.7457C407.908 66.8294 408.108 90.8726 406.606 100.634C403.401 114.608 415.286 133.856 421.63 141.733M453.707 214.823C461.72 200.438 486.735 187.114 498.754 184.888C521.791 178.723 530.805 149.953 525.797 131.458M525.797 131.458C526.465 127.862 526.698 120.67 522.291 120.67C520.455 120.67 517.384 119.026 519.787 112.45C520.288 99.6062 506.767 100.634 498.754 120.67C481.893 130.602 452.179 157.145 452.179 209.547C452.179 215.712 459.524 222.391 463.197 224.96C494.847 247.153 526.465 233.18 538.317 223.418C532.307 208.006 495.6 215.172 460.544 222.879M525.797 131.458C545.829 137.109 551.338 152.008 554.843 161.255C563.658 161.255 562.856 171.53 554.843 175.64C559.25 187.97 552.673 190.368 548.834 190.025C553.641 196.19 545.485 201.662 540.644 203.032M519.787 119.516C548.834 113.865 557.848 126.321 565.861 145.843C577.88 157.145 574.875 168.448 567.363 175.64C571.77 191.258 562.189 197.902 556.847 199.272C558.449 200.916 553.842 203.382 551.338 204.41M551.338 204.41C578.882 218.795 577.88 232.666 560.352 227.015C560.352 234.823 552.673 233.008 548.834 231.125C548.834 236.467 537.592 230.623 535.589 225.485M551.338 204.41C540.821 202.697 517.183 200.3 506.767 204.41C500.256 208.177 474.487 219.308 455.257 217.253M395.584 253.216C400.092 249.619 406.602 246.023 413.112 259.38C416.284 257.154 422.928 256.092 424.13 269.655C429.138 295.514 434.447 352.573 415.616 373.945C370.044 426.861 331.983 361.615 331.983 349.286C331.148 340.723 326.274 322.16 313.457 316.406C308.116 312.467 305.941 297.911 313.457 272.738C315.766 272.738 318.212 273.493 320.464 274.537M395.584 253.216C390.076 264.004 380.393 271.71 374.551 272.738C368.541 273.971 364.702 289.006 363.533 296.37M395.584 253.216C386.1 250.237 377.438 248.179 371.045 249.802M363.533 296.37C356.467 264.222 360.898 252.376 371.045 249.802M363.533 296.37C362.534 303.768 374.135 328.907 380.06 340.552M320.464 274.537C323.68 276.028 325.472 279.036 327.976 279.416C341.498 281.471 359.527 294.315 363.533 309.214C365.937 325.653 361.196 336.956 358.525 340.552C354.919 345.073 364.034 362.985 369.042 371.376M320.464 274.537C324.971 259.38 333.151 255.955 336.49 259.38C338.092 250.75 344.503 251.674 347.508 253.216C350.312 240.886 364.368 245.802 371.045 249.802M367.039 331.305C386.57 349.286 381.228 376.343 376.554 383.706M331.983 309.214C338.393 317.844 339.328 327.537 338.994 331.305M331.983 299.966C339.595 307.364 342.166 320.516 342.5 326.167M334.487 296.37C344.903 308.289 345.838 318.803 345.004 322.571M487.231 451.52C493.741 461.795 487.231 483.886 474.711 490.051C467.199 492.791 451.474 499.607 448.669 504.95C435.148 520.362 413.313 527.554 392.079 504.95C390.493 503.865 388.991 502.74 387.572 501.579M487.231 451.52C482.921 457.763 475.843 459.122 469.703 458.671M487.231 451.52C496.245 443.301 507.764 410.935 487.231 410.935C484.226 405.284 480.821 397.064 455.18 399.119M445.164 407.339C460.688 390.385 457.684 379.083 422.628 405.284C369.135 418.632 351.35 471.941 387.572 501.579M445.164 407.339C436.35 407.339 432.811 431.313 432.143 443.301C432.143 457.274 402.429 487.975 387.572 501.579M445.164 407.339C462.792 401.174 468.868 410.935 469.703 416.586C491.337 419.052 478.717 445.67 469.703 458.671M387.572 501.579C405.1 486.605 444.262 456.658 460.688 456.658C462.895 457.538 466.141 458.409 469.703 458.671M458.685 427.375C450.672 440.115 435.315 455.63 428.637 461.795M432.143 461.795C443.16 451.52 455.18 437.478 464.695 433.539M435.652 158.687C450.075 132.794 439.158 96.01 421.63 80.084C416.121 72.8916 413.116 62.6167 411.113 53.8831C399.094 32.3058 386.573 46.1765 395.087 68.2679C397.091 86.7626 395.087 105.771 395.087 120.67C396.59 138.651 411.113 152.008 421.63 158.687C425.387 163.565 432.543 160.719 435.652 158.687Z" stroke="#F3C9CB" stroke-width="3"/>
<path d="M421.63 80.084C439.158 96.01 450.075 132.794 435.652 158.687C432.543 160.719 425.387 163.565 421.63 158.687C411.113 152.008 396.59 138.651 395.087 120.67C395.087 105.771 397.091 86.7626 395.087 68.2679C386.573 46.1765 399.094 32.3058 411.113 53.8831C413.116 62.6167 416.121 72.8916 421.63 80.084Z" fill="#F3C9CB"/>
<path d="M452.179 209.547C452.179 157.145 481.893 130.602 498.754 120.67C506.767 100.634 520.288 99.6062 519.787 112.45C518.409 116.22 518.831 118.369 519.787 119.516C548.834 113.865 557.848 126.321 565.861 145.843C577.88 157.145 574.875 168.448 567.363 175.64C571.77 191.258 562.189 197.902 556.847 199.272C558.449 200.916 553.842 203.382 551.338 204.41C548.538 203.954 544.807 203.449 540.644 203.032C529.171 201.882 514.41 201.394 506.767 204.41C500.256 208.177 474.487 219.308 455.257 217.253C454.68 216.466 454.154 215.652 453.707 214.823C452.773 213.094 452.179 211.3 452.179 209.547Z" fill="#F3C9CB"/>
<path d="M313.457 316.406C308.116 312.467 305.941 297.911 313.457 272.738C315.766 272.738 318.212 273.493 320.464 274.537C324.971 259.38 333.151 255.955 336.49 259.38C338.092 250.75 344.503 251.674 347.508 253.215C350.312 240.886 364.368 245.802 371.045 249.802C377.438 248.179 386.1 250.237 395.584 253.215C400.092 249.619 406.602 246.023 413.112 259.38C416.284 257.154 422.928 256.092 424.13 269.655C429.138 295.514 434.447 352.573 415.616 373.945C370.044 426.861 331.983 361.615 331.983 349.286C331.148 340.723 326.274 322.16 313.457 316.406Z" fill="#F3C9CB"/>
<path d="M448.669 504.95C435.148 520.362 413.313 527.554 392.079 504.95C390.493 503.865 388.991 502.74 387.572 501.579C351.35 471.941 369.135 418.632 422.628 405.284C457.684 379.083 460.688 390.385 445.164 407.339C462.792 401.174 468.868 410.935 469.703 416.586C491.337 419.052 478.717 445.67 469.703 458.671C475.843 459.122 482.921 457.763 487.231 451.52C493.741 461.795 487.231 483.886 474.711 490.051C467.199 492.791 451.474 499.607 448.669 504.95Z" fill="#F3C9CB"/>
<path d="M395.087 48.7457C407.908 66.8294 408.108 90.8726 406.606 100.634C403.401 114.608 415.286 133.856 421.63 141.733M453.707 214.823C461.72 200.438 486.735 187.114 498.754 184.888C521.791 178.723 530.805 149.953 525.797 131.458M525.797 131.458C526.465 127.862 526.698 120.67 522.291 120.67C520.455 120.67 517.384 119.026 519.787 112.45C520.288 99.6062 506.767 100.634 498.754 120.67C481.893 130.602 452.179 157.145 452.179 209.547C452.179 215.712 459.524 222.391 463.197 224.96C494.847 247.153 526.465 233.18 538.317 223.418C532.307 208.006 495.6 215.172 460.544 222.879M525.797 131.458C545.829 137.109 551.338 152.008 554.843 161.255C563.658 161.255 562.856 171.53 554.843 175.64C559.25 187.97 552.673 190.368 548.834 190.025C553.641 196.19 545.485 201.662 540.644 203.032M519.787 119.516C548.834 113.865 557.848 126.321 565.861 145.843C577.88 157.145 574.875 168.448 567.363 175.64C571.77 191.258 562.189 197.902 556.847 199.272C558.449 200.916 553.842 203.382 551.338 204.41M551.338 204.41C578.882 218.795 577.88 232.666 560.352 227.015C560.352 234.823 552.673 233.008 548.834 231.125C548.834 236.467 537.592 230.623 535.589 225.485M551.338 204.41C540.821 202.697 517.183 200.3 506.767 204.41C500.256 208.177 474.487 219.308 455.257 217.253M395.584 253.216C400.092 249.619 406.602 246.023 413.112 259.38C416.284 257.154 422.928 256.092 424.13 269.655C429.138 295.514 434.447 352.573 415.616 373.945C370.044 426.861 331.983 361.615 331.983 349.286C331.148 340.723 326.274 322.16 313.457 316.406C308.116 312.467 305.941 297.911 313.457 272.738C315.766 272.738 318.212 273.493 320.464 274.537M395.584 253.216C390.076 264.004 380.393 271.71 374.551 272.738C368.541 273.971 364.702 289.006 363.533 296.37M395.584 253.216C386.1 250.237 377.438 248.179 371.045 249.802M363.533 296.37C356.467 264.222 360.898 252.376 371.045 249.802M363.533 296.37C362.534 303.768 374.135 328.907 380.06 340.552M320.464 274.537C323.68 276.028 325.472 279.036 327.976 279.416C341.498 281.471 359.527 294.315 363.533 309.214C365.937 325.653 361.196 336.956 358.525 340.552C354.919 345.073 364.034 362.985 369.042 371.376M320.464 274.537C324.971 259.38 333.151 255.955 336.49 259.38C338.092 250.75 344.503 251.674 347.508 253.216C350.312 240.886 364.368 245.802 371.045 249.802M367.039 331.305C386.57 349.286 381.228 376.343 376.554 383.706M331.983 309.214C338.393 317.844 339.328 327.537 338.994 331.305M331.983 299.966C339.595 307.364 342.166 320.516 342.5 326.167M334.487 296.37C344.903 308.289 345.838 318.803 345.004 322.571M487.231 451.52C493.741 461.795 487.231 483.886 474.711 490.051C467.199 492.791 451.474 499.607 448.669 504.95C435.148 520.362 413.313 527.554 392.079 504.95C390.493 503.865 388.991 502.74 387.572 501.579M487.231 451.52C482.921 457.763 475.843 459.122 469.703 458.671M487.231 451.52C496.245 443.301 507.764 410.935 487.231 410.935C484.226 405.284 480.821 397.064 455.18 399.119M445.164 407.339C460.688 390.385 457.684 379.083 422.628 405.284C369.135 418.632 351.35 471.941 387.572 501.579M445.164 407.339C436.35 407.339 432.811 431.313 432.143 443.301C432.143 457.274 402.429 487.975 387.572 501.579M445.164 407.339C462.792 401.174 468.868 410.935 469.703 416.586C491.337 419.052 478.717 445.67 469.703 458.671M387.572 501.579C405.1 486.605 444.262 456.658 460.688 456.658C462.895 457.538 466.141 458.409 469.703 458.671M458.685 427.375C450.672 440.115 435.315 455.63 428.637 461.795M432.143 461.795C443.16 451.52 455.18 437.478 464.695 433.539M435.652 158.687C450.075 132.794 439.158 96.01 421.63 80.084C416.121 72.8916 413.116 62.6167 411.113 53.8831C399.094 32.3058 386.573 46.1765 395.087 68.2679C397.091 86.7626 395.087 105.771 395.087 120.67C396.59 138.651 411.113 152.008 421.63 158.687C425.387 163.565 432.543 160.719 435.652 158.687Z" stroke="#F3C9CB" stroke-width="3"/>
<path d="M344.013 680.137C341.507 644.309 333.531 588.593 381.521 497.24C378.595 442.147 373.976 399.957 367.819 392.879C367.395 392.585 366.967 392.269 366.535 391.927C366.97 392.076 367.398 392.396 367.819 392.879C375.557 398.249 381.813 395.931 384.063 393.982C381.725 396.581 384.386 446.343 387.506 509.014C390.802 575.215 394.61 655.819 393.581 710.448L384.066 727.402C386.074 666.647 385.44 583.833 382.417 515.677C348.124 564.511 346.078 652.137 351.013 680.137H344.013Z" fill="#D8BA9E"/>
<path d="M422.127 159.202C422.244 159.403 422.363 159.61 422.482 159.824C425.278 164.046 432.334 161.235 435.649 159.202C435.649 164.968 441.123 190.925 446.885 223.975C449.929 218.29 452.175 213.044 452.175 209.549C452.175 215.675 459.52 222.376 463.193 224.961C460.564 223.613 455.083 227.462 449.045 236.651C447.762 238.603 446.454 240.797 445.142 243.234C431.464 268.648 417.453 320.443 428.137 400.147L420.624 404.771C409.106 335.416 426.566 259.977 432.143 249.107C434.445 244.62 438.864 237.809 442.967 230.881C436.759 197.846 428.483 170.587 422.482 159.824C422.355 159.632 422.236 159.424 422.127 159.202Z" fill="#D8BA9E"/>
<path d="M423.629 556.839L422.628 519.849H430.14V551.188L423.629 556.839Z" fill="#D8BA9E"/>
<path d="M382.06 496.217C333.472 588.177 341.497 644.175 344.013 680.137H351.013C345.671 649.827 348.509 549.647 391.578 504.437M451.674 316.921C451.674 252.189 432.944 177.696 422.127 159.202C424.626 164.304 432.183 161.328 435.649 159.202C435.649 170.504 456.682 259.382 459.687 327.196M366.535 391.927C381.559 397.065 388.072 606.158 384.066 727.402L393.581 710.448C395.584 604.103 379.256 399.325 384.063 393.982C381.689 396.037 374.86 398.503 366.535 391.927ZM452.175 209.549C452.175 218.59 437.151 239.346 432.143 249.107C426.566 259.977 409.106 335.416 420.624 404.771L428.137 400.147C411.61 276.849 454.178 220.337 463.193 224.961C459.52 222.376 452.175 215.675 452.175 209.549ZM422.628 519.849L423.629 556.839L430.14 551.188V519.849H422.628Z" stroke="#D8BA9E" stroke-width="3"/>
<path d="M328.372 62.6358C312.908 78.4061 303.277 114.83 316.001 140.47C318.743 142.482 325.057 145.3 328.372 140.47C337.649 133.856 350.461 120.63 351.787 102.825C351.787 88.0717 350.019 69.2491 351.787 50.9352C359.298 29.0599 348.252 15.3248 337.649 36.6911C335.882 45.3393 333.231 55.5137 328.372 62.6358Z" fill="#F3C9CB"/>
<path d="M301.421 190.833C301.421 138.944 275.207 112.66 260.333 102.825C253.265 82.9845 241.336 81.9671 241.778 94.685C242.993 98.4181 242.622 100.546 241.778 101.682C241.15 102.528 240.26 102.825 239.569 102.825C235.681 102.825 235.887 109.947 236.476 113.508C232.058 131.822 240.011 160.31 260.333 166.414C270.937 168.619 293.005 181.813 300.073 196.057C298.598 199.122 296.161 201.982 294.042 204.034C263.116 196.403 230.733 189.307 225.431 204.568C235.887 214.234 263.779 228.071 291.701 206.095C292.372 205.568 293.18 204.868 294.042 204.034C296.161 201.982 298.598 199.122 300.073 196.057C300.897 194.345 301.421 192.568 301.421 190.833Z" fill="#F3C9CB"/>
<path d="M351.787 31.6039C340.477 49.5108 340.3 73.3188 341.625 82.9845C344.452 96.8216 333.967 115.882 328.372 123.682M300.073 196.057C293.005 181.813 270.937 168.619 260.333 166.414C240.011 160.31 232.058 131.822 236.476 113.508M236.476 113.508C235.887 109.947 235.681 102.825 239.569 102.825C241.189 102.825 243.898 101.197 241.778 94.685C241.336 81.9671 253.265 82.9845 260.333 102.825C275.207 112.66 301.421 138.944 301.421 190.833C301.421 196.938 294.941 203.551 291.701 206.095C263.779 228.071 235.887 214.234 225.431 204.568C230.733 189.307 263.116 196.403 294.042 204.034M236.476 113.508C218.804 119.104 213.944 133.856 210.852 143.013C203.076 143.013 203.783 153.188 210.852 157.258C206.964 169.467 212.766 171.841 216.153 171.502C211.912 177.606 219.108 183.025 223.379 184.381M241.778 101.682C216.153 96.0865 208.201 108.42 201.132 127.752C190.529 138.944 193.18 150.135 199.807 157.258C195.919 172.723 204.372 179.302 209.084 180.659C207.671 182.286 211.735 184.728 213.944 185.746M213.944 185.746C189.645 199.99 190.529 213.725 205.992 208.129C205.992 215.862 212.766 214.064 216.153 212.199C216.153 217.49 226.071 211.702 227.838 206.615M213.944 185.746C223.222 184.05 244.075 181.676 253.265 185.746C259.008 189.476 281.741 200.499 298.706 198.464M316.001 140.47C303.277 114.83 312.908 78.4061 328.372 62.6358C333.231 55.5137 335.882 45.3393 337.649 36.6911C348.252 15.3248 359.298 29.0599 351.787 50.9352C350.019 69.2491 351.787 88.0717 351.787 102.825C350.461 120.63 337.649 133.856 328.372 140.47C325.057 145.3 318.744 142.482 316.001 140.47Z" stroke="#F3C9CB" stroke-width="3"/>
<path d="M327.847 140.479C327.788 140.593 327.727 140.719 327.666 140.857C325.283 145.375 318.84 142.528 315.844 140.479C315.844 143.592 312.897 170.826 308.587 209.956C304.616 202.374 301.172 194.836 301.172 190.29C301.172 196.351 294.652 202.981 291.392 205.538C294.182 203.943 300.596 209.703 307.143 223.056C309.125 227.099 311.12 231.837 313.03 237.278C322.902 265.401 330.518 312.291 322.512 378.858L329.181 383.432C339.407 314.816 323.907 240.182 318.956 229.427C317.965 227.275 316.533 224.584 314.906 221.601C320.154 178.564 324.842 147.179 327.666 140.857C327.729 140.736 327.79 140.611 327.847 140.479Z" fill="#D8BA9E"/>
<path d="M285.411 552.264C285.411 488.222 318.244 158.777 327.847 140.479C325.629 145.527 318.92 142.583 315.844 140.479C315.844 151.661 277.827 474.067 275.16 541.158M301.172 190.29C301.172 199.235 314.51 219.77 318.956 229.427C323.907 240.182 339.407 314.816 329.181 383.432L322.512 378.858C337.184 256.873 299.394 200.964 291.392 205.538C294.652 202.981 301.172 196.351 301.172 190.29Z" stroke="#D8BA9E" stroke-width="3"/>
<path d="M392.58 743.803C401.394 721.198 471.706 703.296 471.706 678.08C480.22 670.165 489.067 627.391 492.239 602.046C492.239 590.072 482.269 579.842 469.415 571.534C467.753 599.035 465.019 623.785 460.689 632.871C452.843 644.173 442.327 665.237 440.324 678.08C437.848 683.77 426.37 695.829 415.351 707.486C408.117 717.496 401.495 724.539 396.386 728.712V723.152V721.235C411.911 660.613 440.824 624.822 456.181 606.156C457.865 606.156 460.561 589.499 463.331 567.853C459.491 565.67 455.507 563.643 451.539 561.776C446.067 560.31 441.836 559.18 440.235 558.64C426.119 606.499 397.753 657.151 389.387 671.128L383.165 650.874C384 635.29 406.102 571.735 417.62 565.571C420.768 564.594 426.673 561.016 432.469 553.753C413.858 546.665 403.508 544.401 426.375 547.59L434.69 550.77C441.279 541.294 447.233 526.743 448.169 505.462C449.1 519.678 446.412 536.293 441.71 553.456L464.066 562.007C466.988 538.383 469.9 510.37 471.706 491.591C471.706 507.592 471.343 530.856 470.32 554.081C470.817 550.434 471.279 546.729 471.706 542.966C481.715 534.045 483.775 526.381 505.527 542.122C508.191 541.628 509.137 541.875 506.681 542.966C506.291 542.678 505.906 542.396 505.527 542.122C496.061 543.881 464.908 555.022 487.732 571.06C487.366 571.463 486.813 571.717 486.1 571.843C493.146 574.299 497.807 576.515 496.799 577.894C483.778 584.573 511.77 587.662 492.239 602.046C489.067 627.391 480.22 670.165 471.706 678.08C475.708 714.812 394.609 753.305 394.442 758.1L392.58 743.803Z" fill="#3A3A3A"/>
<path d="M310.449 483.885C331.148 514.881 375.052 588.689 372.548 691.951L366.539 733.051H336.49C340.831 726.201 339.996 697.089 322.468 668.833C304.606 629.96 277.195 538.548 310.449 483.885Z" fill="#3A3A3A"/>
<path d="M297.929 361.101C299.097 380.452 306.142 434.566 324.972 496.215C341.398 458.815 329.145 428.915 320.966 418.64C317.961 407.851 306.943 375.999 297.929 361.101Z" fill="#3A3A3A"/>
<path d="M517.78 357.504C511.253 359.542 503.439 365.243 496.799 375.485C537.312 390.384 551.334 395.389 562.352 396.549C577.977 398.193 538.146 371.033 517.78 357.504Z" fill="#3A3A3A"/>
<path d="M471.706 678.08C471.706 703.296 401.394 721.198 392.58 743.803L394.442 758.1C394.609 753.305 475.708 714.812 471.706 678.08ZM471.706 678.08C480.22 670.165 489.067 627.391 492.239 602.046M492.239 602.046C492.239 560.947 374.792 540.397 426.375 547.59L487.732 571.06M492.239 602.046C511.77 587.662 483.778 584.573 496.799 577.894C500.405 572.962 431.477 557.311 440.324 558.338C450.34 558.338 483.225 576.026 487.732 571.06M487.732 571.06C458.486 550.51 517.866 538 506.681 542.966C483.845 526.115 481.889 533.89 471.706 542.966C459.286 652.485 416.318 712.43 396.386 728.712M396.386 728.712C406.402 715.355 436.151 687.67 440.324 678.08C442.327 665.237 452.843 644.173 460.689 632.871C469.503 614.376 471.706 530.978 471.706 491.591C468.034 529.78 459.787 606.156 456.181 606.156C440.824 624.822 411.911 660.613 396.386 721.235V723.152V728.712ZM322.468 668.833C304.606 629.96 277.195 538.548 310.449 483.885C331.148 514.881 375.052 588.689 372.548 691.951L366.539 733.051M322.468 668.833C339.996 697.089 340.831 726.201 336.49 733.051H366.539M322.468 668.833C349.712 679.519 363.2 716.097 366.539 733.051M297.929 361.101C299.097 380.452 306.142 434.566 324.972 496.215C341.398 458.815 329.145 428.915 320.966 418.64C317.961 407.851 306.943 375.999 297.929 361.101ZM297.929 361.101C338.794 396.446 360.696 437.477 366.539 453.574M453.177 387.815C475.212 350.312 493.241 352.367 500.252 356.605M484.727 407.337C487.331 393.803 491.722 383.316 496.799 375.485M517.78 357.504C515.109 354.079 505.36 350.62 487.732 364.183M517.78 357.504C511.253 359.542 503.439 365.243 496.799 375.485M517.78 357.504C538.146 371.033 577.977 398.193 562.352 396.549C551.334 395.389 537.312 390.384 496.799 375.485M406.102 411.448C409.107 397.234 408.606 355.45 404.099 327.194C401.094 315.891 390.577 299.965 401.094 269.654C401.094 296.369 410.776 316.576 416.118 321.543C433.646 342.092 440.156 366.238 438.654 394.494M432.143 277.361C438.153 306.952 445.164 309.726 447.668 312.295C462.191 327.194 471.707 347.572 473.71 359.56M448.169 505.462C451.775 560.536 401.072 651.606 389.387 671.128L383.165 650.874C384 635.29 406.102 571.735 417.62 565.571C424.798 563.344 446.316 547.59 448.169 505.462Z" stroke="#3A3A3A" stroke-width="3"/>
<path d="M163.153 409.269C181.05 418.727 206.719 457.673 209.25 474.92" stroke="#070707" stroke-width="3"/>
<path d="M166.944 42.0672C147.964 59.3146 136.141 99.1505 151.76 127.191C155.126 129.393 162.876 132.474 166.944 127.191C178.333 119.959 194.059 105.493 195.687 86.0201C195.687 69.8855 193.517 49.2999 195.687 29.2707C204.907 5.34646 191.348 -9.67506 178.333 13.6924C176.164 23.1507 172.91 34.278 166.944 42.0672Z" fill="#F3C9CB"/>
<path d="M133.862 182.272C133.862 125.522 101.685 96.7766 83.4272 86.0201C74.7502 64.3218 60.1077 63.2091 60.6501 77.1183C62.1424 81.201 61.686 83.5283 60.6501 84.771C29.1958 78.651 19.4342 92.1402 10.7572 113.282C-2.25836 125.522 0.995544 137.762 9.13025 145.551C4.35788 162.465 14.7341 169.661 20.5188 171.144C18.7834 172.925 23.7727 175.595 26.4843 176.708C-3.34299 192.286 -2.25836 207.308 16.7226 201.188C16.7226 209.645 25.0381 207.679 29.1959 205.639C29.1959 211.425 41.3696 205.096 43.5388 199.532C58.1427 209.766 90.0214 221.34 121.932 198.963C124.236 197.351 127.876 194.244 130.53 190.617C131.154 189.764 131.724 188.883 132.208 187.985C133.22 186.112 133.862 184.17 133.862 182.272Z" fill="#F3C9CB"/>
<path d="M284.083 297.996C289.868 293.731 292.223 277.967 284.083 250.705C281.583 250.705 278.935 251.523 276.496 252.654C271.615 236.239 262.757 232.53 259.142 236.239C257.406 226.892 250.465 227.894 247.211 229.563C244.174 216.21 228.953 221.535 221.722 225.866C214.799 224.109 205.42 226.337 195.149 229.563C190.268 225.668 183.218 221.774 176.168 236.239C172.733 233.828 165.538 232.679 164.237 247.367C158.814 275.371 153.065 337.164 173.456 360.309C222.807 417.615 264.023 346.956 264.023 333.604C264.926 324.331 270.204 304.227 284.083 297.996Z" fill="#F3C9CB"/>
<path d="M137.663 502.183C152.306 518.874 175.951 526.663 198.945 502.183C200.662 501.008 202.289 499.79 203.826 498.533C243.049 466.436 223.791 408.703 165.864 394.248C127.902 365.873 124.648 378.113 141.46 396.473C122.37 389.797 115.79 400.368 114.886 406.488C91.4583 409.158 105.125 437.985 114.886 452.064C108.238 452.553 100.573 451.081 95.9052 444.321C88.8551 455.448 95.9052 479.372 109.463 486.048C117.598 489.016 134.626 496.397 137.663 502.183Z" fill="#F3C9CB"/>
<path d="M195.687 8.12877C181.804 27.7129 181.586 53.7508 183.213 64.3218C186.684 79.455 173.814 100.3 166.944 108.831M132.208 187.985C123.531 172.407 96.4428 157.977 83.4272 155.566C58.4808 148.89 48.7192 117.733 54.1423 97.7039M54.1423 97.7039C53.4192 93.8093 53.1661 86.0201 57.9385 86.0201C59.927 86.0201 63.2532 84.2398 60.65 77.1183C60.1077 63.2091 74.7502 64.3218 83.4272 86.0201C101.685 96.7766 133.862 125.522 133.862 182.272C133.862 188.948 125.908 196.181 121.932 198.963C87.6573 222.998 53.4192 207.865 40.5844 197.294C47.0922 180.603 86.8429 188.364 124.805 196.709M54.1423 97.7039C32.4497 103.824 26.4843 119.959 22.6881 129.973C13.1434 129.973 14.0111 141.101 22.6881 145.551C17.9157 158.904 25.0381 161.501 29.1959 161.13C23.9896 167.806 32.8226 173.732 38.065 175.216M60.65 84.771C29.1958 78.651 19.4342 92.1402 10.7572 113.282C-2.25836 125.522 0.995535 137.762 9.13024 145.551C4.35788 162.465 14.7341 169.661 20.5188 171.144C18.7834 172.925 23.7727 175.595 26.4843 176.708M26.4843 176.708C-3.34298 192.286 -2.25835 207.308 16.7226 201.188C16.7226 209.645 25.0381 207.679 29.1959 205.639C29.1959 211.425 41.3696 205.096 43.5388 199.532M26.4843 176.708C37.8729 174.853 63.4701 172.257 74.7502 176.708C81.8003 180.788 109.705 192.843 130.53 190.617M195.149 229.563C190.268 225.668 183.218 221.774 176.168 236.239C172.733 233.828 165.538 232.679 164.237 247.367C158.814 275.371 153.065 337.164 173.456 360.309C222.807 417.615 264.023 346.956 264.023 333.604C264.926 324.331 270.204 304.227 284.083 297.996C289.868 293.731 292.223 277.967 284.083 250.705C281.583 250.705 278.935 251.523 276.496 252.654M195.149 229.563C201.114 241.247 211.599 249.592 217.926 250.705C224.434 252.04 228.591 268.323 229.857 276.298M195.149 229.563C205.42 226.337 214.799 224.109 221.722 225.866M229.857 276.298C237.509 241.483 232.71 228.654 221.722 225.866M229.857 276.298C230.938 284.31 218.377 311.534 211.96 324.145M276.496 252.654C273.013 254.268 271.073 257.526 268.361 257.938C253.719 260.163 234.195 274.072 229.857 290.207C227.254 308.011 232.388 320.251 235.28 324.145C239.185 329.041 229.314 348.44 223.891 357.527M276.496 252.654C271.615 236.239 262.757 232.53 259.142 236.239C257.406 226.892 250.465 227.894 247.211 229.563C244.174 216.21 228.953 221.535 221.722 225.866M226.061 314.131C204.91 333.604 210.695 362.906 215.757 370.88M264.023 290.207C257.081 299.554 256.069 310.051 256.43 314.131M264.023 280.192C255.779 288.204 252.995 302.447 252.634 308.567M261.311 276.298C250.031 289.206 249.019 300.593 249.922 304.673M95.9052 444.321C88.8551 455.448 95.9052 479.372 109.463 486.048C117.598 489.016 134.626 496.397 137.663 502.183C152.306 518.874 175.951 526.663 198.945 502.183C200.662 501.008 202.289 499.79 203.826 498.533M95.9052 444.321C100.573 451.081 108.238 452.553 114.886 452.064M95.9052 444.321C86.1436 435.419 73.6704 400.368 95.9052 400.368C99.1591 394.248 102.847 385.346 130.613 387.571M141.46 396.473C124.648 378.113 127.902 365.873 165.864 394.248C223.791 408.703 243.049 466.436 203.826 498.533M141.46 396.473C151.004 396.473 154.837 422.437 155.56 435.419C155.56 450.552 187.737 483.8 203.826 498.533M141.46 396.473C122.37 389.797 115.79 400.368 114.886 406.488C91.4582 409.158 105.125 437.985 114.886 452.064M203.826 498.533C184.845 482.317 142.436 449.884 124.648 449.884C122.259 450.838 118.743 451.781 114.886 452.064M126.817 418.171C135.494 431.969 152.125 448.772 159.356 455.448M155.56 455.448C143.629 444.321 130.613 429.113 120.309 424.848M151.76 127.191C136.141 99.1505 147.964 59.3146 166.944 42.0672C172.91 34.278 176.164 23.1507 178.333 13.6924C191.348 -9.67506 204.907 5.34646 195.687 29.2707C193.517 49.2999 195.687 69.8855 195.687 86.0201C194.059 105.493 178.333 119.959 166.944 127.191C162.876 132.474 155.126 129.393 151.76 127.191Z" stroke="#F3C9CB" stroke-width="3"/>
<path d="M250.995 691.907C253.708 653.106 262.345 592.767 210.377 493.835C213.546 434.172 218.548 388.481 225.215 380.816C225.674 380.498 226.137 380.154 226.605 379.785C226.134 379.946 225.671 380.292 225.215 380.816C216.836 386.63 210.062 384.12 207.624 382.01C210.156 384.824 207.275 438.716 203.896 506.586C200.327 578.279 196.203 665.571 197.317 724.733L207.621 743.093C205.447 677.297 206.134 587.613 209.407 513.802C246.543 566.688 248.758 661.583 243.414 691.907H250.995Z" fill="#D8BA9E"/>
<path d="M166.405 127.75C166.278 127.968 166.15 128.193 166.021 128.425C162.993 132.996 155.352 129.952 151.763 127.75C151.763 133.995 145.835 162.106 139.595 197.898C136.298 191.742 133.867 186.06 133.867 182.274C133.867 188.909 125.913 196.166 121.936 198.965C124.782 197.505 130.718 201.675 137.256 211.625C138.645 213.74 140.062 216.116 141.482 218.755C156.294 246.277 171.466 302.37 159.898 388.687L168.032 393.694C180.506 318.584 161.599 236.887 155.559 225.115C153.066 220.255 148.281 212.88 143.838 205.377C150.561 169.601 159.522 140.081 166.021 128.425C166.159 128.216 166.287 127.992 166.405 127.75Z" fill="#D8BA9E"/>
<path d="M164.778 558.379L165.863 518.32H157.728V552.259L164.778 558.379Z" fill="#D8BA9E"/>
<path d="M209.793 492.727C262.41 592.317 253.719 652.961 250.995 691.907H243.414C249.199 659.081 246.126 550.59 199.487 501.629M134.409 298.555C134.409 228.453 154.691 147.78 166.405 127.75C163.699 133.276 155.516 130.053 151.763 127.75C151.763 139.991 128.986 236.242 125.732 309.683M226.605 379.785C210.336 385.349 203.283 611.79 207.621 743.093L197.317 724.733C195.148 609.565 212.83 387.797 207.624 382.01C210.195 384.236 217.59 386.906 226.605 379.785ZM133.867 182.274C133.867 192.067 150.136 214.544 155.559 225.115C161.599 236.887 180.506 318.584 168.032 393.694L159.898 388.687C177.794 255.159 131.697 193.958 121.936 198.966C125.913 196.166 133.867 188.909 133.867 182.274ZM165.863 518.32L164.778 558.379L157.728 552.259V518.32H165.863Z" stroke="#D8BA9E" stroke-width="3"/>
<path d="M198.403 760.853C188.858 736.373 112.718 716.985 112.718 689.677C106.005 683.436 117.214 658.347 122.48 634.571C123.158 637.035 123.88 639.104 124.649 640.717C133.145 652.957 144.532 675.768 146.701 689.677C149.383 695.839 161.813 708.899 173.745 721.523C181.578 732.364 188.75 739.99 194.282 744.51V738.489V736.412C177.47 670.761 146.161 632 129.53 611.786C128.944 611.786 128.245 609.923 127.466 606.617C135.681 608.024 152.331 613.067 168.851 618.327C182.286 648.083 196.241 672.758 201.861 682.148L208.598 660.214C208.285 654.356 205.197 642.24 200.776 628.637C210.843 631.858 216.551 633.528 212.866 631.638C208.962 626.297 236.184 610.673 226.603 611.786C226.293 611.786 225.969 611.779 225.633 611.766C224.197 606.077 207.769 598.731 188.566 594.302C203.657 578.773 175.291 566.834 166.66 564.476C176.666 556.313 164.135 549.192 148.535 544.772C143.249 534.763 139.012 521.051 138.207 502.738C137.409 514.923 139.066 528.736 142.316 543.183C133.283 541.11 124.084 539.958 118.174 540.023C116.04 521.06 114.086 501.941 112.718 487.716C112.718 501.603 112.971 520.543 113.641 540.464C111.633 540.967 111.101 541.911 112.718 543.353C113.18 547.428 113.681 551.441 114.219 555.39C115.619 587.165 118.157 618.874 122.48 634.571C117.214 658.347 106.005 683.436 112.718 689.677C108.384 729.457 196.207 771.143 196.387 776.336L198.403 760.853Z" fill="#3A3A3A"/>
<path d="M287.343 479.37C264.927 512.938 217.384 592.869 220.096 704.699L226.603 749.208H259.142C254.442 741.79 255.346 710.263 274.327 679.663C293.67 637.564 323.353 538.568 287.343 479.37Z" fill="#3A3A3A"/>
<path d="M300.9 346.399C299.635 367.355 292.006 425.959 271.615 492.723C253.828 452.22 267.096 419.839 275.954 408.712C279.208 397.028 291.139 362.533 300.9 346.399Z" fill="#3A3A3A"/>
<path d="M62.8246 342.504C69.8932 344.711 78.3551 350.885 85.5454 361.977C41.6744 378.111 26.4896 383.532 14.5587 384.788C-2.36148 386.568 40.7705 357.155 62.8246 342.504Z" fill="#3A3A3A"/>
<path d="M112.718 689.677C112.718 716.985 188.858 736.373 198.403 760.853L196.387 776.336C196.207 771.143 108.384 729.457 112.718 689.677ZM112.718 689.677C103.498 681.105 128.084 636.985 124.649 609.537M124.649 609.537C124.649 565.028 268.725 611.034 212.866 618.823L183.761 598.319M124.649 609.537C103.499 593.959 226.967 638.871 212.866 631.638C208.962 626.297 236.184 610.673 226.603 611.786C215.757 611.786 188.641 603.697 183.761 598.319M183.761 598.319C215.432 576.064 153.767 559.703 165.879 565.081C190.608 546.832 101.691 533.524 112.718 543.353C126.167 661.958 172.698 726.876 194.282 744.51M194.282 744.51C183.435 730.044 151.221 700.063 146.701 689.677C144.532 675.768 133.145 652.957 124.649 640.717C115.104 620.688 112.718 530.371 112.718 487.716C116.695 529.072 125.625 611.786 129.53 611.786C146.161 632 177.47 670.761 194.282 736.412V738.489V744.51ZM274.327 679.663C293.67 637.564 323.353 538.568 287.343 479.37C264.927 512.938 217.384 592.869 220.096 704.699L226.603 749.208M274.327 679.663C255.346 710.263 254.442 741.79 259.142 749.208H226.603M274.327 679.663C244.825 691.235 230.219 730.848 226.603 749.208M300.9 346.399C299.635 367.355 292.006 425.959 271.615 492.723C253.828 452.22 267.096 419.839 275.954 408.712C279.208 397.028 291.139 362.533 300.9 346.399ZM300.9 346.399C256.648 384.677 232.93 429.112 226.603 446.545M132.783 375.33C108.921 334.715 89.398 336.941 81.8056 341.53M98.6173 396.471C95.7975 381.814 91.0432 370.458 85.5454 361.977M62.8246 342.504C65.717 338.795 76.274 335.048 95.3635 349.736M62.8246 342.504C69.8932 344.711 78.3551 350.885 85.5454 361.977M62.8246 342.504C40.7705 357.155 -2.36149 386.568 14.5587 384.788C26.4896 383.532 41.6744 378.111 85.5454 361.977M183.761 400.923C180.507 385.53 181.049 340.279 185.93 309.679C189.184 297.438 200.572 280.191 189.184 247.365C189.184 276.296 178.699 298.18 172.914 303.558C153.933 325.813 146.883 351.962 148.51 382.563M155.56 255.711C149.053 287.758 141.46 290.762 138.749 293.544C123.021 309.679 112.718 331.748 110.548 344.73M138.207 502.738C134.302 562.38 189.207 661.006 201.861 682.148L208.598 660.214C207.694 643.337 183.761 574.509 171.288 567.833C163.515 565.422 140.213 548.36 138.207 502.738Z" stroke="#3A3A3A" stroke-width="3"/>
<path d="M536.988 885L288.751 970.286L50.9883 845.5V582.5L288.751 649.914L480.821 615.908L536.988 606.5V885Z" fill="white"/>
<path d="M288.751 649.914V970.286M288.751 649.914L50.9883 582.5V845.5L288.751 970.286M288.751 649.914L480.821 615.908L536.988 606.5V885L288.751 970.286" stroke="#F5F5F5" stroke-width="5"/>
<path d="M313.666 783.158L317.146 781.871L315.641 768.153L300.733 745.041L297.652 744.474L297.554 743.579L305.009 742.761C307.077 742.534 308.775 742.791 310.104 743.53C311.472 744.266 312.643 745.405 313.617 746.948L324.374 763.574L331.248 742.599L326.579 741.301L326.481 740.406L337.813 739.163L337.911 740.058L333.336 742.37L325.417 766.477L326.987 780.792L330.664 781.294L330.762 782.188L313.764 784.053L313.666 783.158ZM344.682 779.756L348.162 778.469L343.975 740.298L340.299 739.796L340.201 738.901L372.109 735.401L373.287 746.137L371.498 746.333C370.677 745.819 369.938 745.136 369.281 744.282C367.773 742.275 366.882 740.019 366.607 737.514L353.784 738.92L355.845 757.707L362.703 756.955C362.816 755.414 363.178 753.945 363.79 752.55C364.042 751.919 364.357 751.301 364.733 750.696L366.522 750.5L367.994 763.92L366.205 764.116C365.707 763.607 365.266 763.072 364.882 762.511C363.983 761.281 363.311 759.927 362.867 758.446L356.008 759.198L358.036 777.688L372.052 776.15C371.777 773.645 372.158 771.249 373.195 768.963C373.652 767.987 374.225 767.16 374.915 766.48L376.704 766.284L377.882 777.02L344.78 780.651L344.682 779.756ZM397.932 775.726C395.109 776.035 392.395 775.689 389.79 774.687C388.616 774.253 387.609 773.699 386.771 773.027C386.315 774.002 385.708 774.894 384.952 775.701C384.293 776.296 383.926 776.618 383.851 776.667L382.36 776.83L381.117 765.498L383.502 765.237C384.312 767.12 385.339 768.777 386.583 770.21C389.388 773.404 392.719 774.789 396.576 774.366C398.842 774.117 400.577 773.243 401.781 771.742C402.984 770.242 403.462 768.359 403.213 766.093C403.069 764.78 402.543 763.651 401.634 762.704C400.765 761.754 399.711 760.944 398.471 760.275C397.23 759.606 395.511 758.789 393.312 757.823C390.527 756.639 388.253 755.541 386.492 754.527C384.731 753.513 383.176 752.174 381.827 750.512C380.473 748.809 379.661 746.725 379.391 744.26C379.177 742.312 379.522 740.503 380.425 738.835C381.364 737.122 382.877 735.689 384.963 734.534C387.046 733.34 389.677 732.569 392.858 732.22C395.164 731.967 397.542 732.37 399.992 733.429C400.919 733.81 401.864 734.35 402.826 735.05C403.389 733.942 403.995 733.05 404.645 732.375C405.304 731.78 405.671 731.458 405.747 731.41L407.238 731.246L408.481 742.578L406.095 742.84C405.369 740.988 404.404 739.343 403.2 737.906C402.08 736.5 400.749 735.378 399.209 734.541C397.708 733.7 396.043 733.379 394.214 733.58C392.664 733.75 391.399 734.512 390.421 735.867C389.443 737.222 389.059 738.853 389.268 740.762C389.429 742.233 389.993 743.519 390.959 744.621C391.96 745.678 393.125 746.576 394.454 747.316C395.822 748.051 397.647 748.917 399.929 749.914C402.591 751.071 404.759 752.121 406.432 753.064C408.105 754.007 409.569 755.255 410.826 756.807C412.078 758.32 412.822 760.149 413.058 762.296C413.293 764.444 412.893 766.479 411.857 768.404C410.816 770.289 409.12 771.883 406.768 773.187C404.416 774.491 401.471 775.338 397.932 775.726ZM418.594 771.649L422.075 770.361L417.888 732.19L414.211 731.688L414.113 730.794L446.021 727.294L447.199 738.029L445.41 738.225C444.589 737.712 443.85 737.028 443.193 736.175C441.685 734.167 440.794 731.911 440.519 729.406L427.696 730.813L429.757 749.6L436.616 748.848C436.728 747.306 437.09 745.838 437.702 744.443C437.954 743.812 438.269 743.194 438.645 742.589L440.434 742.393L441.906 755.812L440.117 756.009C439.619 755.5 439.178 754.965 438.794 754.403C437.895 753.174 437.223 751.819 436.779 750.339L429.92 751.091L431.948 769.58L445.964 768.043C445.689 765.538 446.071 763.142 447.107 760.855C447.564 759.88 448.137 759.052 448.827 758.373L450.616 758.177L451.794 768.912L418.692 772.543L418.594 771.649ZM451.558 728.497L448.477 727.93L448.379 727.035L455.536 726.25C457.604 726.023 459.346 726.315 460.763 727.125C462.175 727.896 463.302 728.999 464.144 730.436L477.337 753.314L484.161 725.826L479.491 724.528L479.393 723.633L490.427 722.423L490.525 723.317L485.95 725.63L475.688 766.895L473.899 767.091L451.558 728.497ZM486.584 764.191L491.159 761.878L503.21 720.417L505 720.221L526.446 758.913L529.527 759.48L529.625 760.375L522.468 761.16C520.4 761.387 518.66 761.115 517.248 760.344C515.831 759.534 514.721 758.408 513.919 756.967L510.093 750.144L495.838 751.707L492.948 761.682L497.618 762.98L497.716 763.875L486.682 765.085L486.584 764.191ZM496.271 750.151L509.333 748.718L501.051 733.752L496.271 750.151ZM390.242 845.983C386.345 846.411 382.834 845.951 379.709 844.603C376.619 843.212 374.1 840.973 372.151 837.887C370.203 834.801 368.976 830.952 368.47 826.34C367.965 821.728 368.328 817.704 369.561 814.269C370.794 810.834 372.77 808.123 375.489 806.134C378.244 804.102 381.57 802.872 385.466 802.444C389.363 802.017 392.856 802.499 395.946 803.89C399.072 805.237 401.609 807.454 403.557 810.54C405.505 813.626 406.732 817.475 407.238 822.088C407.744 826.7 407.38 830.724 406.148 834.158C404.915 837.593 402.921 840.327 400.166 842.359C397.447 844.348 394.139 845.556 390.242 845.983ZM390.111 844.79C391.662 844.62 393.021 843.807 394.19 842.351C395.398 840.891 396.271 838.582 396.81 835.424C397.349 832.267 397.346 828.203 396.801 823.232C396.255 818.262 395.377 814.294 394.167 811.329C392.956 808.363 391.603 806.298 390.107 805.134C388.651 803.966 387.148 803.467 385.597 803.637C384.046 803.807 382.667 804.623 381.459 806.083C380.291 807.539 379.437 809.846 378.898 813.003C378.36 816.161 378.363 820.225 378.908 825.195C379.453 830.165 380.331 834.133 381.541 837.099C382.752 840.065 384.085 842.132 385.541 843.3C387.037 844.464 388.561 844.96 390.111 844.79ZM417.108 810.14L420.281 839.067L425.249 840.332L425.347 841.227L414.015 842.47L413.917 841.576L418.492 839.263L414.436 802.285L410.13 801.55L410.032 800.655L416.294 799.968C418.402 799.737 420.093 799.934 421.369 800.558C422.644 801.183 423.889 802.073 425.102 803.227L446.641 823.5L444.024 799.643L439.056 798.377L438.958 797.482L450.29 796.239L450.388 797.134L445.813 799.446L450.197 839.407L448.407 839.603L417.108 810.14ZM458.676 836.666L462.157 835.379L457.97 797.208L454.293 796.705L454.195 795.811L486.104 792.311L487.281 803.046L485.492 803.243C484.671 802.729 483.932 802.046 483.275 801.192C481.767 799.185 480.876 796.928 480.601 794.423L467.778 795.83L469.839 814.617L476.698 813.865C476.81 812.323 477.172 810.855 477.784 809.46C478.037 808.829 478.351 808.211 478.727 807.606L480.517 807.41L481.989 820.829L480.199 821.026C479.701 820.517 479.26 819.982 478.876 819.42C477.977 818.191 477.305 816.836 476.861 815.356L470.002 816.108L472.03 834.597L486.046 833.06C485.772 830.555 486.153 828.159 487.189 825.872C487.646 824.897 488.219 824.069 488.909 823.39L490.698 823.194L491.876 833.93L458.774 837.56L458.676 836.666Z" fill="#F3C9CB"/>
<path d="M321.496 641.5C347.98 758.543 368.904 806.247 374.03 814.789C379.156 823.331 391.971 873.453 394.534 896.804C402.223 928.414 427.283 926.706 445.794 920.725C466.981 915.258 483.384 928.554 496.199 930.123C538.061 935.249 582.486 809.664 557.71 747.297C550.876 733.628 549.541 705.005 550.395 693.329C552.958 628.401 480.496 626.5 477.996 614" stroke="#3A3A3A" stroke-width="5"/>
<path d="M162.5 848C156.167 848 150.833 845.833 146.5 841.5C142.167 837.167 140 831.833 140 825.5L155 775.5L120 813C116.333 815.333 111.833 816.5 106.5 816.5C102.167 816.5 98.3333 815.667 95 814C91.6667 812 89.1667 809.167 87.5 805.5C85.8333 801.5 85 798 85 795C85 791 86 787.333 88 784C90.3333 780.333 93.5 777.5 97.5 775.5L147.5 763L97.5 750.5C93.5 748.5 90.3333 745.833 88 742.5C86 738.833 85 735 85 731C85 724 87 718.667 91 715C95.3333 711.333 100.5 709.5 106.5 709.5C111.833 709.5 116.333 710.667 120 713L155 750.5L140 700.5C140 694.167 142.167 688.833 146.5 684.5C150.833 680.167 156.167 678 162.5 678C168.833 678 174.167 680.167 178.5 684.5C182.833 688.833 185 694.167 185 700.5L170 750.5L205 713C208.667 710.667 213.167 709.5 218.5 709.5C222.833 709.5 226.667 710.5 230 712.5C233.333 714.167 235.833 716.833 237.5 720.5C239.167 724.5 240 728 240 731C240 735 238.833 738.833 236.5 742.5C234.5 745.833 231.5 748.5 227.5 750.5L177.5 763L227.5 775.5C231.5 777.5 234.5 780.333 236.5 784C238.833 787.333 240 791 240 795C240 802 237.833 807.333 233.5 811C229.5 814.667 224.5 816.5 218.5 816.5C213.167 816.5 208.667 815.333 205 813L170 775.5L185 825.5C185 831.833 182.833 837.167 178.5 841.5C174.167 845.833 168.833 848 162.5 848Z" fill="#F3C9CB"/>
</svg>
