<svg width="1379" height="800" viewBox="0 0 1379 800" fill="none" xmlns="http://www.w3.org/2000/svg">
<path d="M289.322 727.624H939.742C935.971 723.563 929.877 712.181 933.546 699.135H684.232V479.284C685.368 432.73 684.232 333.024 684.232 271.573C552.758 271.573 445.18 263.958 426.153 289.856C416.576 302.891 400.345 352.826 376.972 416.816C339.964 419.017 253.776 441.194 172.943 447.796H98.9281C75.5549 447.796 25.8869 471.716 25.8869 531.084C25.8869 575.275 25.8869 583.908 21.0175 630.624V644.844C15.6611 642.814 3.00061 643.322 3.00061 649.923V688.012C3.00061 695.123 13.3238 695.529 19.5566 693.091C29.7824 703.756 82.3988 714.493 98.4678 689.099C134.32 534.383 311.079 592.088 289.322 727.624Z" fill="white" stroke="#F3C9CB" stroke-width="5"/>
<path d="M664.271 340.399V669.996H417.392C417 340.399 400.5 298.25 478.747 298.249C664.384 298.248 664.271 289.615 664.271 340.399Z" fill="white" stroke="#F3C9CB" stroke-width="5"/>
<path d="M1264.48 668.051V488.777H1275.68V477.097H684.19V488.777V668.051V699.03H928.026H1133.55H1275.68V668.051H1264.48Z" fill="white"/>
<path d="M1264.48 488.777V668.051M1264.48 488.777H684.19M1264.48 488.777H1275.68V477.097H684.19V488.777M1264.48 668.051H1275.68V699.03H1133.55H928.026H684.19V668.051M1264.48 668.051H1127.17H933.851H684.19M684.19 668.051V488.777" stroke="#F3C9CB" stroke-width="5"/>
<path d="M932.646 694.886C932.646 751.385 976.535 797.004 1030.46 797.004C1084.38 797.004 1128.27 751.385 1128.27 694.886C1128.27 638.387 1084.38 592.767 1030.46 592.767C976.535 592.767 932.646 638.387 932.646 694.886Z" fill="white" stroke="#F3C9CB" stroke-width="5"/>
<path d="M97.9133 693.032C97.9133 749.531 141.802 795.15 195.723 795.15C249.644 795.15 293.533 749.531 293.533 693.032C293.533 636.533 249.644 590.913 195.723 590.913C141.802 590.913 97.9133 636.533 97.9133 693.032Z" fill="white" stroke="#F3C9CB" stroke-width="5"/>
<path d="M796.159 470.833C784.355 475.428 772.183 476.322 759.643 473.514C747.103 470.705 735.403 464.082 724.543 453.645C713.622 443.052 704.715 428.903 697.822 411.197C690.868 393.337 687.94 376.859 689.039 361.766C690.232 346.456 695.073 333.393 703.56 322.577C712.142 311.545 723.733 303.187 738.332 297.503C747.185 294.056 757.113 293.142 768.116 294.76C772.259 295.293 776.643 296.448 781.269 298.224C782.337 293.157 783.816 288.915 785.704 285.497C787.714 282.39 788.843 280.698 789.094 280.422L794.918 278.154L812.151 322.418L802.833 326.046C797.911 319.377 792.252 313.8 785.856 309.315C779.831 304.865 773.267 301.786 766.164 300.081C759.216 298.314 752.17 298.822 745.026 301.603C734.309 305.776 727.798 315.465 725.491 330.671C723.34 345.817 727.706 367.368 738.59 395.324C749.475 423.28 760.291 441.873 771.038 451.102C781.941 460.271 792.363 462.921 802.303 459.051C808.049 456.813 812.043 451.682 814.283 443.655C815.084 440.66 815.661 436.859 816.013 432.25L795.151 378.668L779.813 380.616L778.452 377.121L844.848 351.271L846.208 354.765L833.591 363.702L863.976 441.746L860.482 443.106C849.144 447.52 839.315 447.77 830.995 443.856C827.266 442.088 824.193 439.707 821.775 436.714C821.113 441.443 819.911 445.935 818.169 450.19C813.901 459.901 806.564 466.781 796.159 470.833ZM737.254 288.532C725.295 293.189 715.717 294.772 708.519 293.281C701.477 291.731 696.837 288.082 694.599 282.336C693.027 278.298 693.047 274.445 694.66 270.776C696.272 267.108 699.097 264.488 703.135 262.916C703.446 262.795 705.322 262.332 708.765 261.528L711.742 260.906L721.72 286.532C721.875 286.472 723.113 286.437 725.435 286.427C727.911 286.357 731.247 285.506 735.44 283.873C739.633 282.24 742.588 280.643 744.305 279.08C746.177 277.457 747.191 276.615 747.346 276.555L737.369 250.929L739.983 249.374C743.063 247.638 744.758 246.71 745.069 246.589C749.107 245.017 752.96 245.037 756.628 246.649C760.297 248.262 762.917 251.087 764.489 255.125C766.726 260.871 765.697 266.727 761.402 272.692C757.262 278.596 749.213 283.876 737.254 288.532Z" fill="#3A3A3A"/>
<path d="M1146.75 467C1152.25 466.333 1156.58 463.333 1159.75 458C1162.92 452.5 1164.83 443.333 1165.5 430.5L1167.5 385.5H1149.25V378H1167.75L1169.25 345.5C1170.08 329.5 1175.42 317 1185.25 308C1195.08 298.833 1208.92 294.25 1226.75 294.25C1241.92 294.25 1253 296.833 1260 302C1267 307.167 1270.5 313.667 1270.5 321.5C1270.5 327.167 1268.75 331.75 1265.25 335.25C1261.92 338.583 1257.42 340.25 1251.75 340.25C1249.42 340.25 1247.08 340.083 1244.75 339.75L1241.75 339V301.5L1239.5 300.5C1237.5 299.667 1234.92 299.25 1231.75 299.25C1225.42 299.25 1220.5 302.583 1217 309.25C1213.67 315.917 1211.5 328 1210.5 345.5L1209 378H1253V385.5H1208.75L1206.75 430.5C1206.08 441.333 1202 449.417 1194.5 454.75C1191.33 456.917 1187.5 458.417 1183 459.25H1256.75C1257.92 450.25 1260.75 442.75 1265.25 436.75C1267.08 433.917 1269.25 431.417 1271.75 429.25H1279.25V473H1146.75V467Z" fill="#3A3A3A"/>
<path d="M898.75 476.75C881.583 476.75 868.75 473.667 860.25 467.5C851.75 461.167 847.5 453 847.5 443C847.5 437 848.917 431 851.75 425C852.917 422.667 854.417 420.333 856.25 418C863.083 416.333 870.5 414.833 878.5 413.5C896.5 410.5 912.417 408.667 926.25 408V398C926.25 379.5 924 366.75 919.5 359.75C915 352.75 908.083 349.25 898.75 349.25C895.25 349.25 892.25 349.667 889.75 350.5L886.25 351.75V389.25L883 390C880.333 390.333 878.083 390.5 876.25 390.5C870.583 390.5 866 388.833 862.5 385.5C859.167 382 857.5 377.417 857.5 371.75C857.5 364.083 861.333 357.583 869 352.25C876.833 346.917 888.417 344.25 903.75 344.25C917.25 344.25 928.583 348 937.75 355.5C941.75 358.833 945 362.583 947.5 366.75C949.667 362.75 952.75 359 956.75 355.5C965.583 348 976.25 344.25 988.75 344.25C1000.08 344.25 1010.08 346.5 1018.75 351C1027.42 355.5 1034.17 361.583 1039 369.25C1043.83 376.75 1046.25 385.083 1046.25 394.25C1046.25 397.75 1045.83 400.75 1045 403.25L1043.75 406.75C1036.58 408.25 1028.83 409.5 1020.5 410.5C1003 413 985.333 414.25 967.5 414.25V419.75C967.833 438.25 970.583 451.333 975.75 459C980.917 466.667 988.167 470.5 997.5 470.5C1004 470.5 1010 469 1015.5 466C1021.17 462.833 1025.58 458.75 1028.75 453.75C1032.08 448.583 1033.75 443.333 1033.75 438H1040C1040 444.667 1038 451 1034 457C1030 463 1024.42 467.833 1017.25 471.5C1010.08 475 1001.83 476.75 992.5 476.75C978.167 476.75 966.417 472.833 957.25 465C952.917 461.5 949.667 457.5 947.5 453C943.833 457.667 939.75 461.667 935.25 465C924.417 472.833 912.25 476.75 898.75 476.75ZM967.5 408C978.167 408 986.833 407.583 993.5 406.75C996.333 406.583 999.333 406.167 1002.5 405.5C1002.67 404.333 1003.08 402.583 1003.75 400.25C1004.58 396.917 1005 393.25 1005 389.25C1005 375.417 1003.17 365.333 999.5 359C995.833 352.5 991.417 349.25 986.25 349.25C980.917 349.25 976.5 353.417 973 361.75C969.667 369.917 967.833 384.917 967.5 406.75V408ZM903.75 470.5C910.75 470.5 916.667 466.583 921.5 458.75C923.333 455.583 924.917 451.583 926.25 446.75V414.25C918.583 414.25 911.25 414.667 904.25 415.5C899.083 416.167 895.583 416.583 893.75 416.75C892.917 418.583 892.083 421.083 891.25 424.25C889.583 430.583 888.75 436.833 888.75 443C888.75 452.333 890.167 459.25 893 463.75C895.833 468.25 899.417 470.5 903.75 470.5Z" fill="#3A3A3A"/>
<path d="M1093.75 474.75C1078.92 474.75 1066.83 473.417 1057.5 470.75C1048.17 468.083 1041.42 464.667 1037.25 460.5C1033.25 456.333 1031.25 451.917 1031.25 447.25C1031.25 441.583 1032.92 437 1036.25 433.5C1039.75 430.167 1044.33 428.5 1050 428.5C1051.33 428.5 1053.75 428.75 1057.25 429.25L1060 429.75V464.75C1062 465.417 1065.17 466.25 1069.5 467.25C1077.17 468.917 1084.42 469.75 1091.25 469.75C1111.58 469.75 1126.42 466.833 1135.75 461C1145.25 455.333 1150 448.25 1150 439.75C1150 428.917 1140 423.5 1120 423.5H1072.5C1060 423.5 1050.42 420.917 1043.75 415.75C1037.08 410.583 1033.75 404 1033.75 396C1033.75 388 1037.67 380.917 1045.5 374.75C1048.67 372.417 1052.67 370.333 1057.5 368.5C1051.33 364.667 1046.83 360.167 1044 355C1041.33 349.667 1040 343.333 1040 336C1040 323.667 1044.67 313.75 1054 306.25C1063.33 298.583 1077 294.75 1095 294.75C1102.83 294.75 1110 295.583 1116.5 297.25C1123.17 298.75 1128.5 300.833 1132.5 303.5C1133.83 300.667 1135.58 298.167 1137.75 296C1142.75 291 1148.92 288.5 1156.25 288.5C1161.92 288.5 1166.67 290.5 1170.5 294.5C1174.33 298.333 1176.25 303.417 1176.25 309.75C1176.25 314.583 1174.92 318.5 1172.25 321.5C1169.75 324.5 1166.5 326 1162.5 326C1160.67 326 1158.58 325.833 1156.25 325.5L1153.75 324.75V294.75C1149.42 294.75 1145.33 296.833 1141.5 301C1140 302.5 1138.67 304.583 1137.5 307.25C1145.83 314.583 1150 324.167 1150 336C1150 348.333 1145.33 358.333 1136 366C1126.67 373.5 1113 377.25 1095 377.25C1083 377.25 1072.17 375.167 1062.5 371L1057.5 373.5C1055.83 374.5 1054.58 375.5 1053.75 376.5C1052.92 377.333 1052.5 378.417 1052.5 379.75C1052.5 382.583 1053.92 384.75 1056.75 386.25C1059.75 387.75 1065 388.5 1072.5 388.5H1120C1132.5 388.5 1142.25 392.167 1149.25 399.5C1156.42 406.667 1160 416.75 1160 429.75C1160 443.083 1154.42 453.917 1143.25 462.25C1132.25 470.583 1115.75 474.75 1093.75 474.75ZM1095 372.25C1100.5 372.25 1104.75 369.583 1107.75 364.25C1110.92 358.917 1112.5 349.5 1112.5 336C1112.5 322.5 1110.92 313.083 1107.75 307.75C1104.75 302.417 1100.5 299.75 1095 299.75C1089.5 299.75 1085.17 302.417 1082 307.75C1079 313.083 1077.5 322.5 1077.5 336C1077.5 349.5 1079 358.917 1082 364.25C1085.17 369.583 1089.5 372.25 1095 372.25ZM1100.75 283.5C1087.92 283.5 1078.42 281.5 1072.25 277.5C1066.25 273.5 1063.25 268.417 1063.25 262.25C1063.25 257.917 1064.67 254.333 1067.5 251.5C1070.33 248.667 1073.92 247.25 1078.25 247.25C1078.58 247.25 1080.5 247.5 1084 248L1087 248.5V276C1087.17 276 1088.33 276.417 1090.5 277.25C1092.83 278.083 1096.25 278.5 1100.75 278.5C1105.25 278.5 1108.58 278.083 1110.75 277.25C1113.08 276.417 1114.33 276 1114.5 276V248.5L1117.5 248C1121 247.5 1122.92 247.25 1123.25 247.25C1127.58 247.25 1131.17 248.667 1134 251.5C1136.83 254.333 1138.25 257.917 1138.25 262.25C1138.25 268.417 1135.17 273.5 1129 277.5C1123 281.5 1113.58 283.5 1100.75 283.5Z" fill="#3A3A3A"/>
<path d="M804.53 227.792L803.171 222.566L905.081 196.063L906.44 201.289L804.53 227.792ZM860.335 335.101L870.107 329.77L844.964 233.085L824.93 238.295C826.773 245.38 826.623 252.672 824.482 260.172C823.551 263.266 822.266 265.956 820.629 268.242L815.403 269.601L807.248 238.244L909.158 211.742L917.313 243.099L912.087 244.458C909.427 243.289 906.937 241.581 904.617 239.333C899.269 234.028 895.644 227.717 893.742 220.401L873.708 225.61L898.851 322.295L909.983 322.189L910.663 324.803L861.014 337.714L860.335 335.101Z" fill="#3A3A3A"/>
<path d="M1288.93 253.933C1273.27 267.414 1256.33 274.181 1238.13 274.235L1239.11 291.859L1232.48 297.566L1231.05 274.059C1219.91 272.87 1208.95 269.33 1198.17 263.44C1187.51 257.441 1177.39 248.884 1167.83 237.767C1155.22 223.113 1146.98 208.432 1143.12 193.724C1139.26 179.017 1139.65 165.042 1144.31 151.8C1148.98 138.323 1157.51 126.257 1169.89 115.603C1185.55 102.123 1202.49 95.3554 1220.69 95.3014L1219.71 77.6777L1226.34 71.9702L1227.74 95.8298C1251.32 98.1876 1272.41 110.168 1291 131.77C1303.61 146.424 1311.84 161.105 1315.7 175.812C1319.57 190.52 1319.16 204.612 1314.49 218.089C1309.83 231.331 1301.31 243.279 1288.93 253.933ZM1222.57 126.997C1211.46 119.191 1201.73 114.917 1193.4 114.174C1184.95 113.305 1178.2 115.045 1173.15 119.393C1168.22 123.633 1165.41 129.686 1164.7 137.551C1164.12 145.307 1166.62 155.245 1172.22 167.364C1177.81 179.483 1187.4 193.438 1200.99 209.229C1211.1 220.978 1220.44 230.305 1229.03 237.212L1222.57 126.997ZM1285.67 250.143C1290.6 245.903 1293.35 239.905 1293.93 232.149C1294.64 224.284 1292.2 214.291 1286.61 202.172C1281.01 190.053 1271.42 176.098 1257.84 160.307C1248.81 149.822 1239.52 140.558 1229.96 132.514L1236.22 242.892C1247.21 250.807 1256.87 255.135 1265.21 255.878C1273.67 256.512 1280.49 254.6 1285.67 250.143ZM1158.88 113.537L1142 78.5903L1166.63 57.391L1165.51 107.83L1158.88 113.537Z" fill="#3A3A3A"/>
<path d="M924.457 212.983L916.791 209.586L917.32 207.399L934.816 211.629C939.967 212.874 943.913 215.063 946.654 218.195C949.395 221.327 951.011 224.855 951.502 228.781L959.947 290.236L981.872 255.722L977.674 225.849L970.008 222.452L970.537 220.265L988.032 224.495C993.184 225.741 997.082 227.918 999.725 231.026C1002.39 234.037 1004.06 237.577 1004.72 241.647L1013.16 303.103L1049.14 246.214L1039.26 239.196L1039.79 237.009L1066.76 243.53L1066.24 245.717L1053.51 247.271L997.267 336.297L992.893 335.239L982.759 262.264L944.051 323.43L939.677 322.373L924.457 212.983ZM972.736 213.081L999.694 194.135L1015.02 223.304L1009.92 222.07L996.345 207.986L977.839 214.315L972.736 213.081Z" fill="#3A3A3A"/>
<path d="M911.24 100.8C906.08 104.88 898.64 109.5 888.92 114.66L884.96 117H932.3V122.4H877.22C872.66 125.88 869.3 129.6 867.14 133.56C864.98 137.4 863.9 142.14 863.9 147.78C863.9 155.22 865.64 160.68 869.12 164.16C872.6 167.64 877.16 169.38 882.8 169.38C887.84 169.38 893 168.12 898.28 165.6C903.56 163.08 908.36 159.42 912.68 154.62C917 149.82 920.24 144.18 922.4 137.7H929.6V171.9H925.1C923.18 170.82 921.32 169.38 919.52 167.58C917.72 165.66 916.28 163.8 915.2 162C910.04 165.96 904.16 168.96 897.56 171C890.96 173.04 884.12 174.06 877.04 174.06C865.88 174.06 856.4 171.6 848.6 166.68C840.8 161.76 836.9 154.62 836.9 145.26C836.9 136.62 840.92 129 848.96 122.4H834.2V117H856.7C857.9 116.16 861.74 114 868.22 110.52L877.58 105.3C880.7 103.38 883.04 101.88 884.6 100.8H834.2V95.4H891.08C894.08 92.28 896.18 88.86 897.38 85.14C898.7 81.42 899.36 76.92 899.36 71.64C899.36 54.84 893.84 46.44 882.8 46.44C878.24 46.44 873.68 47.7 869.12 50.22C864.56 52.74 860.36 56.4 856.52 61.2C852.8 66 849.98 71.7 848.06 78.3H840.86V44.1H845.36C849.2 46.26 852.5 49.56 855.26 54C859.34 50.16 864.14 47.22 869.66 45.18C875.18 43.14 881.06 42.12 887.3 42.12C894.14 42.12 900.5 43.32 906.38 45.72C912.26 48 917 51.54 920.6 56.34C924.32 61.02 926.18 66.66 926.18 73.26C926.18 81.54 923.12 88.92 917 95.4H932.3V100.8H911.24Z" fill="#3A3A3A"/>
<path d="M1113.24 52.2536C1116.64 56.5384 1117.47 61.238 1115.74 66.3524C1114.01 71.4668 1108.94 77.5234 1100.54 84.5221L1153.57 151.459C1160.28 159.924 1164.55 168.534 1166.38 177.288C1168.21 186.043 1167.74 194.245 1164.95 201.895C1162.17 209.545 1157.33 216.102 1150.43 221.567C1134.96 233.821 1120.4 239.49 1106.74 238.572C1093.01 237.549 1080.92 230.454 1070.49 217.286L1018.32 151.446L1007.05 156.547L1005.19 154.196L1049.87 118.798L1051.73 121.15L1044.19 130.953L1096.35 196.793C1107.03 210.274 1116.78 218.285 1125.6 220.825C1134.33 223.261 1142.62 221.374 1150.46 215.164C1155.27 211.355 1158.61 206.238 1160.49 199.812C1162.4 193.199 1162.42 186.036 1160.56 178.323C1158.73 170.422 1154.83 162.709 1148.87 155.185L1098.57 91.6969L1082.3 96.9302L1080.44 94.5788L1097.68 80.9166L1097.93 81.2301C1100.48 78.8683 1102.25 77.1274 1103.23 76.0076L1107.28 71.7787L1091.51 51.8701L1093.01 49.9094C1093.58 49.1208 1094.96 47.8571 1097.16 46.1182C1099.25 44.4622 1101.75 44.1825 1104.66 45.279C1107.57 46.3755 1110.43 48.7004 1113.24 52.2536ZM1046.94 89.9857C1048.47 87.4108 1049.15 84.8319 1048.98 82.249C1048.91 79.5832 1047.63 76.6828 1045.14 73.5476C1042.41 70.0988 1039.84 68.1397 1037.43 67.6702C1034.93 67.0962 1032.38 67.8443 1029.76 69.9143C1029.24 70.3283 1028.32 71.3131 1027 72.8686L1025.99 74.1758L1032.95 82.9543L1032.45 83.6079L1031.98 83.9805C1026.65 88.2034 1022.91 88.9562 1020.75 86.2391C1016.2 80.4912 1018.78 73.767 1028.5 66.0664C1041.25 55.9647 1050.98 55.1463 1057.69 63.6114C1060.09 66.6421 1060.81 70.2375 1059.85 74.3977C1058.92 78.3706 1056.44 82.5444 1052.42 86.9192L1055.59 91.5569L1051.35 94.9104L1046.94 89.9857Z" fill="#3A3A3A"/>
<path d="M703.492 147.766L696.009 143.981L696.65 141.824L713.906 146.945C718.987 148.453 722.816 150.841 725.392 154.109C727.969 157.377 729.402 160.984 729.692 164.929L734.978 226.736L758.641 193.39L755.98 163.342L748.497 159.557L749.137 157.4L766.394 162.52C771.475 164.028 775.256 166.402 777.737 169.641C780.246 172.785 781.727 176.406 782.18 180.504L787.465 242.311L826.308 187.34L816.803 179.826L817.444 177.669L844.047 185.563L843.407 187.72L830.623 188.62L769.89 274.648L765.576 273.368L759.193 199.969L717.402 259.073L713.088 257.792L703.492 147.766ZM751.702 150.338L779.595 132.798L793.405 162.712L788.372 161.219L775.541 146.459L756.735 151.831L751.702 150.338Z" fill="#3A3A3A"/>
<path d="M724.84 127.557L737.655 127.443L810.6 47.8775L814.827 49.4201L820.022 159.894L826.296 164.579L825.525 166.693L808.615 160.522C803.73 158.74 800.132 156.203 797.82 152.911C795.543 149.525 794.304 145.773 794.104 141.655L793.088 122.123L759.41 109.834L741.882 128.986L750.908 137.07L750.137 139.183L724.068 129.671L724.84 127.557ZM762.104 106.825L792.964 118.086L790.987 75.3701L762.104 106.825ZM815.517 40.0913C808.283 37.4517 803.34 34.3705 800.687 30.8476C798.128 27.3589 797.482 23.8767 798.751 20.4009C799.642 17.9584 801.177 16.2301 803.357 15.2158C805.537 14.2016 807.848 14.1401 810.29 15.0314C810.478 15.0999 811.507 15.635 813.377 16.6367L814.965 17.5356L809.309 33.0359C809.403 33.0701 809.975 33.545 811.025 34.4603C812.169 35.4099 814.009 36.3475 816.545 37.273C819.081 38.1986 821.046 38.6493 822.439 38.6253C823.925 38.6355 824.715 38.6577 824.809 38.692L830.466 23.1917L832.259 23.5269C834.335 23.965 835.467 24.2183 835.655 24.2869C838.097 25.1781 839.825 26.7136 840.84 28.8934C841.854 31.0731 841.915 33.3842 841.024 35.8267C839.756 39.3025 836.972 41.5336 832.674 42.5198C828.469 43.5403 822.75 42.7308 815.517 40.0913Z" fill="#3A3A3A"/>
<path d="M985.8 183.7C970.44 183.7 958.5 179.5 949.98 171.1C941.46 162.58 937.2 150.88 937.2 136C937.2 126.28 939.06 117.82 942.78 110.62C946.5 103.42 951.66 97.9 958.26 94.06C964.98 90.22 972.66 88.3 981.3 88.3C989.94 88.3 997.5 89.92 1003.98 93.16C1010.58 96.4 1015.62 100.78 1019.1 106.3C1022.7 111.7 1024.5 117.7 1024.5 124.3C1024.5 127.3 1024.2 129.88 1023.6 132.04L1022.7 135.1C1017.54 136.18 1011.96 137.08 1005.96 137.8C993.36 139.6 980.64 140.5 967.8 140.5C967.8 154.42 969.72 164.38 973.56 170.38C977.4 176.26 982.68 179.2 989.4 179.2C994.08 179.2 998.4 178.12 1002.36 175.96C1006.44 173.68 1009.62 170.74 1011.9 167.14C1014.3 163.42 1015.5 159.64 1015.5 155.8H1020C1020 160.6 1018.56 165.16 1015.68 169.48C1012.8 173.8 1008.78 177.28 1003.62 179.92C998.46 182.44 992.52 183.7 985.8 183.7ZM967.8 136C975.48 136 981.72 135.7 986.52 135.1C988.56 134.98 990.72 134.68 993 134.2C993.12 133.6 993.42 132.28 993.9 130.24C994.5 127.24 994.8 124.06 994.8 120.7C994.8 110.74 993.48 103.48 990.84 98.92C988.2 94.24 985.02 91.9 981.3 91.9C972.3 91.9 967.8 106.6 967.8 136ZM980.4 208.72C978.12 208.72 976.14 207.88 974.46 206.2C972.9 204.64 972.12 202.72 972.12 200.44C972.12 198.16 972.9 196.18 974.46 194.5C976.14 192.82 978.12 191.98 980.4 191.98C982.68 191.98 984.66 192.82 986.34 194.5C988.02 196.18 988.86 198.16 988.86 200.44C988.86 202.72 988.02 204.64 986.34 206.2C984.66 207.88 982.68 208.72 980.4 208.72ZM954.3 82L980.4 52.3L1006.5 82H1000.2L980.4 69.4L960.6 82H954.3Z" fill="#3A3A3A"/>
<path d="M636 435.254H437C437 370.477 461.023 322.254 502.975 322.254H636V435.254Z" fill="#C9DFF3" stroke="white" stroke-width="5"/>
</svg>
