<svg width="673" height="313" viewBox="0 0 673 313" fill="none" xmlns="http://www.w3.org/2000/svg">
<g clip-path="url(#clip0_467_2)">
<rect width="673" height="313" fill="#F3C9CB"/>
<path d="M78.0016 -4C78.7082 6.24609 78.8254 16.6135 78.2943 26.5M146 53C142 72 121.7 89.2 118.5 74C118.166 69.8333 116.1 61.5 110.5 61.5C106.166 60.8333 97.1996 57.4 95.9996 49C92.8329 49.6667 90.1663 53 89.4996 59.5C88.8329 66 86.8 80 84.0016 84C66.5012 117.5 45.1429 99 62.5016 81C72.0268 71.122 77.0218 50.1921 78.2943 26.5M152.5 19.5C153.623 29.3075 152.743 37.299 150.486 43.5M150.486 43.5C141.697 67.6481 112.026 64.6444 98.4996 36C94.9997 29 88.5 11.2 90.5 -4M150.486 43.5C155 56.5 185 62.8 185 52C184.666 49 185.2 41.9 190 37.5C198.5 34 204.7 24.7 195.5 11.5C201.5 6.3 211.333 6.66667 215.5 7.5C229.5 13.1 232.666 1.83333 232.5 -4.5M47.4996 -4C40.6996 18 64.9998 36 78.2943 26.5M67 -4C53.8 1.2 53.5 11.8333 55 16.5M68.5 0.5C68.5 6.1 63.8333 11.1667 61.5 13M74 11.5C67.2 15.5 66.5 21.1667 67 23.5M82.5 -1C95.2997 26.6 82.5 68.5 68.5 87M215.5 -7C195.5 10 173.667 15.6667 165.5 11.5M187.5 31C187.5 26.5 177 21.5 167.5 16.5C160.333 19 139.5 18.6 113.5 -3C134.7 17.8 142 36 143 42.5M159 21.5C170.2 24.7 176.333 32.5 178 36M160.5 26.5C159.3 32.1 168 37.8333 172.5 40M158 36C158 42.8 167.667 47.5 172.5 49M100.5 -4C123.7 16.4 127.833 42.5 127 53M107 7.5C104.6 14.7 107.333 33.1667 109 41.5M13.5 -3C19.5043 9.49544 23.2921 20.8168 25.3835 31M0 36C2.63815 39.4141 3.95678 47.2031 4.4756 56.5M0 16.5C3.6 25.7 18.4223 30 25.3835 31M25.3835 31C28.4088 45.7307 27.8841 58.0797 25.3835 68.1556M4.4756 56.5C5.29408 71.1664 4.12207 89.5853 3 100.5C10.9755 96.0505 21.0909 85.4522 25.3835 68.1556M4.4756 56.5C6.49512 64.9 19.2557 67.7704 25.3835 68.1556M160.5 -6C176 9 163.5 25 124 -6H160.5Z" stroke="white" stroke-width="5"/>
<path d="M618.352 274.287C626.242 281.818 644.142 315.195 649.671 327M618.352 274.287C618.801 268.044 617.952 265.135 618.352 257.701M618.352 274.287C605.441 268.549 592.649 250.976 587.867 242.907C582.936 229.907 575.912 222.885 571.28 222.287C566.259 216.907 558.727 200.321 555.589 192.701C569.934 192.701 591.004 155.942 614.764 156.839M649.671 327C614.255 263.345 471.756 257.701 442.617 319.114M649.671 327C625.703 307.936 574.818 292.281 539.45 292.831M618.352 257.701C689.632 212.873 674.39 91.8385 605.351 86.9075C611.899 90.2387 615.849 105.216 618.07 125.908M618.352 257.701C618.508 254.792 618.662 251.799 618.81 248.735M576.66 183.287C576.659 191.804 577.257 195.839 580.246 197.632C590.109 203.549 591.603 216.609 591.902 224.08C591.902 231.97 609.841 243.804 618.81 248.735M618.81 248.735C619.048 243.818 619.273 238.719 619.477 233.494M619.477 233.494C619.665 233.221 619.853 232.951 620.042 232.684M619.477 233.494C619.732 226.933 619.955 220.172 620.128 213.321M650.63 208.839C645.479 209.574 632.257 215.382 620.042 232.684M620.042 232.684C616.538 216.835 605.202 207.195 599.971 204.356M620.128 213.321C636.639 192.163 647.342 188.367 650.63 189.114M620.128 213.321C611.179 189.114 599.971 179.402 594.143 178.356M620.128 213.321C620.301 206.501 620.424 199.591 620.483 192.701M620.483 192.701C634.043 175.666 642.56 172.976 648.837 168.942M620.483 192.701C620.516 188.803 620.529 184.911 620.518 181.045M620.518 181.045C614.84 168.494 606.845 164.16 603.558 163.563M620.518 181.045C620.475 166.089 620.08 151.516 619.167 138.459M650.63 138.459C643.009 140.701 626.317 148.411 620.518 161.321L614.764 156.839M619.167 138.459C625.076 116.942 633.744 110.367 639.422 110.218M619.167 138.459C618.861 134.092 618.498 129.894 618.07 125.908M618.07 125.908C612.524 111.563 603.558 107.08 595.937 105.735M449.789 317.321C456.886 311.764 466.266 306.991 477.136 303.172M585.177 298.942C557.92 299.301 546.922 312.54 544.83 319.114M613.869 307.908C590.916 307.908 588.315 314.632 582.936 319.114M539.45 292.831C525.822 299.871 520.024 309.402 518.828 313.287M539.45 292.831C526.829 293.027 514.366 294.282 502.689 296.461M502.689 296.461C491.482 305.218 489.626 309.069 486.999 311.045M502.689 296.461C493.595 298.159 484.978 300.417 477.136 303.172M477.136 303.172C470.68 305.676 467.871 313.648 467.273 317.321M543.933 76.1489C547.52 59.6523 567.693 51.0454 576.66 41.1834C588.495 41.1834 597.73 57.3213 592.35 73.4592C599.908 78.9005 601.095 119.443 568.255 154.597M546.175 173.425C549.511 171.146 552.646 168.801 555.589 166.404M546.175 173.425C542.711 177.658 535.033 187.592 524.207 198.615M546.175 173.425C546.175 160.156 564.554 144.735 573.52 132.183M466.825 237.528C444.948 246.852 434.099 265.321 431.409 273.39C426.029 289.887 402.268 283.252 422.891 255.011C431.409 246.942 442.466 237.528 446.202 230.804M466.825 237.528C482.276 232.378 496.346 223.219 508.28 213.321M466.825 237.528C466.825 244.342 478.48 249.93 484.308 251.873M446.202 230.804C471.307 211.439 498.048 211.08 508.28 213.321M446.202 230.804C440.075 231.252 427.821 230.356 427.821 223.183C407.648 228.114 400.385 211.618 421.545 194.045M508.28 213.321C514.132 208.468 519.471 203.437 524.207 198.615M555.589 166.404C557.641 164.733 559.599 163.037 561.468 161.321M555.589 166.404C561.678 169.492 559.509 182.841 549.659 195.39M484.308 251.873C495.067 255.011 524.207 241.563 534.966 231.252C534.859 229.963 534.717 228.428 534.579 226.769M484.308 251.873C493.632 246.852 497.458 236.034 498.205 231.252C500.666 228.121 507.441 219.617 513.895 211.528M524.207 198.615C523.529 199.464 522.776 200.406 521.965 201.42M493.722 224.976C491.212 231.79 480.422 243.356 475.342 248.287M513.895 211.528C511.026 219.059 513.298 228.413 514.792 232.149M513.895 211.528C516.789 207.901 519.618 204.358 521.965 201.42M521.965 201.42C522.324 208.789 526.598 213.321 528.69 214.666M614.764 156.839C614.764 133.887 599.822 121.873 592.35 118.735M610.281 145.632C607.053 139.894 595.188 130.091 589.659 125.908M601.315 144.735C592.708 139.714 575.689 149.218 568.255 154.597M568.255 154.597C566.137 156.865 563.877 159.11 561.468 161.321M561.468 161.321C571.11 164.19 582.785 154.149 587.418 148.77M537.656 173.425C531.38 164.459 550.657 123.935 550.657 116.045C554.243 94.5282 530.931 98.1144 537.656 113.356C540.496 119.034 545.368 130.749 542.139 132.183C537.361 133.308 532.098 135.841 527.345 139.094M553.347 147.425C553.821 146.004 554.618 144.614 555.589 143.305M584.28 105.735C571.279 108.425 564.554 120.976 564.554 135.321C562.355 136.641 558.296 139.659 555.589 143.305M581.59 91.8385C569.754 96.142 561.468 112.256 555.589 120.976M576.66 81.0799C575.224 87.8937 561.468 94.9765 555.589 110.218M571.279 72.1144C547.519 81.0799 556.037 121.966 555.589 143.305M571.279 55.0799C571.279 61.5351 564.106 64.0454 560.519 64.4937C554.339 65.2662 546.622 86.011 548.864 98.5627M505.378 103.045C506.095 97.3075 501.493 92.5857 499.102 90.942C496.412 76.1489 499.251 64.3443 503.136 60.4592C505.647 60.4592 508.068 51.4937 508.964 47.011C524.655 25.9419 547.967 64.4937 543.933 97.2179M500.895 55.0799C494.798 60.8177 486.101 61.0569 482.515 60.4592C472.114 61.1764 470.709 78.3901 471.307 86.9074M468.617 82.8729C456.423 81.0798 448.593 90.7924 446.202 95.8729C442.257 102.687 434.695 105.586 431.408 106.183C425.67 106.9 430.511 128.896 433.649 139.804M438.132 140.7C423.428 139.266 417.062 142.045 416.166 155.494C416.166 160.873 409.59 163.712 406.303 164.459C398.681 168.045 411.234 181.045 425.58 184.631M446.202 176.563C422.173 190.549 406.303 213.321 449.34 223.183M517.931 51.9418C514.702 79.9143 525.252 104.54 530.931 113.356M513.895 51.9418C505.288 79.9144 516.885 104.54 523.759 113.356M525.103 55.0799C529.766 62.611 527.046 69.5742 525.103 72.1144C526.538 74.266 525.701 80.1832 525.103 82.8729M530.931 67.1832C538.822 86.9075 535.116 99.3098 532.276 103.045M482.515 81.0799C488.611 85.7419 489.239 92.8844 488.791 95.8729C486.639 98.0247 492.676 103.344 495.964 105.735M469.962 88.7004C467.81 96.5902 473.847 107.229 477.135 111.563M465.031 86.9075C465.389 95.1558 464.582 101.701 464.134 103.942C464.134 106.452 468.916 112.16 471.307 114.7M453.375 98.5627C453.016 107.887 462.191 115.896 466.824 118.735M529.587 135.321C527.793 107.349 495.964 91.8385 490.136 116.045M490.136 116.045C477.135 123.218 491.182 140.103 498.205 148.321C503.136 154.597 506.723 160.574 512.103 161.321M490.136 116.045C473.478 105.735 459.651 123.218 471.307 142.045C481.349 143.053 485.952 152.028 486.998 156.39C491.032 162.218 501.642 165.953 508.965 167.149M468.617 123.666C462.162 123.666 455.766 115.597 453.375 111.563C441.181 106.901 432.094 133.976 443.96 161.321M443.96 161.321C446.202 178.356 473.1 205.7 508.965 195.838M443.96 161.321C449.489 159.379 461.534 157.107 465.479 163.563C466.525 168.494 472.293 178.356 486.998 178.356C495.964 176.563 503.495 172.08 513.895 172.08M456.065 168.942C460.249 170.884 468.617 176.473 468.617 183.287C470.859 187.052 479.466 193.937 495.964 191.356C499.102 184.631 508.875 181.763 515.689 181.045C520.71 178.894 520.62 168.045 513.895 163.563C509.868 158.025 514.463 149.943 521.965 143.285M528.69 191.356C515.42 189.563 499.849 200.769 493.722 206.597C482.008 207.454 473.595 206.946 468.617 205.57M431.409 206.597C439.477 198.615 459.023 200.769 465.479 204.356C466.3 204.812 467.346 205.219 468.617 205.57M468.617 205.57C456.423 206.392 449.489 213.172 447.547 216.459M433.649 192.701C439.029 192.701 452.329 194.792 458.306 195.838M441.271 173.425C438.76 163.742 427.972 162.816 422.891 163.563M441.271 163.563C428.718 161.77 423.787 154.746 422.891 151.459M435.891 176.563C427.642 174.052 421.396 170.436 419.304 168.942M429.615 181.045C423.159 173.873 415.867 172.08 413.027 172.08M517.931 144.735C514.344 133.976 501.194 125.011 495.067 121.873M521.965 143.285C521.965 132.969 510.011 122.022 504.033 117.838M521.965 143.285C523.635 141.803 525.45 140.392 527.345 139.094M527.345 139.094C524.476 125.317 515.988 117.091 512.103 114.7M499.102 170.735C484.397 168.583 471.456 155.792 466.824 149.666C462.341 142.045 453.674 139.331 448.892 139.094M481.618 173.425C464.403 152.625 452.244 148.919 448.317 149.666M549.659 195.39C546.166 199.839 541.709 204.187 536.311 207.942C534.194 208.736 533.899 214.214 534.136 220.045M549.659 195.39C548.664 203.997 559.473 218.7 565.003 224.976C549.94 219.238 538.149 219.298 534.136 220.045M534.136 220.045C534.228 222.319 534.401 224.645 534.579 226.769M534.579 226.769C557.381 224.08 612.523 271.597 624.179 302.08" stroke="white" stroke-width="5"/>
</g>
<defs>
<clipPath id="clip0_467_2">
<rect width="673" height="313" fill="white"/>
</clipPath>
</defs>
</svg>
