<svg width="1209" height="942" viewBox="0 0 1209 942" fill="none" xmlns="http://www.w3.org/2000/svg">
<path d="M255.191 770.923V732.778H292.608V771.76C272.964 769.25 271.093 769.669 255.191 770.923Z" stroke="white" stroke-width="5"/>
<path d="M292.152 853.857C292.152 863.974 283.793 872.251 273.39 872.251C262.987 872.251 254.629 863.974 254.629 853.857C254.629 843.739 262.987 835.462 273.39 835.462C283.793 835.462 292.152 843.739 292.152 853.857Z" fill="white" stroke="white" stroke-width="5"/>
<path d="M232.84 928.677L265.511 871.905L261.177 869.411L228.51 926.177C217.003 919.075 207.326 909.303 200.35 897.73L257.329 864.597L254.816 860.275L197.896 893.373C192.117 882.36 188.7 869.919 188.316 856.714H253.056V851.714H188.316C188.747 836.885 193.004 823.018 200.135 811.055L254.707 846.635L257.438 842.446L202.822 806.838C209.546 796.938 218.319 788.535 228.533 782.236L261.191 837.589L265.497 835.048L232.864 779.738C244.131 773.676 256.931 770.084 270.54 769.691V833.9H275.54V769.691C289.138 770.084 301.927 773.67 313.187 779.723L279.629 835.021L283.903 837.615L317.52 782.22C328.598 789.047 337.983 798.348 344.9 809.349L289.693 842.395L292.261 846.686L347.434 813.659C353.667 825.012 357.363 837.948 357.764 851.714H293.546V856.714H357.764C357.38 869.912 353.966 882.347 348.192 893.356L292.249 860.284L289.704 864.588L345.739 897.715C338.773 909.276 329.112 919.041 317.625 926.143L286.872 869.466L282.477 871.851L313.295 928.647C302.009 934.735 289.181 938.343 275.54 938.737V873.077H270.54V938.737C256.921 938.343 244.113 934.747 232.84 928.677Z" stroke="white" stroke-width="5"/>
<path d="M273.672 871.265C272.405 871.265 271.339 870.832 270.472 869.965C269.605 869.098 269.172 868.032 269.172 866.765L272.172 856.765L265.172 864.265C264.439 864.732 263.539 864.965 262.472 864.965C261.605 864.965 260.839 864.798 260.172 864.465C259.505 864.065 259.005 863.498 258.672 862.765C258.339 861.965 258.172 861.265 258.172 860.665C258.172 859.865 258.372 859.132 258.772 858.465C259.239 857.732 259.872 857.165 260.672 856.765L270.672 854.265L260.672 851.765C259.872 851.365 259.239 850.832 258.772 850.165C258.372 849.432 258.172 848.665 258.172 847.865C258.172 846.465 258.572 845.398 259.372 844.665C260.239 843.932 261.272 843.565 262.472 843.565C263.539 843.565 264.439 843.798 265.172 844.265L272.172 851.765L269.172 841.765C269.172 840.498 269.605 839.432 270.472 838.565C271.339 837.698 272.405 837.265 273.672 837.265C274.939 837.265 276.005 837.698 276.872 838.565C277.739 839.432 278.172 840.498 278.172 841.765L275.172 851.765L282.172 844.265C282.905 843.798 283.805 843.565 284.872 843.565C285.739 843.565 286.505 843.765 287.172 844.165C287.839 844.498 288.339 845.032 288.672 845.765C289.005 846.565 289.172 847.265 289.172 847.865C289.172 848.665 288.939 849.432 288.472 850.165C288.072 850.832 287.472 851.365 286.672 851.765L276.672 854.265L286.672 856.765C287.472 857.165 288.072 857.732 288.472 858.465C288.939 859.132 289.172 859.865 289.172 860.665C289.172 862.065 288.739 863.132 287.872 863.865C287.072 864.598 286.072 864.965 284.872 864.965C283.805 864.965 282.905 864.732 282.172 864.265L275.172 856.765L278.172 866.765C278.172 868.032 277.739 869.098 276.872 869.965C276.005 870.832 274.939 871.265 273.672 871.265Z" fill="#F3C9CB"/>
<path d="M899.299 770.923V732.778H936.715V771.76C917.072 769.25 915.201 769.669 899.299 770.923Z" stroke="white" stroke-width="5"/>
<path d="M936.259 853.857C936.259 863.974 927.901 872.251 917.498 872.251C907.095 872.251 898.736 863.974 898.736 853.857C898.736 843.739 907.095 835.462 917.498 835.462C927.901 835.462 936.259 843.739 936.259 853.857Z" fill="white" stroke="white" stroke-width="5"/>
<path d="M876.948 928.677L909.618 871.905L905.285 869.411L872.617 926.177C861.111 919.075 851.434 909.303 844.457 897.73L901.437 864.597L898.923 860.275L842.003 893.373C836.225 882.36 832.807 869.919 832.423 856.714H897.163V851.714H832.423C832.854 836.885 837.111 823.018 844.243 811.055L898.814 846.635L901.545 842.446L846.929 806.838C853.654 796.938 862.427 788.535 872.64 782.236L905.298 837.589L909.605 835.048L876.972 779.738C888.238 773.676 901.038 770.084 914.647 769.691V833.9H919.647V769.691C933.245 770.084 946.035 773.67 957.294 779.723L923.736 835.021L928.01 837.615L961.628 782.22C972.706 789.047 982.091 798.348 989.007 809.349L933.8 842.395L936.368 846.686L991.542 813.659C997.774 825.012 1001.47 837.948 1001.87 851.714H937.653V856.714H1001.87C1001.49 869.912 998.073 882.347 992.3 893.356L936.356 860.284L933.812 864.588L989.847 897.715C982.88 909.276 973.22 919.041 961.732 926.143L930.979 869.466L926.585 871.851L957.402 928.647C946.116 934.735 933.288 938.343 919.647 938.737V873.077H914.647V938.737C901.028 938.343 888.22 934.747 876.948 928.677Z" stroke="white" stroke-width="5"/>
<path d="M917.779 871.265C916.513 871.265 915.446 870.832 914.579 869.965C913.713 869.098 913.279 868.032 913.279 866.765L916.279 856.765L909.279 864.265C908.546 864.732 907.646 864.965 906.579 864.965C905.713 864.965 904.946 864.798 904.279 864.465C903.613 864.065 903.113 863.498 902.779 862.765C902.446 861.965 902.279 861.265 902.279 860.665C902.279 859.865 902.479 859.132 902.879 858.465C903.346 857.732 903.979 857.165 904.779 856.765L914.779 854.265L904.779 851.765C903.979 851.365 903.346 850.832 902.879 850.165C902.479 849.432 902.279 848.665 902.279 847.865C902.279 846.465 902.679 845.398 903.479 844.665C904.346 843.932 905.379 843.565 906.579 843.565C907.646 843.565 908.546 843.798 909.279 844.265L916.279 851.765L913.279 841.765C913.279 840.498 913.713 839.432 914.579 838.565C915.446 837.698 916.513 837.265 917.779 837.265C919.046 837.265 920.113 837.698 920.979 838.565C921.846 839.432 922.279 840.498 922.279 841.765L919.279 851.765L926.279 844.265C927.013 843.798 927.913 843.565 928.979 843.565C929.846 843.565 930.613 843.765 931.279 844.165C931.946 844.498 932.446 845.032 932.779 845.765C933.113 846.565 933.279 847.265 933.279 847.865C933.279 848.665 933.046 849.432 932.579 850.165C932.179 850.832 931.579 851.365 930.779 851.765L920.779 854.265L930.779 856.765C931.579 857.165 932.179 857.732 932.579 858.465C933.046 859.132 933.279 859.865 933.279 860.665C933.279 862.065 932.846 863.132 931.979 863.865C931.179 864.598 930.179 864.965 928.979 864.965C927.913 864.965 927.013 864.732 926.279 864.265L919.279 856.765L922.279 866.765C922.279 868.032 921.846 869.098 920.979 869.965C920.113 870.832 919.046 871.265 917.779 871.265Z" fill="#F3C9CB"/>
<path d="M265.4 342.599V632M340.186 492.598V633.5M426.981 342.599V632.5M517.052 477.806V632.5M610.397 342.599V634M723.941 320.377V634M792.722 495.767V632.593M940.13 538.301V632.593M883.338 297.661V632.593" stroke="white" stroke-width="5"/>
<path d="M1097.46 485.395C1102.38 490.334 1112.08 502.111 1111.59 509.698V516.812C1097.46 511.477 1095.01 495.353 1097.46 485.395Z" stroke="white" stroke-width="5"/>
<path d="M1134.91 563.048C1126.56 570.636 1128.16 575.496 1128.16 579.053C1130.82 579.053 1136.88 578.342 1139.82 575.496C1139.82 584.38 1134.12 592.163 1125.7 594.744M1134.91 563.048C1126.52 566.802 1111.95 579.409 1120.79 599.8M1134.91 563.048C1142.77 561.625 1152.11 568.383 1149.04 572.532C1165 572.532 1169.92 584.388 1158.87 590.908C1168.69 597.454 1156 606.084 1149.65 608.692M1119.56 595.651C1121.72 595.651 1123.78 595.332 1125.7 594.744M1125.7 594.744C1133.07 592.675 1148.3 589.96 1150.26 595.651C1152.85 598.148 1146.18 600.44 1136.76 600.869M1120.79 599.8C1126.24 600.813 1131.87 601.092 1136.76 600.869M1120.79 599.8C1123.66 610.47 1134.91 617.583 1149.65 608.692M1136.76 600.869C1139.21 607.127 1146.38 608.692 1149.65 608.692" stroke="white" stroke-width="5"/>
<path d="M1129.04 498.584C1123.36 510.794 1127.5 515.466 1129.21 519.414C1132.19 518.207 1138.63 514.67 1140.55 510.174C1144.84 520.036 1142.22 531.262 1134.04 537.946M1129.04 498.584C1121.47 506.556 1111.25 527.159 1130.98 545.786M1129.04 498.584C1137.16 493.438 1150.86 496.706 1149.43 502.705C1167.29 495.465 1178.52 506.396 1169.3 518.646C1183.45 521.458 1173.42 536.794 1167.58 542.565M1127.61 541.737C1130.03 540.756 1132.18 539.469 1134.04 537.946M1134.04 537.946C1141.29 532.308 1157.02 522.387 1161.96 527.813C1166.06 529.412 1159.7 534.983 1149.37 539.73M1130.98 545.786C1137.58 544.436 1144.01 542.194 1149.37 539.73M1130.98 545.786C1139.34 556.33 1155.37 559.122 1167.58 542.565M1149.37 539.73C1155.14 545.565 1163.91 544.052 1167.58 542.565" stroke="white" stroke-width="5"/>
<path d="M1038.64 542.556C1048.73 551.738 1054.65 549.498 1059.08 549.225C1058.87 546.114 1057.52 539.085 1053.75 535.857C1064.81 535.176 1074.93 541.247 1078.8 550.893M1038.64 542.556C1043.96 552.078 1060.77 568.147 1085.47 556.249M1038.64 542.556C1036.26 533.471 1043.95 522.038 1049.35 525.31C1048.11 506.646 1062.49 499.99 1071.46 512.41C1078.85 500.423 1090.57 514.6 1094.3 521.818M1080.4 558.003C1080.23 555.473 1079.68 553.09 1078.8 550.893M1078.8 550.893C1075.65 542.437 1071.1 524.84 1078.03 522.106C1080.93 518.889 1084.3 526.515 1085.57 537.495M1085.47 556.249C1086.31 549.792 1086.22 543.192 1085.57 537.495M1085.47 556.249C1098.53 552.078 1106.51 538.372 1094.3 521.818M1085.57 537.495C1093.16 534.147 1094.56 525.649 1094.3 521.818" stroke="white" stroke-width="5"/>
<path d="M1140.45 433.231C1153.71 422.798 1155.18 407.149 1153.95 397.664C1149.04 401.814 1137.99 418.411 1140.45 433.231Z" stroke="white" stroke-width="5"/>
<path d="M1141.11 464.607C1160.54 452.837 1165.17 432.248 1165.16 419.433C1157.91 424.172 1140.37 444.497 1141.11 464.607Z" stroke="white" stroke-width="5"/>
<path d="M1102.8 567.41C1115.44 569.704 1125.07 562.948 1129.83 557.68C1124.99 556.968 1109.97 558.88 1102.8 567.41Z" stroke="white" stroke-width="5"/>
<path d="M1067.58 466.143C1076.85 470.176 1080.4 467.256 1083.4 466.045C1082.49 463.936 1079.81 459.378 1076.39 458.011C1083.89 454.986 1092.41 456.855 1097.48 462.647M1067.58 466.143C1073.63 471.513 1089.26 478.766 1103.43 464.818M1067.58 466.143C1063.68 460.396 1066.18 450.699 1070.73 451.718C1065.25 439.07 1073.56 431.138 1082.86 437.673C1085.01 427.661 1096.64 434.779 1101.02 438.918M1100.35 467.204C1099.61 465.489 1098.63 463.967 1097.48 462.647M1097.48 462.647C1093.2 457.513 1085.68 446.371 1089.81 442.876C1091.03 439.975 1095.25 444.482 1098.85 451.799M1103.43 464.818C1102.41 460.15 1100.71 455.596 1098.85 451.799M1103.43 464.818C1111.44 458.912 1113.58 447.571 1101.02 438.918M1098.85 451.799C1103.28 447.725 1102.14 441.514 1101.02 438.918" stroke="white" stroke-width="5"/>
<path d="M1089.12 408.884C1099.93 413.588 1104.07 410.182 1107.57 408.769C1106.51 406.31 1103.38 400.993 1099.4 399.399C1108.14 395.87 1118.08 398.049 1123.99 404.806M1089.12 408.884C1096.17 415.147 1114.41 423.607 1130.93 407.338M1089.12 408.884C1084.57 402.181 1087.48 390.869 1092.79 392.058C1086.4 377.305 1096.1 368.052 1106.94 375.676C1109.45 363.997 1123.02 372.299 1128.12 377.127M1127.34 410.122C1126.48 408.121 1125.34 406.345 1123.99 404.806M1123.99 404.806C1119.01 398.818 1110.24 385.821 1115.05 381.744C1116.47 378.361 1121.4 383.618 1125.59 392.153M1130.93 407.338C1129.75 401.893 1127.77 396.582 1125.59 392.153M1130.93 407.338C1140.28 400.45 1142.77 387.221 1128.12 377.127M1125.59 392.153C1130.77 387.4 1129.44 380.156 1128.12 377.127" stroke="white" stroke-width="5"/>
<path d="M1163.24 442.42C1157.46 452.416 1160.63 456.691 1161.79 460.178C1164.42 459.362 1170.17 456.808 1172.15 453.116C1175.05 461.824 1171.96 471.2 1164.48 476.311M1163.24 442.42C1156.17 448.671 1145.89 465.493 1161.27 482.771M1163.24 442.42C1170.55 438.616 1181.97 442.379 1180.29 447.387C1196.06 442.496 1204.79 452.61 1196 462.387C1207.84 465.794 1198.11 478.142 1192.69 482.641M1158.71 479.081C1160.85 478.417 1162.78 477.475 1164.48 476.311M1164.48 476.311C1171.08 472.025 1185.24 464.697 1189.04 469.672C1192.41 471.328 1186.57 475.619 1177.4 478.926M1161.27 482.771C1166.99 482.092 1172.65 480.641 1177.4 478.926M1161.27 482.771C1167.59 492.351 1181.03 495.874 1192.69 482.641M1177.4 478.926C1181.87 484.308 1189.46 483.645 1192.69 482.641" stroke="white" stroke-width="5"/>
<path d="M1097.43 634.5C1085.12 608.818 1090.46 588.248 1097.43 574.903M1128.78 413.669C1139.88 423.413 1144.76 461.19 1132.85 484.209M1098.08 467.611C1112.81 478.993 1117.17 498.04 1117.5 506.142M1117.5 506.142C1113.26 522.6 1116.17 552.691 1107.9 560.677C1104.73 563.741 1100.75 568.536 1097.43 574.903M1117.5 506.142C1118.62 501.831 1120.22 498.456 1122.64 496.657C1126.9 493.491 1130.27 489.196 1132.85 484.209M1157.02 474.132C1150.64 483.142 1138.25 484.604 1132.85 484.209M1080.88 551.785C1082.85 562.218 1092.73 571.544 1097.43 574.903M1128.16 540.523C1123.25 542.419 1114.65 552.378 1110.97 557.12" stroke="white" stroke-width="5"/>
<path d="M111.535 483.43C106.623 488.37 96.9213 500.146 97.4125 507.734V514.847C111.535 509.512 113.991 493.389 111.535 483.43Z" stroke="white" stroke-width="5"/>
<path d="M74.0869 561.083C82.4378 568.671 80.8413 573.532 80.8413 577.088C78.1805 577.088 72.122 576.377 69.1746 573.532C69.1746 582.415 74.8776 590.198 83.2974 592.78M74.0869 561.083C82.4771 564.838 97.0479 577.444 88.2097 597.835M74.0869 561.083C66.2233 559.661 56.889 566.418 59.9592 570.568C43.997 570.568 39.0816 582.423 50.1319 588.944C40.3095 595.49 53.001 604.12 59.3451 606.727M89.4378 593.686C87.2736 593.686 85.2151 593.368 83.2974 592.78M83.2974 592.78C75.929 590.711 60.7009 587.995 58.736 593.686C56.1487 596.184 62.8214 598.476 72.2399 598.905M88.2097 597.835C82.7539 598.848 77.1272 599.127 72.2399 598.905M88.2097 597.835C85.3426 608.505 74.0869 615.619 59.3451 606.727M72.2399 598.905C69.7877 605.163 62.6216 606.727 59.3451 606.727" stroke="white" stroke-width="5"/>
<path d="M79.9537 496.619C85.6353 508.829 81.5021 513.501 79.785 517.449C76.8076 516.242 70.3715 512.705 68.4471 508.21C64.1582 518.071 66.7825 529.297 74.958 535.982M79.9537 496.619C87.5298 504.592 97.7486 525.194 78.0141 543.822M79.9537 496.619C71.8411 491.473 58.1336 494.741 59.5658 500.74C41.7042 493.5 30.4802 504.432 39.6976 516.682C25.5461 519.493 35.5816 534.829 41.4219 540.601M81.3916 539.773C78.9698 538.791 76.8199 537.504 74.958 535.982M74.958 535.982C67.7116 530.343 51.9822 520.422 47.0362 525.848C42.9352 527.447 49.2954 533.018 59.6276 537.766M78.0141 543.822C71.4202 542.471 64.9891 540.229 59.6276 537.766M78.0141 543.822C69.6546 554.366 53.6253 557.157 41.4219 540.601M59.6276 537.766C53.8624 543.6 45.0883 542.087 41.4219 540.601" stroke="white" stroke-width="5"/>
<path d="M170.362 540.591C160.273 549.773 154.347 547.534 149.92 547.261C150.126 544.15 151.48 537.121 155.249 533.893C144.192 533.211 134.065 539.282 130.201 548.929M170.362 540.591C165.041 550.113 148.224 566.183 123.529 554.284M170.362 540.591C172.741 531.506 165.052 520.074 159.65 523.345C160.885 504.682 146.51 498.025 137.54 510.445C130.152 498.458 118.43 512.636 114.694 519.853M128.598 556.039C128.765 553.508 129.321 551.126 130.201 548.929M130.201 548.929C133.346 540.472 137.903 522.875 130.972 520.141C128.064 516.925 124.695 524.551 123.433 535.53M123.529 554.284C122.69 547.828 122.778 541.227 123.433 535.53M123.529 554.284C110.471 550.113 102.488 536.407 114.694 519.853M123.433 535.53C115.834 532.183 114.441 523.684 114.694 519.853" stroke="white" stroke-width="5"/>
<path d="M68.5519 431.266C55.2887 420.833 53.8151 405.184 55.0431 395.7C59.9554 399.849 71.0081 416.447 68.5519 431.266Z" stroke="white" stroke-width="5"/>
<path d="M67.8908 462.643C48.4603 450.872 43.826 430.284 43.8397 417.468C51.085 422.207 68.6274 442.533 67.8908 462.643Z" stroke="white" stroke-width="5"/>
<path d="M106.199 565.446C93.562 567.74 83.9301 560.984 79.1663 555.715C84.0088 555.003 99.0276 556.916 106.199 565.446Z" stroke="white" stroke-width="5"/>
<path d="M141.418 464.178C132.151 468.212 128.599 465.291 125.599 464.08C126.513 461.972 129.192 457.413 132.604 456.047C125.111 453.021 116.589 454.89 111.52 460.683M141.418 464.178C135.371 469.548 119.736 476.801 105.57 462.853M141.418 464.178C145.317 458.432 142.822 448.734 138.268 449.754C143.747 437.105 135.435 429.173 126.142 435.709C123.992 425.696 112.356 432.814 107.979 436.953M108.648 465.24C109.391 463.525 110.366 462.002 111.52 460.683M111.52 460.683C115.795 455.549 123.313 444.407 119.188 440.912C117.969 438.011 113.745 442.518 110.15 449.835M105.57 462.853C106.589 458.185 108.285 453.632 110.15 449.835M105.57 462.853C97.5542 456.948 95.4183 445.606 107.979 436.953M110.15 449.835C105.714 445.761 106.854 439.549 107.979 436.953" stroke="white" stroke-width="5"/>
<path d="M119.879 406.919C109.07 411.624 104.927 408.217 101.427 406.805C102.493 404.345 105.619 399.028 109.598 397.434C100.858 393.905 90.9171 396.085 85.0055 402.842M119.879 406.919C112.825 413.183 94.5878 421.643 78.0644 405.374M119.879 406.919C124.427 400.216 121.516 388.904 116.204 390.094C122.596 375.34 112.9 366.088 102.06 373.711C99.5527 362.032 85.9802 370.335 80.8745 375.163M81.6551 408.157C82.5217 406.157 83.6591 404.38 85.0055 402.842M85.0055 402.842C89.9917 396.853 98.761 383.856 93.949 379.78C92.5276 376.396 87.6005 381.653 83.4072 390.188M78.0644 405.374C79.2529 399.929 81.2313 394.617 83.4072 390.188M78.0644 405.374C68.7147 398.485 66.2233 385.256 80.8745 375.163M83.4072 390.188C78.2322 385.436 79.5625 378.191 80.8745 375.163" stroke="white" stroke-width="5"/>
<path d="M45.7585 440.455C51.5346 450.452 48.3716 454.727 47.2115 458.213C44.5824 457.398 38.8283 454.844 36.8443 451.152C33.9464 459.859 37.0426 469.235 44.5198 474.346M45.7585 440.455C52.8238 446.706 63.1086 463.528 47.7243 480.807M45.7585 440.455C38.4528 436.651 27.0256 440.415 28.7056 445.423C12.9341 440.531 4.21012 450.645 13.0015 460.423C1.16119 463.829 10.8861 476.177 16.304 480.677M50.2912 477.116C48.1529 476.453 46.2227 475.51 44.5198 474.346M44.5198 474.346C37.9143 470.06 23.7537 462.732 19.956 467.708C16.5849 469.363 22.4303 473.654 31.5964 476.961M47.7243 480.807C42.0033 480.127 36.3528 478.677 31.5964 476.961M47.7243 480.807C41.4109 490.387 27.9693 493.91 16.304 480.677M31.5964 476.961C27.1321 482.343 19.5413 481.681 16.304 480.677" stroke="white" stroke-width="5"/>
<path d="M111.573 633.159C123.877 607.476 118.537 586.284 111.573 572.939M80.2184 411.704C69.1152 421.449 64.2355 459.225 76.1459 482.244M110.922 465.647C96.1852 477.028 91.829 496.076 91.4931 504.177M91.4931 504.177C95.7351 520.636 92.8234 550.727 101.096 558.712C104.269 561.776 108.25 566.571 111.573 572.939M91.4931 504.177C90.3821 499.867 88.7805 496.491 86.3588 494.693C82.0948 491.526 78.7263 487.232 76.1459 482.244M51.9746 472.167C58.3606 481.177 70.7496 482.64 76.1459 482.244M128.115 549.821C126.15 560.253 116.268 569.58 111.573 572.939M80.8343 538.558C85.7466 540.455 94.3431 550.413 98.0273 555.156" stroke="white" stroke-width="5"/>
<path d="M185.781 632.593V110.06H211.301V632.593H185.781Z" fill="white" stroke="white" stroke-width="5"/>
<path d="M997.293 632.593V110.06H1022.81V632.593H997.293Z" fill="white" stroke="white" stroke-width="5"/>
<path d="M1043.43 3L1070.79 66.2661V119.827C1068.75 146.893 1029.2 145.298 1016.18 145.911C1001.5 145.911 995.095 136.908 989.639 131.051C984.559 125.599 973.635 119.827 961.791 119.827C949.719 119.827 944.78 124.177 939.768 128.592L939.621 128.722C934.481 133.249 929.193 137.8 916.435 137.8C910.754 137.8 906.729 137.094 903.585 136C899.896 134.715 897.423 132.896 894.916 131.051C890.037 127.462 885.034 123.781 870.702 123.781C855.985 123.781 848.698 128.359 841.793 132.697C835.575 136.604 829.667 140.316 818.922 140.316C808.215 140.316 802.563 135.749 796.596 130.927C789.925 125.536 782.86 119.827 767.897 119.827C753.324 119.827 745.343 124.577 737.588 129.193C730.258 133.556 723.129 137.8 710.825 137.8C707.286 137.8 704.176 137.526 701.376 137.055C694.116 135.835 688.934 133.289 683.767 130.751C676.66 127.259 669.58 123.781 657.154 123.781C644.774 123.781 637.98 127.233 631.135 130.712C624.187 134.243 617.186 137.8 604.24 137.8C591.144 137.8 580.795 134.16 570.645 130.59C560.874 127.153 551.287 123.781 539.608 123.781C527.749 123.781 522.359 127.258 516.947 130.749C511.493 134.267 506.017 137.8 493.875 137.8C489.651 137.8 485.784 137.372 482.158 136.667C475.234 135.319 469.186 132.957 463.204 130.621C454.377 127.173 445.691 123.781 434.535 123.781C423.423 123.781 418.936 127.147 414.358 130.58C410.761 133.278 407.108 136.018 400.14 137.198C397.881 137.581 395.272 137.8 392.203 137.8C379.622 137.8 375.169 134.878 370.824 132.026C366.684 129.309 362.641 126.656 351.761 126.656C340.26 126.656 334.791 129.621 329.495 132.492C324.522 135.187 319.702 137.8 310.186 137.8C305.509 137.8 301.753 137.006 298.469 135.797C294.917 134.488 291.917 132.693 288.902 130.89C282.99 127.352 277.021 123.781 266.72 123.781C257.044 123.781 251.531 126.528 245.347 129.608C238.487 133.026 230.802 136.855 215.695 137.8C211.5 138.062 207.766 137.762 204.356 137.095C189.089 134.109 180.326 123.781 165.804 123.781C149.93 123.781 112.134 153.257 110.244 120.186V66.2661L165.049 3H247.066H329.084H426.598H493.875H545.467H597.058H670.005H785.283H867.301H968.972H1043.43Z" fill="white"/>
<path d="M1070.79 66.2661L1043.43 3H968.972H867.301H785.283H670.005H597.058H545.467H493.875H426.598H329.084H247.066H165.049L110.244 66.2661M1070.79 66.2661V119.827C1068.75 146.893 1029.2 145.298 1016.18 145.911M1070.79 66.2661H1012.82H903.585H818.922H701.376H604.24H539.608H482.158H400.14H298.469H204.357H110.244M110.244 66.2661V120.186C112.134 153.257 149.93 123.781 165.804 123.781C180.326 123.781 189.089 134.109 204.357 137.095C207.766 137.762 211.5 138.062 215.695 137.8C230.802 136.855 238.487 133.026 245.347 129.608C251.531 126.528 257.044 123.781 266.72 123.781C277.021 123.781 282.99 127.352 288.902 130.89C291.917 132.693 294.917 134.488 298.469 135.797C301.753 137.006 305.509 137.8 310.186 137.8C319.702 137.8 324.522 135.187 329.495 132.492C334.791 129.621 340.26 126.656 351.761 126.656C362.641 126.656 366.683 129.309 370.824 132.026C375.169 134.878 379.622 137.8 392.203 137.8C395.272 137.8 397.881 137.581 400.14 137.198C407.108 136.018 410.761 133.278 414.358 130.58C418.936 127.147 423.423 123.781 434.535 123.781C445.691 123.781 454.377 127.173 463.204 130.621C469.186 132.957 475.234 135.319 482.158 136.667C485.784 137.372 489.651 137.8 493.875 137.8C506.017 137.8 511.493 134.267 516.947 130.749C522.359 127.258 527.749 123.781 539.608 123.781C551.287 123.781 560.874 127.153 570.644 130.59C580.795 134.16 591.144 137.8 604.24 137.8C617.186 137.8 624.187 134.243 631.135 130.712C637.98 127.233 644.774 123.781 657.154 123.781C669.58 123.781 676.66 127.259 683.767 130.751C688.934 133.289 694.116 135.835 701.376 137.055C704.176 137.526 707.287 137.8 710.825 137.8C723.129 137.8 730.258 133.556 737.588 129.193C745.343 124.577 753.324 119.827 767.897 119.827C782.86 119.827 789.925 125.536 796.596 130.927C802.563 135.749 808.215 140.316 818.922 140.316C829.666 140.316 835.575 136.604 841.793 132.697C848.698 128.359 855.985 123.781 870.702 123.781C885.034 123.781 890.037 127.462 894.916 131.051C897.423 132.896 899.896 134.715 903.585 136C906.729 137.094 910.754 137.8 916.435 137.8C929.193 137.8 934.481 133.249 939.621 128.722C944.684 124.263 949.6 119.827 961.791 119.827C973.635 119.827 984.559 125.599 989.639 131.051C995.095 136.908 1001.5 145.911 1016.18 145.911M1016.18 145.911C1035.19 145.911 1023.62 144.686 1016.18 145.911Z" stroke="white" stroke-width="5"/>
<path d="M40.3203 732.778V633.084H148.398H211.467H271.67H332.691H393.303H454.325H513.708H568.996H601.35H633.703H698.001H763.528H829.464H892.943H958.469H1013.14H1164.7V732.778H1063.72H1034.23H1013.14H958.469H892.943H829.464H763.528H698.001H671.791H633.703H601.35H568.996H513.708H477.669H454.325H410.914H393.303H332.691H271.67H211.467H165.599H148.398H127.102H97.6152H40.3203Z" stroke="white" stroke-width="5"/>
<path d="M911.25 125.5C909.35 125.5 907.75 124.85 906.45 123.55C905.15 122.25 904.5 120.65 904.5 118.75L909 103.75L898.5 115C897.4 115.7 896.05 116.05 894.45 116.05C893.15 116.05 892 115.8 891 115.3C890 114.7 889.25 113.85 888.75 112.75C888.25 111.55 888 110.5 888 109.6C888 108.4 888.3 107.3 888.9 106.3C889.6 105.2 890.55 104.35 891.75 103.75L906.75 100L891.75 96.25C890.55 95.65 889.6 94.85 888.9 93.85C888.3 92.75 888 91.6 888 90.4C888 88.3 888.6 86.7 889.8 85.6C891.1 84.5 892.65 83.95 894.45 83.95C896.05 83.95 897.4 84.3 898.5 85L909 96.25L904.5 81.25C904.5 79.35 905.15 77.75 906.45 76.45C907.75 75.15 909.35 74.5 911.25 74.5C913.15 74.5 914.75 75.15 916.05 76.45C917.35 77.75 918 79.35 918 81.25L913.5 96.25L924 85C925.1 84.3 926.45 83.95 928.05 83.95C929.35 83.95 930.5 84.25 931.5 84.85C932.5 85.35 933.25 86.15 933.75 87.25C934.25 88.45 934.5 89.5 934.5 90.4C934.5 91.6 934.15 92.75 933.45 93.85C932.85 94.85 931.95 95.65 930.75 96.25L915.75 100L930.75 103.75C931.95 104.35 932.85 105.2 933.45 106.3C934.15 107.3 934.5 108.4 934.5 109.6C934.5 111.7 933.85 113.3 932.55 114.4C931.35 115.5 929.85 116.05 928.05 116.05C926.45 116.05 925.1 115.7 924 115L913.5 103.75L918 118.75C918 120.65 917.35 122.25 916.05 123.55C914.75 124.85 913.15 125.5 911.25 125.5Z" fill="#F3C9CB"/>
<path d="M1013.25 126.5C1011.35 126.5 1009.75 125.85 1008.45 124.55C1007.15 123.25 1006.5 121.65 1006.5 119.75L1011 104.75L1000.5 116C999.4 116.7 998.05 117.05 996.45 117.05C995.15 117.05 994 116.8 993 116.3C992 115.7 991.25 114.85 990.75 113.75C990.25 112.55 990 111.5 990 110.6C990 109.4 990.3 108.3 990.9 107.3C991.6 106.2 992.55 105.35 993.75 104.75L1008.75 101L993.75 97.25C992.55 96.65 991.6 95.85 990.9 94.85C990.3 93.75 990 92.6 990 91.4C990 89.3 990.6 87.7 991.8 86.6C993.1 85.5 994.65 84.95 996.45 84.95C998.05 84.95 999.4 85.3 1000.5 86L1011 97.25L1006.5 82.25C1006.5 80.35 1007.15 78.75 1008.45 77.45C1009.75 76.15 1011.35 75.5 1013.25 75.5C1015.15 75.5 1016.75 76.15 1018.05 77.45C1019.35 78.75 1020 80.35 1020 82.25L1015.5 97.25L1026 86C1027.1 85.3 1028.45 84.95 1030.05 84.95C1031.35 84.95 1032.5 85.25 1033.5 85.85C1034.5 86.35 1035.25 87.15 1035.75 88.25C1036.25 89.45 1036.5 90.5 1036.5 91.4C1036.5 92.6 1036.15 93.75 1035.45 94.85C1034.85 95.85 1033.95 96.65 1032.75 97.25L1017.75 101L1032.75 104.75C1033.95 105.35 1034.85 106.2 1035.45 107.3C1036.15 108.3 1036.5 109.4 1036.5 110.6C1036.5 112.7 1035.85 114.3 1034.55 115.4C1033.35 116.5 1031.85 117.05 1030.05 117.05C1028.45 117.05 1027.1 116.7 1026 116L1015.5 104.75L1020 119.75C1020 121.65 1019.35 123.25 1018.05 124.55C1016.75 125.85 1015.15 126.5 1013.25 126.5Z" fill="#F3C9CB"/>
<path d="M815.25 125.5C813.35 125.5 811.75 124.85 810.45 123.55C809.15 122.25 808.5 120.65 808.5 118.75L813 103.75L802.5 115C801.4 115.7 800.05 116.05 798.45 116.05C797.15 116.05 796 115.8 795 115.3C794 114.7 793.25 113.85 792.75 112.75C792.25 111.55 792 110.5 792 109.6C792 108.4 792.3 107.3 792.9 106.3C793.6 105.2 794.55 104.35 795.75 103.75L810.75 100L795.75 96.25C794.55 95.65 793.6 94.85 792.9 93.85C792.3 92.75 792 91.6 792 90.4C792 88.3 792.6 86.7 793.8 85.6C795.1 84.5 796.65 83.95 798.45 83.95C800.05 83.95 801.4 84.3 802.5 85L813 96.25L808.5 81.25C808.5 79.35 809.15 77.75 810.45 76.45C811.75 75.15 813.35 74.5 815.25 74.5C817.15 74.5 818.75 75.15 820.05 76.45C821.35 77.75 822 79.35 822 81.25L817.5 96.25L828 85C829.1 84.3 830.45 83.95 832.05 83.95C833.35 83.95 834.5 84.25 835.5 84.85C836.5 85.35 837.25 86.15 837.75 87.25C838.25 88.45 838.5 89.5 838.5 90.4C838.5 91.6 838.15 92.75 837.45 93.85C836.85 94.85 835.95 95.65 834.75 96.25L819.75 100L834.75 103.75C835.95 104.35 836.85 105.2 837.45 106.3C838.15 107.3 838.5 108.4 838.5 109.6C838.5 111.7 837.85 113.3 836.55 114.4C835.35 115.5 833.85 116.05 832.05 116.05C830.45 116.05 829.1 115.7 828 115L817.5 103.75L822 118.75C822 120.65 821.35 122.25 820.05 123.55C818.75 124.85 817.15 125.5 815.25 125.5Z" fill="#F3C9CB"/>
<path d="M704.25 125.5C702.35 125.5 700.75 124.85 699.45 123.55C698.15 122.25 697.5 120.65 697.5 118.75L702 103.75L691.5 115C690.4 115.7 689.05 116.05 687.45 116.05C686.15 116.05 685 115.8 684 115.3C683 114.7 682.25 113.85 681.75 112.75C681.25 111.55 681 110.5 681 109.6C681 108.4 681.3 107.3 681.9 106.3C682.6 105.2 683.55 104.35 684.75 103.75L699.75 100L684.75 96.25C683.55 95.65 682.6 94.85 681.9 93.85C681.3 92.75 681 91.6 681 90.4C681 88.3 681.6 86.7 682.8 85.6C684.1 84.5 685.65 83.95 687.45 83.95C689.05 83.95 690.4 84.3 691.5 85L702 96.25L697.5 81.25C697.5 79.35 698.15 77.75 699.45 76.45C700.75 75.15 702.35 74.5 704.25 74.5C706.15 74.5 707.75 75.15 709.05 76.45C710.35 77.75 711 79.35 711 81.25L706.5 96.25L717 85C718.1 84.3 719.45 83.95 721.05 83.95C722.35 83.95 723.5 84.25 724.5 84.85C725.5 85.35 726.25 86.15 726.75 87.25C727.25 88.45 727.5 89.5 727.5 90.4C727.5 91.6 727.15 92.75 726.45 93.85C725.85 94.85 724.95 95.65 723.75 96.25L708.75 100L723.75 103.75C724.95 104.35 725.85 105.2 726.45 106.3C727.15 107.3 727.5 108.4 727.5 109.6C727.5 111.7 726.85 113.3 725.55 114.4C724.35 115.5 722.85 116.05 721.05 116.05C719.45 116.05 718.1 115.7 717 115L706.5 103.75L711 118.75C711 120.65 710.35 122.25 709.05 123.55C707.75 124.85 706.15 125.5 704.25 125.5Z" fill="#F3C9CB"/>
<path d="M596.561 125.5C598.461 125.5 600.061 124.85 601.361 123.55C602.661 122.25 603.311 120.65 603.311 118.75L598.811 103.75L609.311 115C610.411 115.7 611.761 116.05 613.361 116.05C614.661 116.05 615.811 115.8 616.811 115.3C617.811 114.7 618.561 113.85 619.061 112.75C619.561 111.55 619.811 110.5 619.811 109.6C619.811 108.4 619.511 107.3 618.911 106.3C618.211 105.2 617.261 104.35 616.061 103.75L601.061 100L616.061 96.25C617.261 95.65 618.211 94.85 618.911 93.85C619.511 92.75 619.811 91.6 619.811 90.4C619.811 88.3 619.211 86.7 618.011 85.6C616.711 84.5 615.161 83.95 613.361 83.95C611.761 83.95 610.411 84.3 609.311 85L598.811 96.25L603.311 81.25C603.311 79.35 602.661 77.75 601.361 76.45C600.061 75.15 598.461 74.5 596.561 74.5C594.661 74.5 593.061 75.15 591.761 76.45C590.461 77.75 589.811 79.35 589.811 81.25L594.311 96.25L583.811 85C582.711 84.3 581.361 83.95 579.761 83.95C578.461 83.95 577.311 84.25 576.311 84.85C575.311 85.35 574.561 86.15 574.061 87.25C573.561 88.45 573.311 89.5 573.311 90.4C573.311 91.6 573.661 92.75 574.361 93.85C574.961 94.85 575.861 95.65 577.061 96.25L592.061 100L577.061 103.75C575.861 104.35 574.961 105.2 574.361 106.3C573.661 107.3 573.311 108.4 573.311 109.6C573.311 111.7 573.961 113.3 575.261 114.4C576.461 115.5 577.961 116.05 579.761 116.05C581.361 116.05 582.711 115.7 583.811 115L594.311 103.75L589.811 118.75C589.811 120.65 590.461 122.25 591.761 123.55C593.061 124.85 594.661 125.5 596.561 125.5Z" fill="#F3C9CB"/>
<path d="M488.75 125.5C490.65 125.5 492.25 124.85 493.55 123.55C494.85 122.25 495.5 120.65 495.5 118.75L491 103.75L501.5 115C502.6 115.7 503.95 116.05 505.55 116.05C506.85 116.05 508 115.8 509 115.3C510 114.7 510.75 113.85 511.25 112.75C511.75 111.55 512 110.5 512 109.6C512 108.4 511.7 107.3 511.1 106.3C510.4 105.2 509.45 104.35 508.25 103.75L493.25 100L508.25 96.25C509.45 95.65 510.4 94.85 511.1 93.85C511.7 92.75 512 91.6 512 90.4C512 88.3 511.4 86.7 510.2 85.6C508.9 84.5 507.35 83.95 505.55 83.95C503.95 83.95 502.6 84.3 501.5 85L491 96.25L495.5 81.25C495.5 79.35 494.85 77.75 493.55 76.45C492.25 75.15 490.65 74.5 488.75 74.5C486.85 74.5 485.25 75.15 483.95 76.45C482.65 77.75 482 79.35 482 81.25L486.5 96.25L476 85C474.9 84.3 473.55 83.95 471.95 83.95C470.65 83.95 469.5 84.25 468.5 84.85C467.5 85.35 466.75 86.15 466.25 87.25C465.75 88.45 465.5 89.5 465.5 90.4C465.5 91.6 465.85 92.75 466.55 93.85C467.15 94.85 468.05 95.65 469.25 96.25L484.25 100L469.25 103.75C468.05 104.35 467.15 105.2 466.55 106.3C465.85 107.3 465.5 108.4 465.5 109.6C465.5 111.7 466.15 113.3 467.45 114.4C468.65 115.5 470.15 116.05 471.95 116.05C473.55 116.05 474.9 115.7 476 115L486.5 103.75L482 118.75C482 120.65 482.65 122.25 483.95 123.55C485.25 124.85 486.85 125.5 488.75 125.5Z" fill="#F3C9CB"/>
<path d="M391.75 125.5C393.65 125.5 395.25 124.85 396.55 123.55C397.85 122.25 398.5 120.65 398.5 118.75L394 103.75L404.5 115C405.6 115.7 406.95 116.05 408.55 116.05C409.85 116.05 411 115.8 412 115.3C413 114.7 413.75 113.85 414.25 112.75C414.75 111.55 415 110.5 415 109.6C415 108.4 414.7 107.3 414.1 106.3C413.4 105.2 412.45 104.35 411.25 103.75L396.25 100L411.25 96.25C412.45 95.65 413.4 94.85 414.1 93.85C414.7 92.75 415 91.6 415 90.4C415 88.3 414.4 86.7 413.2 85.6C411.9 84.5 410.35 83.95 408.55 83.95C406.95 83.95 405.6 84.3 404.5 85L394 96.25L398.5 81.25C398.5 79.35 397.85 77.75 396.55 76.45C395.25 75.15 393.65 74.5 391.75 74.5C389.85 74.5 388.25 75.15 386.95 76.45C385.65 77.75 385 79.35 385 81.25L389.5 96.25L379 85C377.9 84.3 376.55 83.95 374.95 83.95C373.65 83.95 372.5 84.25 371.5 84.85C370.5 85.35 369.75 86.15 369.25 87.25C368.75 88.45 368.5 89.5 368.5 90.4C368.5 91.6 368.85 92.75 369.55 93.85C370.15 94.85 371.05 95.65 372.25 96.25L387.25 100L372.25 103.75C371.05 104.35 370.15 105.2 369.55 106.3C368.85 107.3 368.5 108.4 368.5 109.6C368.5 111.7 369.15 113.3 370.45 114.4C371.65 115.5 373.15 116.05 374.95 116.05C376.55 116.05 377.9 115.7 379 115L389.5 103.75L385 118.75C385 120.65 385.65 122.25 386.95 123.55C388.25 124.85 389.85 125.5 391.75 125.5Z" fill="#F3C9CB"/>
<path d="M305.75 125.5C307.65 125.5 309.25 124.85 310.55 123.55C311.85 122.25 312.5 120.65 312.5 118.75L308 103.75L318.5 115C319.6 115.7 320.95 116.05 322.55 116.05C323.85 116.05 325 115.8 326 115.3C327 114.7 327.75 113.85 328.25 112.75C328.75 111.55 329 110.5 329 109.6C329 108.4 328.7 107.3 328.1 106.3C327.4 105.2 326.45 104.35 325.25 103.75L310.25 100L325.25 96.25C326.45 95.65 327.4 94.85 328.1 93.85C328.7 92.75 329 91.6 329 90.4C329 88.3 328.4 86.7 327.2 85.6C325.9 84.5 324.35 83.95 322.55 83.95C320.95 83.95 319.6 84.3 318.5 85L308 96.25L312.5 81.25C312.5 79.35 311.85 77.75 310.55 76.45C309.25 75.15 307.65 74.5 305.75 74.5C303.85 74.5 302.25 75.15 300.95 76.45C299.65 77.75 299 79.35 299 81.25L303.5 96.25L293 85C291.9 84.3 290.55 83.95 288.95 83.95C287.65 83.95 286.5 84.25 285.5 84.85C284.5 85.35 283.75 86.15 283.25 87.25C282.75 88.45 282.5 89.5 282.5 90.4C282.5 91.6 282.85 92.75 283.55 93.85C284.15 94.85 285.05 95.65 286.25 96.25L301.25 100L286.25 103.75C285.05 104.35 284.15 105.2 283.55 106.3C282.85 107.3 282.5 108.4 282.5 109.6C282.5 111.7 283.15 113.3 284.45 114.4C285.65 115.5 287.15 116.05 288.95 116.05C290.55 116.05 291.9 115.7 293 115L303.5 103.75L299 118.75C299 120.65 299.65 122.25 300.95 123.55C302.25 124.85 303.85 125.5 305.75 125.5Z" fill="#F3C9CB"/>
<path d="M214.75 125.5C216.65 125.5 218.25 124.85 219.55 123.55C220.85 122.25 221.5 120.65 221.5 118.75L217 103.75L227.5 115C228.6 115.7 229.95 116.05 231.55 116.05C232.85 116.05 234 115.8 235 115.3C236 114.7 236.75 113.85 237.25 112.75C237.75 111.55 238 110.5 238 109.6C238 108.4 237.7 107.3 237.1 106.3C236.4 105.2 235.45 104.35 234.25 103.75L219.25 100L234.25 96.25C235.45 95.65 236.4 94.85 237.1 93.85C237.7 92.75 238 91.6 238 90.4C238 88.3 237.4 86.7 236.2 85.6C234.9 84.5 233.35 83.95 231.55 83.95C229.95 83.95 228.6 84.3 227.5 85L217 96.25L221.5 81.25C221.5 79.35 220.85 77.75 219.55 76.45C218.25 75.15 216.65 74.5 214.75 74.5C212.85 74.5 211.25 75.15 209.95 76.45C208.65 77.75 208 79.35 208 81.25L212.5 96.25L202 85C200.9 84.3 199.55 83.95 197.95 83.95C196.65 83.95 195.5 84.25 194.5 84.85C193.5 85.35 192.75 86.15 192.25 87.25C191.75 88.45 191.5 89.5 191.5 90.4C191.5 91.6 191.85 92.75 192.55 93.85C193.15 94.85 194.05 95.65 195.25 96.25L210.25 100L195.25 103.75C194.05 104.35 193.15 105.2 192.55 106.3C191.85 107.3 191.5 108.4 191.5 109.6C191.5 111.7 192.15 113.3 193.45 114.4C194.65 115.5 196.15 116.05 197.95 116.05C199.55 116.05 200.9 115.7 202 115L212.5 103.75L208 118.75C208 120.65 208.65 122.25 209.95 123.55C211.25 124.85 212.85 125.5 214.75 125.5Z" fill="#F3C9CB"/>
<path d="M139.561 125.5C141.461 125.5 143.061 124.85 144.361 123.55C145.661 122.25 146.311 120.65 146.311 118.75L141.811 103.75L152.311 115C153.411 115.7 154.761 116.05 156.361 116.05C157.661 116.05 158.811 115.8 159.811 115.3C160.811 114.7 161.561 113.85 162.061 112.75C162.561 111.55 162.811 110.5 162.811 109.6C162.811 108.4 162.511 107.3 161.911 106.3C161.211 105.2 160.261 104.35 159.061 103.75L144.061 100L159.061 96.25C160.261 95.65 161.211 94.85 161.911 93.85C162.511 92.75 162.811 91.6 162.811 90.4C162.811 88.3 162.211 86.7 161.011 85.6C159.711 84.5 158.161 83.95 156.361 83.95C154.761 83.95 153.411 84.3 152.311 85L141.811 96.25L146.311 81.25C146.311 79.35 145.661 77.75 144.361 76.45C143.061 75.15 141.461 74.5 139.561 74.5C137.661 74.5 136.061 75.15 134.761 76.45C133.461 77.75 132.811 79.35 132.811 81.25L137.311 96.25L126.811 85C125.711 84.3 124.361 83.95 122.761 83.95C121.461 83.95 120.311 84.25 119.311 84.85C118.311 85.35 117.561 86.15 117.061 87.25C116.561 88.45 116.311 89.5 116.311 90.4C116.311 91.6 116.661 92.75 117.361 93.85C117.961 94.85 118.861 95.65 120.061 96.25L135.061 100L120.061 103.75C118.861 104.35 117.961 105.2 117.361 106.3C116.661 107.3 116.311 108.4 116.311 109.6C116.311 111.7 116.961 113.3 118.261 114.4C119.461 115.5 120.961 116.05 122.761 116.05C124.361 116.05 125.711 115.7 126.811 115L137.311 103.75L132.811 118.75C132.811 120.65 133.461 122.25 134.761 123.55C136.061 124.85 137.661 125.5 139.561 125.5Z" fill="#F3C9CB"/>
</svg>
