<svg width="382" height="737" viewBox="0 0 382 737" fill="none" xmlns="http://www.w3.org/2000/svg">
<rect width="366.307" height="736.73" rx="40" fill="white"/>
<rect x="13.7188" y="15.0914" width="340.24" height="433.532" rx="40" fill="#F3C9CB"/>
<path d="M309.69 520.06V524.415L310.73 524.805V525H308.26V524.805L309.3 524.415V518.89L308.39 518.695V518.5H310.145C310.57 518.5 310.912 518.591 311.172 518.773C311.432 518.955 311.653 519.211 311.835 519.54L313.603 522.673L315.02 519.54C315.185 519.193 315.393 518.933 315.644 518.76C315.895 518.587 316.251 518.5 316.71 518.5H318.01V518.695L317.23 518.89V524.61L318.01 524.805V525H314.37V524.805L315.15 524.61V520.06L312.862 525.13H312.55L309.69 520.06ZM321.579 525.195C320.808 525.195 320.214 525.03 319.798 524.701C319.382 524.372 319.174 523.951 319.174 523.44C319.174 523.102 319.248 522.768 319.395 522.439C319.456 522.283 319.534 522.14 319.629 522.01C319.985 521.923 320.37 521.845 320.786 521.776C321.722 521.62 322.55 521.525 323.269 521.49V521.1C323.269 520.138 323.152 519.475 322.918 519.111C322.684 518.747 322.325 518.565 321.839 518.565C321.657 518.565 321.501 518.587 321.371 518.63L321.189 518.695V520.645L321.02 520.684C320.882 520.701 320.765 520.71 320.669 520.71C320.375 520.71 320.136 520.623 319.954 520.45C319.781 520.268 319.694 520.03 319.694 519.735C319.694 519.336 319.894 518.998 320.292 518.721C320.7 518.444 321.302 518.305 322.099 518.305C322.775 518.305 323.356 518.426 323.841 518.669C324.335 518.903 324.708 519.232 324.959 519.657C325.219 520.073 325.349 520.554 325.349 521.1V524.61L326.129 524.805V525H324.959C324.439 525 324.036 524.84 323.75 524.519C323.629 524.389 323.534 524.224 323.464 524.025C323.343 524.242 323.2 524.437 323.035 524.61C322.645 525 322.16 525.195 321.579 525.195ZM322.099 524.74C322.42 524.74 322.71 524.567 322.97 524.22C323.066 524.09 323.165 523.917 323.269 523.7V521.815C322.871 521.815 322.489 521.837 322.125 521.88C321.857 521.915 321.675 521.936 321.579 521.945C321.536 522.04 321.493 522.17 321.449 522.335C321.363 522.664 321.319 522.989 321.319 523.31C321.319 523.795 321.393 524.155 321.54 524.389C321.688 524.623 321.874 524.74 322.099 524.74ZM326.786 527.405L327.566 527.21V518.89L326.786 518.695V518.5H327.956C328.467 518.5 328.87 518.665 329.165 518.994C329.277 519.124 329.373 519.284 329.451 519.475C329.563 519.25 329.706 519.055 329.88 518.89C330.27 518.5 330.755 518.305 331.336 518.305C331.847 518.305 332.302 518.439 332.701 518.708C333.099 518.968 333.416 519.358 333.65 519.878C333.884 520.389 334.001 521.013 334.001 521.75C334.001 522.859 333.741 523.713 333.221 524.311C332.709 524.9 332.016 525.195 331.141 525.195C330.725 525.195 330.361 525.108 330.049 524.935C329.919 524.874 329.784 524.788 329.646 524.675V527.21L330.426 527.405V527.6H326.786V527.405ZM330.621 524.805C330.993 524.805 331.279 524.588 331.479 524.155C331.687 523.722 331.791 522.92 331.791 521.75C331.791 520.632 331.695 519.856 331.505 519.423C331.323 518.981 331.093 518.76 330.816 518.76C330.486 518.76 330.192 518.933 329.932 519.28C329.819 519.427 329.724 519.601 329.646 519.8V524.285C329.767 524.406 329.862 524.493 329.932 524.545C330.166 524.718 330.395 524.805 330.621 524.805ZM336.276 524.805L337.056 524.61V518.825H336.081C336.081 519.302 335.938 519.783 335.652 520.268C335.539 520.45 335.4 520.619 335.236 520.775H334.846V518.5H341.346V520.775H340.956C340.791 520.628 340.648 520.459 340.527 520.268C340.249 519.8 340.111 519.319 340.111 518.825H339.136V524.61L339.916 524.805V525H336.276V524.805ZM344.469 525.195C343.698 525.195 343.104 525.03 342.688 524.701C342.272 524.372 342.064 523.951 342.064 523.44C342.064 523.102 342.138 522.768 342.285 522.439C342.346 522.283 342.424 522.14 342.519 522.01C342.874 521.923 343.26 521.845 343.676 521.776C344.612 521.62 345.44 521.525 346.159 521.49V521.1C346.159 520.138 346.042 519.475 345.808 519.111C345.574 518.747 345.214 518.565 344.729 518.565C344.547 518.565 344.391 518.587 344.261 518.63L344.079 518.695V520.645L343.91 520.684C343.771 520.701 343.654 520.71 343.559 520.71C343.264 520.71 343.026 520.623 342.844 520.45C342.671 520.268 342.584 520.03 342.584 519.735C342.584 519.336 342.783 518.998 343.182 518.721C343.589 518.444 344.192 518.305 344.989 518.305C345.665 518.305 346.246 518.426 346.731 518.669C347.225 518.903 347.598 519.232 347.849 519.657C348.109 520.073 348.239 520.554 348.239 521.1V524.61L349.019 524.805V525H347.849C347.329 525 346.926 524.84 346.64 524.519C346.519 524.389 346.423 524.224 346.354 524.025C346.233 524.242 346.09 524.437 345.925 524.61C345.535 525 345.05 525.195 344.469 525.195ZM344.989 524.74C345.31 524.74 345.6 524.567 345.86 524.22C345.955 524.09 346.055 523.917 346.159 523.7V521.815C345.76 521.815 345.379 521.837 345.015 521.88C344.746 521.915 344.564 521.936 344.469 521.945C344.426 522.04 344.382 522.17 344.339 522.335C344.252 522.664 344.209 522.989 344.209 523.31C344.209 523.795 344.283 524.155 344.43 524.389C344.577 524.623 344.764 524.74 344.989 524.74Z" fill="#F3C9CB"/>
<path d="M70 495L303 495" stroke="#3A3A3A"/>
<path d="M112.683 251.073C101.183 256.347 84.6887 278.061 83.0625 287.677" stroke="white" stroke-width="5"/>
<path d="M120.001 93.8007C130.037 78.1664 122.44 55.9558 110.243 46.3395C106.41 41.9967 104.319 35.7926 102.925 30.5191C94.5624 17.4906 85.8494 25.8658 91.774 39.2048C93.1685 50.3721 91.774 61.8497 91.774 70.8456C92.82 81.7027 102.925 89.768 110.243 93.8007M91.774 27.4171C100.695 38.3363 100.835 52.8538 99.7895 58.7476C97.5593 67.1852 105.829 78.8075 110.243 83.5639M131.501 124.511C131.501 92.87 152.177 76.8428 163.91 70.8456C169.485 58.7476 178.894 58.1272 178.546 65.8823C176.873 69.8529 179.01 70.8456 180.288 70.8456C183.355 70.8456 183.192 75.1884 182.727 77.3599M137.425 124.511C143.001 115.825 155.546 110.965 163.91 109.621C179.939 105.899 186.212 88.5272 182.727 77.3599M182.727 77.3599C196.666 80.7721 200.5 89.768 202.939 95.3517C209.072 95.3517 208.515 101.556 202.939 104.037C206.006 111.482 201.429 112.93 198.757 112.723C202.103 116.445 196.202 119.031 192.833 119.858M181.333 69.2946C201.545 65.8823 205.03 74.2578 210.606 86.0456C218.969 92.87 216.878 99.6945 211.651 104.037C214.718 113.468 208.05 117.48 204.333 118.307C205.448 119.299 202.242 120.788 200.5 121.409M200.5 121.409C219.666 130.094 218.969 138.47 206.772 135.058C206.772 139.773 201.429 138.677 198.757 137.539C198.757 140.765 192.833 139.09 191.439 135.988M200.5 121.409C193.182 120.375 176.733 118.927 169.485 121.409C164.955 123.684 152.549 127.923 139.168 126.682M146.137 129.164C170.531 124.511 187.258 123.58 191.439 132.886C183.192 138.78 161.191 147.218 139.168 133.817M92.12 150.878C95.2563 148.707 99.7865 146.535 104.317 154.601C106.524 153.256 111.147 152.615 111.983 160.805C115.468 176.418 119.162 210.871 106.059 223.776C74.3476 255.727 47.8632 216.331 47.8632 208.886C47.2824 203.716 43.8912 192.507 34.9727 189.033C31.2556 186.655 29.7424 177.866 34.9727 162.666C36.5793 162.666 38.2809 163.122 39.8483 163.752M92.12 150.878C88.2867 157.392 81.5495 162.045 77.4839 162.666C73.3022 163.41 70.6305 172.489 69.8174 176.935M92.12 150.878C85.5202 149.08 79.493 147.837 75.0446 148.817M69.8174 176.935C64.9003 157.524 67.9837 150.371 75.0446 148.817M69.8174 176.935C69.1223 181.402 77.1943 196.581 81.3172 203.613M39.8483 163.752C42.0862 164.653 43.3331 166.469 45.0755 166.698C54.4844 167.939 67.0296 175.694 69.8174 184.69C71.4901 194.617 68.1912 201.441 66.3326 203.613C63.8236 206.342 70.1659 217.158 73.6507 222.225M39.8483 163.752C42.9846 154.601 48.6764 152.533 50.9996 154.601C52.1147 149.389 56.5753 149.947 58.6661 150.878C60.6176 143.433 70.3982 146.402 75.0446 148.817M72.2568 198.029C85.8474 208.886 82.1303 225.224 78.8778 229.67M47.8632 184.69C52.3238 189.902 52.9743 195.754 52.742 198.029M47.8632 179.107C53.1602 183.574 54.949 191.515 55.1813 194.927M49.6057 176.935C56.854 184.132 57.5045 190.481 56.9237 192.756M155.891 270.617C160.422 276.821 155.891 290.159 147.18 293.882C141.952 295.536 131.01 299.652 129.059 302.878C119.65 312.184 104.456 316.527 89.6807 302.878C88.577 302.223 87.5318 301.544 86.5444 300.843M155.891 270.617C152.892 274.386 147.967 275.207 143.695 274.934M155.891 270.617C162.164 265.653 170.179 246.111 155.891 246.111C153.801 242.698 151.431 237.735 133.589 238.976M126.619 243.939C137.422 233.702 135.331 226.878 110.938 242.698C73.7151 250.758 61.3401 282.947 86.5444 300.843M126.619 243.939C120.486 243.939 118.024 258.415 117.559 265.653C117.559 274.091 96.8825 292.628 86.5444 300.843M126.619 243.939C138.886 240.217 143.114 246.111 143.695 249.523C158.749 251.012 149.967 267.084 143.695 274.934M86.5444 300.843C98.7411 291.801 125.992 273.719 137.422 273.719C138.957 274.25 141.216 274.776 143.695 274.934M136.028 256.037C130.453 263.73 119.766 273.098 115.12 276.821M117.559 276.821C125.225 270.617 133.589 262.138 140.21 259.76" stroke="white" stroke-width="5"/>
<path d="M82.7134 297.603C48.9034 353.129 54.4881 386.942 56.2384 408.656M89.3362 302.566C59.3672 329.864 57.3924 390.354 61.1095 408.656M71.9106 234.632C82.3649 237.734 88.1204 375.514 85.3326 448.722M84.1073 235.873C80.7619 239.099 91.7047 384.476 90.3107 448.688M110.593 94.1095C118.121 105.277 131.154 150.256 131.154 189.342M120.002 94.1095C120.002 100.934 134.638 154.599 136.729 195.546M131.502 124.509C131.502 129.969 121.048 142.501 117.563 148.395C113.682 154.959 101.533 200.509 109.548 242.387M139.169 133.816C132.896 131.024 103.275 165.146 114.775 239.595M110.942 311.872L111.639 334.207M116.169 311.872V330.795" stroke="white" stroke-width="5"/>
<path d="M122.165 447.584C128.298 433.935 141.376 410.414 145.093 407.416M145.093 407.416C151.017 402.636 157.173 376.809 159.38 361.506M145.093 407.416C141.19 415.109 141.198 444.559 141.082 447.454M159.38 361.506C159.38 336.689 186.91 327.073 222.803 331.416M159.38 361.506C172.971 352.82 186.213 343.514 195.274 339.481C197.783 336.503 210.723 337 216.879 337.62C223.849 337.62 231.864 331.623 235 328.624C214.649 316.216 193.996 319.111 186.213 322.11C170.322 311.935 152.178 320.352 145.093 325.832M145.093 294.812C145.093 318.594 143.559 368.95 137.426 380.118C131.967 386.942 126.275 400.591 124.881 408.346C121.977 414.137 108.226 439.662 101.257 447.727C112.06 411.123 123.603 375.258 134.29 363.987M107.457 380.118C115.588 368.33 131.223 336.441 128.714 303.187C127.425 328.624 112.452 338.137 107.457 339.481C99.4422 343.204 90.6143 363.574 90.0335 372.983M41.2464 401.832C28.8174 378.36 9.74402 323.164 32.8829 290.159C47.2867 308.874 81.0952 385.526 79.3528 447.877C77.0296 437.64 60.2038 408.284 41.2464 401.832ZM41.2464 401.832C53.4433 418.893 53.4538 438.621 50.4337 442.757M24.1712 216.02C24.9843 227.704 29.8862 260.379 42.989 297.604C54.4191 275.021 45.893 256.967 40.2012 250.763C38.1103 244.249 30.4438 225.016 24.1712 216.02ZM24.1712 216.02C52.607 237.362 67.8471 262.137 71.9127 271.857M132.199 232.151C147.532 209.506 160.078 210.747 164.956 213.306M154.153 243.938C155.965 235.766 159.02 229.434 162.553 224.706M177.153 213.848C175.294 211.78 168.511 209.692 156.244 217.881M177.153 213.848C172.611 215.079 167.173 218.521 162.553 224.706M177.153 213.848C191.324 222.017 219.04 238.417 208.168 237.424C200.501 236.724 190.744 233.702 162.553 224.706M99.4424 246.42C101.533 237.838 101.185 212.608 98.0485 195.547C95.9576 188.722 88.6396 179.106 95.9576 160.804C95.9576 176.935 102.695 189.136 106.412 192.135C118.609 204.543 123.139 219.122 122.093 236.183M117.563 165.457C121.745 183.325 126.624 185 128.366 186.551C138.472 195.547 145.093 207.851 146.487 215.09" stroke="white" stroke-width="5"/>
<path d="M275.271 164.397C283.963 160.411 296.431 143.998 297.66 136.729" stroke="white" stroke-width="5"/>
<path d="M269.738 283.274C262.152 295.091 267.895 311.88 277.114 319.148C280.011 322.431 281.592 327.12 282.645 331.106C288.966 340.954 295.552 334.624 291.074 324.541C290.02 316.1 291.074 307.425 291.074 300.625C290.284 292.418 282.645 286.322 277.114 283.274M291.074 333.451C284.331 325.198 284.225 314.224 285.015 309.769C286.701 303.392 280.45 294.607 277.114 291.012M261.046 260.061C261.046 283.977 245.417 296.092 236.549 300.625C232.335 309.769 225.223 310.238 225.486 304.377C226.751 301.375 225.135 300.625 224.169 300.625C221.851 300.625 221.974 297.342 222.325 295.701M256.568 260.061C252.353 266.626 242.871 270.3 236.549 271.316C224.433 274.13 219.691 287.26 222.325 295.701M222.325 295.701C211.789 293.122 208.892 286.322 207.048 282.102C202.412 282.102 202.834 277.412 207.048 275.536C204.73 269.909 208.189 268.815 210.209 268.971C207.68 266.157 212.14 264.203 214.687 263.578M223.379 301.797C208.102 304.377 205.468 298.046 201.253 289.136C194.931 283.977 196.512 278.819 200.463 275.536C198.145 268.408 203.185 265.376 205.994 264.751C205.151 264 207.575 262.875 208.892 262.406M208.892 262.406C194.405 255.841 194.931 249.51 204.151 252.089C204.151 248.525 208.189 249.354 210.209 250.213C210.209 247.775 214.687 249.041 215.74 251.386M208.892 262.406C214.423 263.187 226.856 264.282 232.335 262.406C235.759 260.686 245.136 257.482 255.251 258.42M249.983 256.544C231.545 260.061 218.901 260.765 215.74 253.73C221.974 249.275 238.604 242.898 255.251 253.027M290.813 240.131C288.442 241.772 285.018 243.414 281.593 237.317C279.925 238.333 276.431 238.818 275.799 232.628C273.165 220.826 270.372 194.784 280.276 185.03C304.246 160.879 324.265 190.657 324.265 196.284C324.704 200.192 327.267 208.665 334.008 211.291C336.818 213.088 337.962 219.732 334.008 231.221C332.794 231.221 331.508 230.876 330.323 230.4M290.813 240.131C293.71 235.207 298.803 231.69 301.876 231.221C305.036 230.658 307.056 223.796 307.67 220.435M290.813 240.131C295.801 241.49 300.357 242.429 303.719 241.689M307.67 220.435C311.387 235.108 309.056 240.514 303.719 241.689M307.67 220.435C308.196 217.059 302.094 205.585 298.978 200.27M330.323 230.4C328.632 229.719 327.689 228.346 326.372 228.173C319.26 227.235 309.778 221.373 307.67 214.573C306.406 207.07 308.9 201.912 310.304 200.27C312.201 198.207 307.407 190.032 304.773 186.202M330.323 230.4C327.952 237.317 323.65 238.88 321.894 237.317C321.051 241.256 317.68 240.834 316.099 240.131C314.624 245.758 307.231 243.514 303.719 241.689M305.827 204.491C295.554 196.284 298.364 183.936 300.822 180.575M324.265 214.573C320.893 210.634 320.402 206.21 320.577 204.491M324.265 218.794C320.261 215.417 318.909 209.415 318.733 206.836M322.948 220.435C317.469 214.995 316.977 210.197 317.416 208.477M242.61 149.624C239.186 144.935 242.61 134.853 249.195 132.039C253.146 130.788 261.417 127.678 262.892 125.239C270.004 118.205 281.488 114.922 292.656 125.239C293.491 125.734 294.281 126.248 295.027 126.778M242.61 149.624C244.877 146.775 248.6 146.155 251.829 146.361M242.61 149.624C237.869 153.376 231.81 168.148 242.61 168.148C244.19 170.727 245.981 174.478 259.468 173.541M264.736 169.789C256.57 177.527 258.151 182.685 276.589 170.727C304.724 164.635 314.078 140.304 295.027 126.778M264.736 169.789C269.372 169.789 271.233 158.847 271.584 153.376C271.584 146.998 287.213 132.986 295.027 126.778M264.736 169.789C255.464 172.603 252.268 168.148 251.829 165.568C240.45 164.443 247.088 152.294 251.829 146.361M295.027 126.778C285.808 133.612 265.21 147.28 256.57 147.28C255.41 146.878 253.702 146.48 251.829 146.361M257.624 160.645C261.838 154.83 269.916 147.749 273.428 144.935M271.584 144.935C265.789 149.624 259.468 156.033 254.463 157.831" stroke="white" stroke-width="5"/>
<path d="M297.923 129.226C323.479 87.2555 319.258 61.6979 317.935 45.2848M292.917 125.475C315.57 104.841 317.063 59.1187 314.253 45.2848M306.089 176.824C298.187 174.479 293.836 70.3357 295.943 15M296.87 175.886C299.398 173.448 291.127 63.5617 292.181 15.0258M276.85 283.041C271.16 274.599 261.309 240.601 261.309 211.057M269.738 283.041C269.738 277.882 258.675 237.318 257.094 206.368M261.045 260.062C261.045 255.935 268.947 246.463 271.581 242.008C274.515 237.046 283.698 202.616 277.64 170.962M255.25 253.028C259.992 255.138 282.381 229.346 273.689 173.073M276.586 118.44L276.059 101.558M272.635 118.44V104.138" stroke="white" stroke-width="5"/>
<path d="M250.775 131.336C250.775 113.36 251.933 75.2969 256.569 66.8559C260.696 61.6975 264.998 51.3806 266.052 45.5189C268.247 41.142 278.641 21.8482 283.909 15.752C275.743 43.4199 267.018 70.5293 258.94 79.0485M279.222 66.8559C273.076 75.7659 261.258 99.8697 263.154 125.005C264.129 105.778 275.447 98.5878 279.222 97.5717C285.28 94.7582 291.953 79.361 292.392 72.2487M329.269 50.4428C338.663 68.1846 353.08 109.905 335.59 134.853C324.703 120.707 299.148 62.7678 300.465 15.6387C302.221 23.3763 314.939 45.5658 329.269 50.4428ZM329.269 50.4428C320.049 37.5468 320.041 22.6349 322.324 19.5086M342.175 190.892C341.561 182.06 337.855 157.363 327.951 129.226C319.312 146.295 325.756 159.942 330.059 164.631C331.639 169.555 337.434 184.092 342.175 190.892ZM342.175 190.892C320.682 174.76 309.162 156.034 306.089 148.687M260.52 178.7C248.93 195.816 239.448 194.878 235.76 192.944M243.926 169.79C242.556 175.967 240.247 180.753 237.577 184.327M226.541 192.534C227.946 194.097 233.074 195.676 242.345 189.485M226.541 192.534C229.974 191.603 234.084 189.002 237.577 184.327M226.541 192.534C215.829 186.359 194.88 173.963 203.098 174.714C208.893 175.243 216.268 177.527 237.577 184.327M285.28 167.914C283.7 174.401 283.963 193.471 286.334 206.367C287.914 211.526 293.446 218.794 287.914 232.628C287.914 220.436 282.822 211.213 280.012 208.947C270.793 199.568 267.369 188.547 268.159 175.651M271.583 229.111C268.422 215.606 264.735 214.339 263.418 213.167C255.779 206.367 250.774 197.067 249.721 191.596" stroke="white" stroke-width="5"/>
<path d="M19.2 505.2C19.2 503.627 19.5067 502.2 20.12 500.92C20.76 499.613 21.5333 498.48 22.44 497.52C23.3467 496.56 24.5333 495.427 26 494.12C27.36 492.92 28.4267 491.92 29.2 491.12C29.9733 490.293 30.6267 489.373 31.16 488.36C31.6933 487.32 31.96 486.2 31.96 485C31.96 483.24 31.5333 481.867 30.68 480.88C29.8267 479.893 28.72 479.4 27.36 479.4C26.5867 479.4 25.8 479.507 25 479.72L24.16 480V486.4L23.64 486.52C23.2133 486.573 22.8533 486.6 22.56 486.6C21.6533 486.6 20.92 486.333 20.36 485.8C19.8267 485.24 19.56 484.507 19.56 483.6C19.56 482.747 19.88 481.92 20.52 481.12C21.1867 480.32 22.16 479.667 23.44 479.16C24.7467 478.653 26.32 478.4 28.16 478.4C31.76 478.4 34.4267 479.12 36.16 480.56C37.8933 482 38.76 484.013 38.76 486.6C38.76 488.227 38.3333 489.627 37.48 490.8C36.6533 491.973 35.6267 492.947 34.4 493.72C33.2 494.493 31.5867 495.373 29.56 496.36C27.8533 497.187 26.4667 497.92 25.4 498.56C24.36 499.173 23.3867 499.92 22.48 500.8C21.6 501.68 20.9733 502.68 20.6 503.8H35.4C35.5867 502.36 36.04 501.16 36.76 500.2C37.0533 499.747 37.4 499.347 37.8 499H39V507H19.2V505.2ZM51.0078 507.6C49.1678 507.6 47.5945 507.347 46.2878 506.84C45.0078 506.333 44.0345 505.68 43.3678 504.88C42.7278 504.08 42.4078 503.253 42.4078 502.4C42.4078 501.493 42.6745 500.773 43.2078 500.24C43.7678 499.68 44.5011 499.4 45.4078 499.4C45.6211 499.4 45.8345 499.427 46.0478 499.48C46.2611 499.507 46.4078 499.52 46.4878 499.52L47.0078 499.6V506C47.0345 506 47.3145 506.107 47.8478 506.32C48.5411 506.507 49.3278 506.6 50.2078 506.6C51.8078 506.6 53.0745 505.947 54.0078 504.64C54.9411 503.307 55.4078 501.227 55.4078 498.4C55.4078 495.6 54.9278 493.573 53.9678 492.32C53.0078 491.04 51.6211 490.4 49.8078 490.4C49.1145 490.4 48.4611 490.52 47.8478 490.76C47.2345 491 46.5811 491.32 45.8878 491.72C45.3278 492.067 44.7678 492.493 44.2078 493L43.4078 492.4L45.0078 479H56.8078C56.9945 477.56 57.4478 476.36 58.1678 475.4C58.4611 474.947 58.8078 474.547 59.2078 474.2H60.4078V482H45.8878L44.8078 491.2C45.1811 490.933 45.7278 490.64 46.4478 490.32C47.9411 489.707 49.3278 489.4 50.6078 489.4C54.5011 489.4 57.4078 490.2 59.3278 491.8C61.2478 493.373 62.2078 495.573 62.2078 498.4C62.2078 501.28 61.2611 503.533 59.3678 505.16C57.4745 506.787 54.6878 507.6 51.0078 507.6Z" fill="#F3C9CB"/>
<path d="M307.2 505.2C307.2 503.627 307.507 502.2 308.12 500.92C308.76 499.613 309.533 498.48 310.44 497.52C311.347 496.56 312.533 495.427 314 494.12C315.36 492.92 316.427 491.92 317.2 491.12C317.973 490.293 318.627 489.373 319.16 488.36C319.693 487.32 319.96 486.2 319.96 485C319.96 483.24 319.533 481.867 318.68 480.88C317.827 479.893 316.72 479.4 315.36 479.4C314.587 479.4 313.8 479.507 313 479.72L312.16 480V486.4L311.64 486.52C311.213 486.573 310.853 486.6 310.56 486.6C309.653 486.6 308.92 486.333 308.36 485.8C307.827 485.24 307.56 484.507 307.56 483.6C307.56 482.747 307.88 481.92 308.52 481.12C309.187 480.32 310.16 479.667 311.44 479.16C312.747 478.653 314.32 478.4 316.16 478.4C319.76 478.4 322.427 479.12 324.16 480.56C325.893 482 326.76 484.013 326.76 486.6C326.76 488.227 326.333 489.627 325.48 490.8C324.653 491.973 323.627 492.947 322.4 493.72C321.2 494.493 319.587 495.373 317.56 496.36C315.853 497.187 314.467 497.92 313.4 498.56C312.36 499.173 311.387 499.92 310.48 500.8C309.6 501.68 308.973 502.68 308.6 503.8H323.4C323.587 502.36 324.04 501.16 324.76 500.2C325.053 499.747 325.4 499.347 325.8 499H327V507H307.2V505.2ZM339.008 507.6C337.168 507.6 335.594 507.347 334.288 506.84C333.008 506.333 332.034 505.68 331.368 504.88C330.728 504.08 330.408 503.253 330.408 502.4C330.408 501.493 330.674 500.773 331.208 500.24C331.768 499.68 332.501 499.4 333.408 499.4C333.621 499.4 333.834 499.427 334.048 499.48C334.261 499.507 334.408 499.52 334.488 499.52L335.008 499.6V506C335.034 506 335.314 506.107 335.848 506.32C336.541 506.507 337.328 506.6 338.208 506.6C339.808 506.6 341.074 505.947 342.008 504.64C342.941 503.307 343.408 501.227 343.408 498.4C343.408 495.6 342.928 493.573 341.968 492.32C341.008 491.04 339.621 490.4 337.808 490.4C337.114 490.4 336.461 490.52 335.848 490.76C335.234 491 334.581 491.32 333.888 491.72C333.328 492.067 332.768 492.493 332.208 493L331.408 492.4L333.008 479H344.808C344.994 477.56 345.448 476.36 346.168 475.4C346.461 474.947 346.808 474.547 347.208 474.2H348.408V482H333.888L332.808 491.2C333.181 490.933 333.728 490.64 334.448 490.32C335.941 489.707 337.328 489.4 338.608 489.4C342.501 489.4 345.408 490.2 347.328 491.8C349.248 493.373 350.208 495.573 350.208 498.4C350.208 501.28 349.261 503.533 347.368 505.16C345.474 506.787 342.688 507.6 339.008 507.6Z" fill="#F3C9CB"/>
<path d="M17.965 526.195C16.8903 526.195 16.0453 525.892 15.43 525.285C14.8233 524.67 14.52 523.825 14.52 522.75C14.52 521.675 14.8233 520.835 15.43 520.228C16.0453 519.613 16.8903 519.305 17.965 519.305C19.0397 519.305 19.8803 519.613 20.487 520.228C21.1023 520.835 21.41 521.675 21.41 522.75C21.41 523.825 21.1023 524.67 20.487 525.285C19.8803 525.892 19.0397 526.195 17.965 526.195ZM17.965 525.935C18.3117 525.935 18.602 525.692 18.836 525.207C19.0787 524.722 19.2 523.903 19.2 522.75C19.2 521.597 19.0787 520.778 18.836 520.293C18.602 519.808 18.3117 519.565 17.965 519.565C17.6183 519.565 17.3237 519.808 17.081 520.293C16.847 520.778 16.73 521.597 16.73 522.75C16.73 523.903 16.847 524.722 17.081 525.207C17.3237 525.692 17.6183 525.935 17.965 525.935ZM22.4546 525.805L23.2346 525.61V519.89L22.4546 519.695V519.5H26.0946V519.695L25.3146 519.89V522.425H25.7696C26.0209 522.425 26.2376 522.347 26.4196 522.191C26.6016 522.026 26.7316 521.823 26.8096 521.58L27.1346 520.41C27.3426 519.717 27.7326 519.37 28.3046 519.37C28.6946 519.37 28.9979 519.474 29.2146 519.682C29.4312 519.89 29.5396 520.176 29.5396 520.54C29.5396 520.869 29.4486 521.125 29.2666 521.307C29.0932 521.489 28.8592 521.58 28.5646 521.58C28.4432 521.58 28.3219 521.571 28.2006 521.554L28.0446 521.515V519.76C27.7846 519.829 27.6112 520.046 27.5246 520.41L27.1996 521.58C27.1129 521.883 26.9699 522.126 26.7706 522.308C26.7012 522.377 26.6059 522.438 26.4846 522.49H26.8746C27.3859 522.49 27.7846 522.594 28.0706 522.802C28.3652 523.001 28.5732 523.266 28.6946 523.595L29.3446 525.61L29.9946 525.805V526H28.6296C28.1702 526 27.7976 525.896 27.5116 525.688C27.2342 525.48 27.0436 525.216 26.9396 524.895L26.2246 522.75H25.3146V525.61L26.0946 525.805V526H22.4546V525.805ZM31.8146 525.805L32.5946 525.61V519.825H31.6196C31.6196 520.302 31.4766 520.783 31.1906 521.268C31.0779 521.45 30.9392 521.619 30.7746 521.775H30.3846V519.5H36.8846V521.775H36.4946C36.3299 521.628 36.1869 521.459 36.0656 521.268C35.7882 520.8 35.6496 520.319 35.6496 519.825H34.6746V525.61L35.4546 525.805V526H31.8146V525.805ZM37.1451 525.805L37.7951 525.61L38.3151 524.05C38.4537 523.634 38.8221 523.331 39.4201 523.14C39.6627 523.071 39.9444 523.027 40.2651 523.01V522.945C39.8664 522.936 39.4764 522.867 39.0951 522.737C38.3151 522.46 37.9251 521.987 37.9251 521.32C37.9251 520.783 38.1894 520.345 38.7181 520.007C39.2554 519.669 40.1177 519.5 41.3051 519.5H44.7501V519.695L43.9701 519.89V525.61L44.7501 525.805V526H41.1101V525.805L41.8901 525.61V523.14H40.8501L40.2651 524.96C40.1697 525.246 39.9834 525.493 39.7061 525.701C39.4374 525.9 39.1037 526 38.7051 526H37.1451V525.805ZM41.8901 522.815V519.825H41.3051C40.9324 519.825 40.6334 519.955 40.4081 520.215C40.1827 520.466 40.0701 520.835 40.0701 521.32C40.0701 521.805 40.1827 522.178 40.4081 522.438C40.6334 522.689 40.9324 522.815 41.3051 522.815H41.8901ZM49.2336 526.195C48.1502 526.195 47.3269 525.913 46.7636 525.35C46.2002 524.787 45.9186 523.963 45.9186 522.88V522.1C45.9186 520.557 46.1656 519.435 46.6596 518.733C47.1622 518.022 47.8902 517.585 48.8436 517.42L51.8336 516.9L52.0286 516.25H52.2236V517.42C52.2236 517.801 52.1326 518.096 51.9506 518.304C51.7686 518.512 51.4912 518.651 51.1186 518.72L48.1286 519.24C47.8339 519.292 47.5522 519.435 47.2836 519.669C47.0149 519.894 46.7939 520.215 46.6206 520.631C46.4559 521.038 46.3736 521.528 46.3736 522.1C46.4602 521.788 46.6336 521.476 46.8936 521.164C47.1622 520.852 47.4959 520.596 47.8946 520.397C48.3019 520.189 48.7482 520.085 49.2336 520.085C50.3082 520.085 51.1272 520.358 51.6906 520.904C52.2626 521.441 52.5486 522.187 52.5486 523.14C52.5486 524.093 52.2626 524.843 51.6906 525.389C51.1272 525.926 50.3082 526.195 49.2336 526.195ZM49.2336 525.935C49.5456 525.935 49.8056 525.723 50.0136 525.298C50.2302 524.873 50.3386 524.154 50.3386 523.14C50.3386 522.126 50.2302 521.407 50.0136 520.982C49.8056 520.557 49.5456 520.345 49.2336 520.345C48.9216 520.345 48.6572 520.557 48.4406 520.982C48.2326 521.407 48.1286 522.126 48.1286 523.14C48.1286 524.154 48.2326 524.873 48.4406 525.298C48.6572 525.723 48.9216 525.935 49.2336 525.935ZM53.4535 528.405L54.2335 528.21V519.89L53.4535 519.695V519.5H54.6235C55.1348 519.5 55.5378 519.665 55.8325 519.994C55.9451 520.124 56.0405 520.284 56.1185 520.475C56.2311 520.25 56.3741 520.055 56.5475 519.89C56.9375 519.5 57.4228 519.305 58.0035 519.305C58.5148 519.305 58.9698 519.439 59.3685 519.708C59.7671 519.968 60.0835 520.358 60.3175 520.878C60.5515 521.389 60.6685 522.013 60.6685 522.75C60.6685 523.859 60.4085 524.713 59.8885 525.311C59.3771 525.9 58.6838 526.195 57.8085 526.195C57.3925 526.195 57.0285 526.108 56.7165 525.935C56.5865 525.874 56.4521 525.788 56.3135 525.675V528.21L57.0935 528.405V528.6H53.4535V528.405ZM57.2885 525.805C57.6611 525.805 57.9471 525.588 58.1465 525.155C58.3545 524.722 58.4585 523.92 58.4585 522.75C58.4585 521.632 58.3631 520.856 58.1725 520.423C57.9905 519.981 57.7608 519.76 57.4835 519.76C57.1541 519.76 56.8595 519.933 56.5995 520.28C56.4868 520.427 56.3915 520.601 56.3135 520.8V525.285C56.4348 525.406 56.5301 525.493 56.5995 525.545C56.8335 525.718 57.0631 525.805 57.2885 525.805ZM61.2535 525.805L61.9035 525.61L62.4235 524.05C62.5621 523.634 62.9305 523.331 63.5285 523.14C63.7711 523.071 64.0528 523.027 64.3735 523.01V522.945C63.9748 522.936 63.5848 522.867 63.2035 522.737C62.4235 522.46 62.0335 521.987 62.0335 521.32C62.0335 520.783 62.2978 520.345 62.8265 520.007C63.3638 519.669 64.2261 519.5 65.4135 519.5H68.8585V519.695L68.0785 519.89V525.61L68.8585 525.805V526H65.2185V525.805L65.9985 525.61V523.14H64.9585L64.3735 524.96C64.2781 525.246 64.0918 525.493 63.8145 525.701C63.5458 525.9 63.2121 526 62.8135 526H61.2535V525.805ZM65.9985 522.815V519.825H65.4135C65.0408 519.825 64.7418 519.955 64.5165 520.215C64.2911 520.466 64.1785 520.835 64.1785 521.32C64.1785 521.805 64.2911 522.178 64.5165 522.438C64.7418 522.689 65.0408 522.815 65.4135 522.815H65.9985Z" fill="#F3C9CB"/>
<rect x="286.125" y="627" width="6.87503" height="66.9999" fill="#3A3A3A"/>
<rect x="244.875" y="627" width="6.87503" height="66.9999" fill="#3A3A3A"/>
<rect x="217.375" y="627" width="6.87503" height="66.9999" fill="#3A3A3A"/>
<rect x="134.879" y="627" width="6.87503" height="66.9999" fill="#3A3A3A"/>
<rect x="117.688" y="627" width="6.87503" height="66.9999" fill="#3A3A3A"/>
<rect x="97.0664" y="627" width="6.87503" height="66.9999" fill="#3A3A3A"/>
<rect x="200.191" y="627" width="10.3125" height="66.9999" fill="#3A3A3A"/>
<rect x="183.004" y="627" width="10.3125" height="66.9999" fill="#3A3A3A"/>
<rect x="152.059" y="627" width="20.6251" height="66.9999" fill="#3A3A3A"/>
<rect x="231.129" y="627" width="10.3125" height="66.9999" fill="#3A3A3A"/>
<rect x="73" y="627" width="10.3125" height="66.9999" fill="#3A3A3A"/>
<rect x="86.75" y="627" width="3.43752" height="66.9999" fill="#3A3A3A"/>
<rect x="262.062" y="627" width="13.7501" height="66.9999" fill="#3A3A3A"/>
<rect x="279.25" y="627" width="3.43752" height="66.9999" fill="#3A3A3A"/>
</svg>
