<svg width="545" height="515" viewBox="0 0 545 515" fill="none" xmlns="http://www.w3.org/2000/svg">
<circle cx="225" cy="289.783" r="222.5" stroke="#3A3A3A" stroke-width="5"/>
<mask id="mask0_307_610" style="mask-type:alpha" maskUnits="userSpaceOnUse" x="0" y="64" width="450" height="451">
<circle cx="225" cy="289.783" r="222.5" fill="white" stroke="white" stroke-width="5"/>
</mask>
<g mask="url(#mask0_307_610)">
<path d="M-87 620.783L-27 605.783V-34.2173L-87 -49.2173V-64.2173H448V115.783H418C405.333 105.783 394.333 93.116 385 77.7827C363.667 41.7827 353 2.78268 353 -39.2173H138V275.783H253C257.667 250.449 266.333 226.783 279 204.783C284.333 194.783 290.667 185.116 298 175.783H328V400.783H298C290.667 391.449 284.333 381.783 279 371.783C266.333 349.783 257.667 326.116 253 300.783H138V610.783H373C373 568.783 383.667 529.783 405 493.783C414.333 478.449 425.333 465.783 438 455.783H468V635.783H-87V620.783Z" fill="#3A3A3A"/>
</g>
<path d="M275.686 45.1794L275.793 44.4675L278.748 44.185L283.33 13.8085L280.589 12.6671L280.697 11.9551L312.26 16.7153L312.152 17.4273L309.197 17.7097L304.616 48.0862L307.356 49.2276L307.249 49.9396L293.722 47.8995L293.829 47.1876L296.784 46.9051L301.401 16.2913L291.197 14.7523L286.58 45.3661L289.32 46.5075L289.213 47.2195L275.686 45.1794Z" fill="#3A3A3A"/>
<path d="M323.147 55.2756C319.351 54.1207 316.692 52.1411 315.17 49.3369C313.688 46.5113 313.525 43.2004 314.68 39.4042C315.835 35.6079 317.81 32.9643 320.604 31.4732C323.439 29.9608 326.755 29.782 330.551 30.9369C334.347 32.0917 336.986 34.0819 338.468 36.9075C339.99 39.7118 340.173 43.0121 339.018 46.8083C337.864 50.6045 335.869 53.2588 333.034 54.7712C330.239 56.2623 326.943 56.4304 323.147 55.2756ZM323.426 54.3571C324.651 54.7297 325.937 54.1845 327.286 52.7215C328.664 51.2678 329.973 48.5051 331.212 44.4334C332.45 40.3616 332.902 37.3381 332.566 35.3629C332.261 33.3971 331.496 32.2278 330.272 31.8553C329.047 31.4828 327.745 32.0233 326.367 33.477C325.019 34.9399 323.725 37.7073 322.486 41.7791C321.248 45.8508 320.781 48.8696 321.086 50.8355C321.422 52.8107 322.202 53.9846 323.426 54.3571Z" fill="#3A3A3A"/>
<path d="M341.657 61.3816C340.349 60.7795 339.492 59.9624 339.086 58.9302C338.681 57.8981 338.759 56.7715 339.321 55.5507C339.763 54.5914 340.457 53.9247 341.404 53.5505C342.394 53.1607 343.325 53.1664 344.197 53.5679C344.429 53.6749 344.649 53.811 344.854 53.9762C345.073 54.1123 345.227 54.2004 345.314 54.2406L345.841 54.5887L343.131 60.475C343.976 60.4764 344.881 60.1179 345.845 59.3995C346.81 58.6811 347.887 57.2217 349.076 55.0213L355.869 42.5601L353.218 40.283L353.519 39.629L373.795 48.9621L373.493 49.6161L370.576 49.0659L361.745 68.2509L364.06 70.1092L363.759 70.7632L351.55 65.1433L351.851 64.4892L354.769 65.0395L363.7 45.6365L357.378 42.7262L350.384 55.6234C348.939 58.3046 347.45 60.0851 345.917 60.965C344.385 61.8449 342.965 61.9838 341.657 61.3816Z" fill="#3A3A3A"/>
<path d="M366.049 84.0921C364.827 83.3296 364.08 82.4108 363.808 81.3357C363.536 80.2606 363.756 79.153 364.468 78.0129C365.112 76.9813 365.883 76.35 366.782 76.1188C367.707 75.9045 368.632 76.0855 369.555 76.6616C369.772 76.7971 369.981 76.9462 370.181 77.1089C370.364 77.2988 370.497 77.4191 370.578 77.4699L371.057 77.8818L367.625 83.3788C368.497 83.7345 369.461 83.7322 370.515 83.372C371.57 83.0119 373.023 82.1647 374.874 80.8306L376.959 79.3029L378.572 53.1497L376.917 51.2681L377.299 50.6573L382.389 53.8343C383.8 54.7154 384.727 55.7087 385.168 56.8142C385.654 57.9095 385.84 59.2136 385.725 60.7265L384.944 73.3096L396.107 64.9434L393.816 61.8157L394.197 61.2049L401.73 65.9068L401.349 66.5176L397.329 65.7059L376.096 81.593C373.838 83.2768 371.915 84.3023 370.328 84.6696C368.724 85.064 367.297 84.8715 366.049 84.0921Z" fill="#3A3A3A"/>
<path d="M396.804 93.5226C395.181 92.2217 393.98 90.8288 393.202 89.3438C392.469 87.8539 392.14 86.4218 392.216 85.0475C392.312 83.6483 392.771 82.4368 393.591 81.4131L394.528 82.1636C393.867 82.9876 393.499 83.9842 393.423 85.1536C393.347 86.323 393.581 87.5151 394.124 88.73C394.713 89.9399 395.607 91.0252 396.805 91.9858C399.677 94.2873 402.313 93.9399 404.715 90.9435C405.876 89.4953 406.441 88.124 406.413 86.8296C406.384 85.5352 405.833 84.4577 404.759 83.5972L402.324 81.6459L403.075 80.7095L404.76 82.0604C405.834 82.921 406.986 83.2494 408.215 83.0456C409.445 82.8418 410.58 82.0907 411.621 80.7923C412.661 79.4938 413.147 78.2224 413.078 76.978C413.01 75.7335 412.438 74.681 411.365 73.8204C410.74 73.3201 410.153 72.9523 409.604 72.7169L408.817 72.3938L404.314 78.012L403.737 77.7341C403.298 77.4638 402.941 77.2186 402.666 76.9985C401.817 76.318 401.33 75.518 401.206 74.5983C401.127 73.6737 401.428 72.7869 402.108 71.9379C403.029 70.7893 404.409 70.2958 406.248 70.4574C408.112 70.639 410.267 71.7105 412.714 73.6717C414.787 75.3328 416.317 76.9284 417.305 78.4586C418.293 79.9887 418.787 81.3685 418.785 82.5979C418.829 83.8223 418.501 84.8715 417.801 85.7455C416.96 86.7942 415.975 87.358 414.846 87.437C413.741 87.5359 412.514 87.3524 411.165 86.8864C409.861 86.4154 408.563 85.6821 407.269 84.6864L407.119 84.8737C408.422 85.9593 409.536 87.1798 410.459 88.5349C411.303 89.7851 411.806 91.0499 411.97 92.3295C412.154 93.584 411.795 94.7731 410.895 95.8967C409.574 97.5447 407.752 98.2577 405.428 98.0357C403.124 97.7888 400.25 96.2844 396.804 93.5226Z" fill="#3A3A3A"/>
<path d="M415.867 110.331C413.882 108.289 412.79 106.293 412.592 104.344C412.393 102.395 412.971 100.763 414.324 99.4466C415.219 98.5768 416.292 97.9131 417.543 97.4556C418.113 97.2148 418.692 97.0532 419.281 96.9711C420.425 97.6888 421.624 98.5092 422.879 99.4322C425.701 101.509 428.083 103.455 430.026 105.27L431.059 104.266C433.606 101.791 435.06 99.7746 435.421 98.2183C435.783 96.6619 435.339 95.2413 434.09 93.9563C433.622 93.4745 433.163 93.1172 432.714 92.8845L432.073 92.5699L426.91 97.5884L426.372 97.2413C425.969 96.9188 425.645 96.6314 425.4 96.3789C424.642 95.5988 424.258 94.7447 424.248 93.8168C424.284 92.8895 424.692 92.0466 425.472 91.2883C426.528 90.2623 427.935 89.9202 429.696 90.262C431.478 90.6267 433.396 91.8645 435.448 93.9756C437.187 95.7654 438.36 97.615 438.967 99.5245C439.619 101.435 439.706 103.269 439.228 105.027C438.796 106.786 437.857 108.368 436.412 109.773L427.119 118.807L428.61 121.374L428.093 121.876L425.082 118.778C423.744 117.401 423.131 115.921 423.244 114.339C423.276 113.683 423.467 113.007 423.816 112.31C422.93 112.547 422.046 112.67 421.163 112.68C419.127 112.651 417.362 111.868 415.867 110.331ZM418.41 110.537C419.235 111.386 420.442 111.708 422.029 111.504C422.618 111.422 423.334 111.24 424.175 110.958L429.166 106.107C428.14 105.051 427.101 104.097 426.049 103.245C425.266 102.623 424.74 102.197 424.472 101.967C424.108 102.097 423.652 102.317 423.105 102.626C422.01 103.244 421.038 103.966 420.189 104.791C418.904 106.04 418.141 107.161 417.901 108.153C417.661 109.146 417.83 109.94 418.41 110.537Z" fill="#3A3A3A"/>
<path d="M437.801 135.621C435.33 132.355 434.302 129.14 434.717 125.977C435.159 122.794 436.962 120.006 440.126 117.612C443.29 115.218 446.451 114.251 449.608 114.711C452.791 115.153 455.618 117.006 458.089 120.273C459.865 122.621 460.789 124.691 460.861 126.482C460.951 128.3 460.41 129.652 459.236 130.54C458.368 131.197 457.464 131.46 456.522 131.329C455.626 131.205 454.849 130.709 454.193 129.841C453.923 129.484 453.678 129.107 453.459 128.711L453.226 128.165L458.968 123.821L458.754 123.141C458.592 122.661 458.308 122.154 457.903 121.618C456.802 120.163 455.254 119.549 453.258 119.775C451.282 120.026 448.545 121.474 445.049 124.119C441.655 126.687 439.568 128.888 438.788 130.721C438.054 132.561 438.237 134.208 439.337 135.663C440.09 136.658 441.015 137.403 442.111 137.898C443.252 138.399 444.389 138.602 445.522 138.508C446.699 138.42 447.696 138.067 448.512 137.449L449.236 138.406C448.216 139.178 447.014 139.606 445.632 139.688C444.25 139.771 442.863 139.476 441.472 138.803C440.106 138.111 438.882 137.051 437.801 135.621Z" fill="#3A3A3A"/>
<path d="M451.965 157.1C449.891 153.568 449.244 150.255 450.025 147.161C450.834 144.052 452.949 141.492 456.371 139.483C458.606 138.171 460.803 137.456 462.961 137.339C465.119 137.222 467.085 137.664 468.859 138.663C470.649 139.69 472.128 141.196 473.295 143.183C474.461 145.17 475.109 147.127 475.239 149.055C475.386 151.01 475.059 152.76 474.259 154.306C473.504 155.863 472.367 157.087 470.849 157.978C470.16 158.383 469.526 158.663 468.948 158.816L468.123 159.023C467.178 157.982 466.217 156.82 465.242 155.538C463.126 152.883 461.202 150.08 459.468 147.127C456.267 149.007 454.236 150.793 453.375 152.487C452.541 154.163 452.578 155.775 453.486 157.32C454.117 158.396 454.949 159.244 455.981 159.863C457.056 160.493 458.161 160.827 459.297 160.865C460.476 160.915 461.508 160.681 462.391 160.162L462.998 161.197C461.895 161.845 460.651 162.13 459.269 162.051C457.887 161.972 456.544 161.517 455.24 160.687C453.964 159.841 452.872 158.645 451.965 157.1ZM460.503 146.52C461.54 148.286 462.451 149.68 463.238 150.703C463.541 151.156 463.901 151.612 464.32 152.071C464.474 152.018 464.818 151.909 465.352 151.744C466.123 151.477 466.894 151.116 467.667 150.662C469.957 149.318 471.448 148.034 472.141 146.811C472.86 145.572 472.969 144.525 472.467 143.669C471.251 141.6 467.263 142.55 460.503 146.52Z" fill="#3A3A3A"/>
<path d="M465.338 180.534L467.127 182.903L474.857 179.615C474.254 179.177 473.667 178.574 473.098 177.808C472.57 177.059 472.131 176.272 471.781 175.447C470.553 172.561 470.207 170.153 470.742 168.221C471.289 166.319 472.549 164.949 474.522 164.11L480.927 161.386L480.462 158.454L481.125 158.172L486.385 170.54L485.722 170.822L483.933 168.453L477.528 171.177C475.614 171.991 474.363 172.853 473.777 173.763C473.232 174.691 473.185 175.684 473.636 176.744C474.137 177.922 474.912 178.723 475.962 179.146L486.563 174.637L486.098 171.705L486.761 171.423L492.021 183.791L491.358 184.073L489.568 181.705L470.133 189.97L470.598 192.902L469.935 193.184L464.675 180.816L465.338 180.534Z" fill="#3A3A3A"/>
<path d="M472.071 196.991L473.518 199.583L493.906 194.073L493.85 191.105L494.545 190.917L498.051 203.891L497.356 204.079L495.91 201.487L486.874 203.929L487.312 205.551C487.555 206.446 488.041 207.144 488.773 207.642C489.535 208.132 490.386 208.399 491.326 208.444L495.81 208.475C498.481 208.548 500.093 209.604 500.644 211.643C501.02 213.033 500.941 214.215 500.408 215.187C499.876 216.16 498.961 216.822 497.663 217.172C496.489 217.49 495.49 217.412 494.666 216.938C493.851 216.496 493.301 215.749 493.017 214.699C492.9 214.267 492.814 213.826 492.759 213.377L492.748 212.783L499.003 211.092C498.506 210.232 497.566 209.823 496.185 209.865L491.702 209.834C490.537 209.817 489.535 209.541 488.694 209.006C488.38 208.826 488.072 208.544 487.77 208.162L488.145 209.552C488.638 211.374 488.651 212.896 488.185 214.115C487.759 215.358 487.017 216.354 485.96 217.104L479.404 221.362L479.335 223.866L478.64 224.054L477.325 219.189C476.882 217.552 476.894 216.123 477.36 214.903C477.834 213.714 478.593 212.78 479.635 212.1L486.592 207.485L485.716 204.242L475.521 206.997L475.578 209.965L474.883 210.153L471.376 197.179L472.071 196.991Z" fill="#3A3A3A"/>
<path d="M479.064 225.908L479.779 225.819L480.849 228.589L501.807 225.985L502.167 223.038L502.881 222.949L504.538 236.287L503.824 236.375L502.754 233.606L487.035 235.559L501.081 241.553L503.701 241.227L504.061 238.281L504.775 238.192L506.432 251.529L505.718 251.618L504.648 248.849L483.689 251.453L483.33 254.4L482.615 254.488L480.958 241.151L481.673 241.062L482.742 243.831L498.461 241.878L484.415 235.884L481.795 236.21L481.436 239.157L480.721 239.246L479.064 225.908Z" fill="#3A3A3A"/>
</svg>
