<svg width="552" height="565" viewBox="0 0 552 565" fill="none" xmlns="http://www.w3.org/2000/svg">
<mask id="mask0_307_612" style="mask-type:alpha" maskUnits="userSpaceOnUse" x="0" y="114" width="450" height="451">
<circle cx="225" cy="339.731" r="223.5" fill="white" stroke="black" stroke-width="3"/>
</mask>
<g mask="url(#mask0_307_612)">
<path d="M-247 578.731L-167 548.731L108 -116.269H138L423 563.731L473 578.731V593.731H353C318.333 593.731 290 586.065 268 570.731C246 554.731 229.667 534.065 219 508.731L168 388.731H-71L-137 548.731L-62 578.731V593.731H-247V578.731ZM-61 363.731H158L48 100.731L-61 363.731Z" fill="#3A3A3A"/>
</g>
<circle cx="225" cy="339.731" r="222.5" stroke="#3A3A3A" stroke-width="5"/>
<path d="M225.584 89.6493L228.375 88.6384L225.232 58.0796L222.293 57.658L222.22 56.9418L235.828 55.5422L235.902 56.2585L233.11 57.2693L234.51 70.8775L236.897 70.632C239.285 70.3865 240.721 68.7107 241.206 65.6048L242.238 59.2257C242.47 57.7221 242.971 56.4964 243.742 55.5486C244.545 54.5974 245.551 54.0597 246.761 53.9353C248.162 53.7912 249.35 54.0872 250.326 54.8231C251.3 55.5273 251.85 56.5001 251.978 57.7415C252.102 58.9511 251.838 59.9756 251.184 60.8148C250.527 61.6223 249.658 62.0817 248.575 62.193C248.13 62.2388 247.681 62.2528 247.229 62.235L246.641 62.1507L245.953 55.4659C245.425 55.6489 244.954 56.0674 244.538 56.7213C244.12 57.3434 243.831 58.1291 243.671 59.0784L242.638 65.4575C242.341 67.2574 241.835 68.5962 241.121 69.4738C240.81 69.8918 240.445 70.251 240.026 70.5515L241.219 70.4288C245.103 70.0294 247.629 71.1367 248.799 73.7507L254.398 85.962L256.859 86.4327L256.932 87.1489L251.203 87.7382C249.515 87.9117 248.174 87.6958 247.179 87.0905C246.184 86.4851 245.396 85.5528 244.817 84.2935L238.93 71.6293L234.633 72.0712L236.253 87.8281L239.192 88.2497L239.266 88.9659L225.657 90.3655L225.584 89.6493Z" fill="#3A3A3A"/>
<path d="M272.139 88.4887C268.175 88.3172 265.106 87.0634 262.933 84.7273C260.793 82.3606 259.809 79.1951 259.98 75.2309C260.152 71.2666 261.405 68.2139 263.74 66.0728C266.108 63.9011 269.274 62.9009 273.238 63.0724C277.203 63.2439 280.255 64.513 282.394 66.8796C284.567 69.2157 285.568 72.3659 285.397 76.3302C285.225 80.2945 283.955 83.3625 281.587 85.5342C279.253 87.6753 276.103 88.6601 272.139 88.4887ZM272.18 87.5295C273.459 87.5849 274.569 86.736 275.51 84.983C276.482 83.2314 277.06 80.2296 277.244 75.9776C277.428 71.7256 277.111 68.685 276.294 66.856C275.508 65.0283 274.476 64.0868 273.197 64.0315C271.918 63.9762 270.792 64.8244 269.82 66.576C268.879 68.3289 268.317 71.3315 268.133 75.5835C267.949 79.8355 268.25 82.8753 269.036 84.703C269.853 86.5321 270.902 87.4742 272.18 87.5295Z" fill="#3A3A3A"/>
<path d="M288.337 88.4928L288.468 87.7849L291.431 87.6016L295.278 66.8349L292.578 65.6023L292.709 64.8944L305.924 67.3427L305.793 68.0506L302.83 68.2339L301.037 77.9093L308.117 79.2209L309.909 69.5455L307.209 68.3129L307.34 67.605L320.555 70.0532L320.424 70.7612L317.461 70.9445L313.614 91.7111L316.314 92.9437L316.183 93.6517L302.968 91.2034L303.099 90.4955L306.062 90.3121L307.898 80.4008L300.819 79.0892L298.983 89.0006L301.683 90.2331L301.552 90.9411L288.337 88.4928Z" fill="#3A3A3A"/>
<path d="M324.576 95.4796L327.537 95.6939L334.2 75.3997L330.78 74.2767C330.231 75.9489 329.175 77.4716 327.613 78.8448C327.008 79.3535 326.327 79.7866 325.57 80.1442L324.202 79.695L326.822 71.7142L349.624 79.2007L347.004 87.1816L345.636 86.7324C345.228 86.0258 344.921 85.2683 344.715 84.4597C344.281 82.4985 344.349 80.6514 344.917 78.9184L341.497 77.7954L334.834 98.0896L337.346 99.672L337.121 100.356L324.352 96.1637L324.576 95.4796Z" fill="#3A3A3A"/>
<path d="M340.747 110.823L343.656 111.415L356.902 83.6979L354.614 81.8065L354.924 81.1568L358.822 83.0195C360.525 83.8336 361.606 85.0238 362.063 86.5901C362.231 87.2025 362.294 87.8885 362.25 88.6478C362.984 88.0765 363.771 87.6546 364.611 87.3819C366.531 86.7036 368.458 86.8266 370.393 87.7511C372.096 88.5652 373.398 89.7371 374.298 91.2668C375.213 92.7677 375.646 94.5706 375.597 96.6755C375.563 98.7515 374.959 101.017 373.786 103.471C372.02 107.166 369.795 109.596 367.11 110.761C364.469 111.91 361.69 111.788 358.774 110.394C357.388 109.732 356.313 108.864 355.55 107.79C355.213 107.38 354.904 106.878 354.621 106.282L350.585 114.727L352.873 116.618L352.563 117.268L340.436 111.473L340.747 110.823ZM357.662 108.267C358.904 108.86 360.201 108.594 361.555 107.468C362.938 106.355 364.561 103.85 366.424 99.9523C368.204 96.2277 369.121 93.4919 369.176 91.7447C369.273 89.9824 368.86 88.8806 367.936 88.439C366.839 87.9147 365.581 88.023 364.163 88.764C363.553 89.0754 362.96 89.5011 362.382 90.041L355.242 104.982C355.453 105.58 355.633 106.02 355.781 106.304C356.284 107.254 356.911 107.908 357.662 108.267Z" fill="#3A3A3A"/>
<path d="M378.601 121.388C376.214 119.834 374.708 118.129 374.084 116.272C373.46 114.415 373.663 112.695 374.692 111.113C375.373 110.067 376.273 109.183 377.392 108.46C377.894 108.1 378.424 107.814 378.98 107.604C380.255 108.051 381.605 108.587 383.032 109.21C386.243 110.612 388.996 111.984 391.292 113.325L392.078 112.119C394.015 109.141 394.988 106.854 394.997 105.256C395.006 103.659 394.26 102.371 392.758 101.394C392.195 101.027 391.668 100.78 391.179 100.652L390.484 100.487L386.557 106.521L385.956 106.302C385.492 106.076 385.112 105.867 384.817 105.675C383.905 105.082 383.342 104.334 383.128 103.431C382.958 102.518 383.17 101.606 383.763 100.694C384.566 99.4607 385.864 98.8161 387.656 98.7607C389.475 98.7228 391.618 99.5067 394.086 101.113C396.178 102.474 397.731 104.019 398.744 105.747C399.801 107.466 400.291 109.236 400.214 111.056C400.181 112.867 399.614 114.618 398.515 116.308L391.446 127.17L393.467 129.344L393.074 129.948L389.454 127.591C387.844 126.544 386.92 125.236 386.681 123.668C386.567 123.021 386.604 122.32 386.791 121.563C385.979 121.989 385.143 122.305 384.285 122.51C382.292 122.931 380.398 122.557 378.601 121.388ZM381.126 121.027C382.119 121.673 383.366 121.721 384.869 121.172C385.426 120.962 386.083 120.626 386.842 120.165L390.638 114.331C389.404 113.528 388.18 112.827 386.967 112.228C386.065 111.795 385.459 111.495 385.146 111.33C384.82 111.538 384.424 111.853 383.958 112.275C383.027 113.12 382.238 114.038 381.592 115.031C380.615 116.533 380.119 117.794 380.103 118.815C380.088 119.836 380.429 120.573 381.126 121.027Z" fill="#3A3A3A"/>
<path d="M404.971 140.817C401.84 138.177 400.128 135.268 399.834 132.091C399.562 128.889 400.705 125.772 403.262 122.738C405.82 119.705 408.69 118.064 411.87 117.816C415.072 117.543 418.238 118.727 421.37 121.368C423.621 123.265 424.979 125.08 425.444 126.812C425.934 128.564 425.704 130.003 424.755 131.128C424.054 131.96 423.23 132.416 422.283 132.497C421.381 132.574 420.514 132.261 419.683 131.56C419.34 131.271 419.018 130.958 418.717 130.62L418.369 130.139L423.01 124.634L422.651 124.018C422.388 123.586 421.999 123.154 421.485 122.72C420.091 121.545 418.445 121.287 416.548 121.948C414.676 122.63 412.327 124.647 409.501 127.998C406.757 131.252 405.208 133.859 404.853 135.82C404.542 137.776 405.084 139.343 406.479 140.518C407.433 141.323 408.499 141.845 409.678 142.086C410.902 142.322 412.055 142.269 413.139 141.927C414.268 141.581 415.162 141.017 415.822 140.234L416.739 141.008C415.914 141.986 414.837 142.668 413.507 143.054C412.178 143.44 410.76 143.458 409.254 143.109C407.769 142.736 406.341 141.972 404.971 140.817Z" fill="#3A3A3A"/>
<path d="M418.345 151.12L420.841 152.728L436.419 138.114L433.957 135.489C432.673 136.693 431.016 137.523 428.987 137.979C428.212 138.135 427.407 138.189 426.571 138.139L425.586 137.089L431.712 131.342L448.132 148.846L442.005 154.593L441.02 153.543C441.001 152.727 441.095 151.915 441.302 151.107C441.861 149.178 442.806 147.589 444.137 146.341L441.674 143.716L426.095 158.329L427.54 160.922L427.015 161.415L417.82 151.613L418.345 151.12Z" fill="#3A3A3A"/>
<path d="M442.725 180.184L444.905 182.199L462.776 170.5L460.804 167.488C459.332 168.452 457.556 168.983 455.479 169.081C454.689 169.101 453.886 169.014 453.071 168.821L452.282 167.616L459.31 163.015L472.456 183.095L465.428 187.696L464.639 186.491C464.762 185.684 464.994 184.901 465.338 184.14C466.223 182.337 467.428 180.936 468.954 179.937L466.983 176.925L449.112 188.625L450.087 191.429L449.484 191.823L442.123 180.579L442.725 180.184Z" fill="#3A3A3A"/>
<path d="M458.728 210.415C456.995 206.845 456.641 203.549 457.664 200.527C458.73 197.52 461.048 195.15 464.618 193.418C468.188 191.686 471.469 191.338 474.463 192.376C477.499 193.428 479.883 195.739 481.615 199.309C483.347 202.878 483.68 206.167 482.614 209.174C481.591 212.196 479.294 214.573 475.725 216.306C472.155 218.038 468.852 218.378 465.816 217.326C462.823 216.289 460.46 213.985 458.728 210.415ZM459.591 209.996C460.15 211.148 461.424 211.721 463.414 211.716C465.417 211.74 468.333 210.822 472.162 208.964C475.991 207.106 478.516 205.383 479.737 203.795C480.972 202.235 481.31 200.879 480.751 199.728C480.193 198.576 478.911 197.988 476.908 197.965C474.919 197.97 472.009 198.901 468.18 200.759C464.351 202.617 461.82 204.326 460.585 205.886C459.363 207.474 459.032 208.844 459.591 209.996Z" fill="#3A3A3A"/>
<path d="M466.342 227.151C465.897 225.781 465.916 224.597 466.399 223.599C466.882 222.601 467.762 221.894 469.04 221.478C470.044 221.151 471.005 221.209 471.923 221.651C472.881 222.113 473.508 222.801 473.805 223.714C473.885 223.957 473.933 224.211 473.952 224.474C474 224.727 474.04 224.899 474.069 224.991L474.171 225.614L468.009 227.618C468.581 228.24 469.458 228.661 470.641 228.882C471.823 229.103 473.626 228.904 476.049 228.284L489.812 224.817L489.685 221.325L490.37 221.102L497.274 242.328L496.589 242.55L495.013 240.034L474.929 246.567L475.135 249.528L474.45 249.751L470.293 236.97L470.978 236.747L472.554 239.263L492.866 232.657L490.713 226.038L476.494 229.653C473.544 230.411 471.226 230.526 469.54 229.997C467.854 229.469 466.788 228.52 466.342 227.151Z" fill="#3A3A3A"/>
<path d="M474.076 294.789C474.494 293.887 475.044 293.112 475.725 292.463C477.241 290.883 479.107 289.932 481.324 289.608L475.952 252.798L476.664 252.694L477.793 255.44L498.691 252.39L498.988 249.437L499.7 249.333L501.607 262.394L500.894 262.498L499.8 259.99L478.664 263.074L479.565 269.249L500.701 266.164L501.033 263.448L501.745 263.344L503.617 276.168L502.904 276.272L501.81 273.764L480.674 276.848L481.575 283.023L502.711 279.939L503.043 277.222L503.755 277.118L505.661 290.18L504.949 290.284L503.82 287.538L482.684 290.622L483.308 294.897L474.284 296.214L474.076 294.789Z" fill="#3A3A3A"/>
<path d="M481.702 297.523L482.422 297.543L483.061 300.442L504.173 301.032L504.973 298.174L505.693 298.194L505.317 311.629L504.597 311.608L503.958 308.709L488.124 308.266L501.104 316.313L503.743 316.386L504.544 313.528L505.263 313.548L504.887 326.983L504.168 326.962L503.528 324.063L482.417 323.473L481.616 326.331L480.897 326.311L481.273 312.877L481.992 312.897L482.632 315.796L498.465 316.239L485.485 308.193L482.846 308.119L482.046 310.977L481.326 310.957L481.702 297.523Z" fill="#3A3A3A"/>
<path d="M480.638 329.46L481.346 329.589L481.54 332.551L502.321 336.32L503.544 333.615L504.252 333.743L501.854 346.968L501.145 346.839L500.951 343.877L491.269 342.121L489.984 349.205L499.666 350.961L500.888 348.256L501.597 348.384L499.198 361.609L498.49 361.48L498.295 358.518L477.514 354.749L476.292 357.454L475.583 357.325L477.982 344.101L478.69 344.23L478.885 347.192L488.803 348.991L490.088 341.906L480.17 340.108L478.947 342.813L478.239 342.684L480.638 329.46Z" fill="#3A3A3A"/>
<path d="M476.033 360.927L475.721 363.879L495.557 371.13L497.222 368.672L497.898 368.919L493.284 381.543L492.608 381.295L492.921 378.343L485.257 375.542L484.433 377.796C481.576 385.61 477.894 388.694 473.386 387.046C468.877 385.398 468.051 380.667 470.908 372.852L475.357 360.68L476.033 360.927ZM466.294 385.476L466.97 385.723L466.657 388.675L486.494 395.926L488.159 393.468L488.835 393.715L484.221 406.338L483.545 406.091L483.857 403.139L464.021 395.888L462.356 398.346L461.68 398.099L466.294 385.476ZM472.035 373.264C471.551 374.587 471.638 375.794 472.295 376.886C472.972 378.019 474.241 378.926 476.105 379.607C477.968 380.288 479.509 380.408 480.726 379.967C481.962 379.568 482.822 378.706 483.306 377.384L484.129 375.13L472.859 371.01L472.035 373.264Z" fill="#3A3A3A"/>
</svg>
