<svg width="601" height="538" viewBox="0 0 601 538" fill="none" xmlns="http://www.w3.org/2000/svg">
<circle cx="375.062" cy="312.943" r="222.5" stroke="#3A3A3A" stroke-width="5"/>
<mask id="mask0_307_611" style="mask-type:alpha" maskUnits="userSpaceOnUse" x="150" y="87" width="451" height="451">
<circle cx="375.062" cy="312.943" r="222.5" fill="white" stroke="white" stroke-width="5"/>
</mask>
<g mask="url(#mask0_307_611)">
<path d="M-110.937 668.943L-50.9375 653.943V13.9429L-110.937 -1.05719V-16.0572H159.063C260.396 -16.0572 334.729 0.276165 382.063 32.9428C430.063 64.9428 454.063 106.943 454.063 158.943C454.063 194.943 443.729 223.943 423.063 245.943C402.396 267.943 376.063 284.276 344.062 294.943C310.063 306.943 273.396 313.276 234.063 313.943V318.943C282.729 320.943 325.063 328.276 361.063 340.943C397.729 352.943 428.063 371.61 452.063 396.943C476.729 422.276 489.063 454.61 489.063 493.943C489.063 553.276 464.729 599.943 416.063 633.943C367.396 667.276 288.396 683.943 179.063 683.943H-110.937V668.943ZM159.063 303.943C181.063 303.943 201.396 297.943 220.063 285.943C239.396 273.276 254.729 255.943 266.063 233.943C278.063 211.276 284.063 186.276 284.063 158.943C284.063 129.61 278.063 103.61 266.063 80.9428C254.729 58.2762 239.396 40.6095 220.063 27.9429C201.396 15.2762 181.063 8.94286 159.063 8.94286H114.063V303.943H159.063ZM179.063 658.943C220.396 658.943 254.063 644.276 280.063 614.943C306.063 585.61 319.063 545.276 319.063 493.943C319.063 442.61 306.063 402.276 280.063 372.943C254.063 343.61 220.396 328.943 179.063 328.943H114.063V658.943H179.063Z" fill="#3A3A3A"/>
</g>
<path d="M122.017 364.924L121.321 365.107L119.891 362.506L90.1855 370.336L90.2233 373.305L89.5271 373.488L81.391 342.623L82.0872 342.439L83.5175 345.04L113.223 337.21L113.185 334.242L113.881 334.058L117.368 347.286L116.672 347.47L115.242 344.869L85.3042 352.76L87.9347 362.739L117.872 354.848L117.834 351.879L118.53 351.696L122.017 364.924Z" fill="#3A3A3A"/>
<path d="M113.623 327.719C113.784 329.15 113.527 330.306 112.854 331.187C112.18 332.068 111.175 332.584 109.84 332.734C108.791 332.852 107.861 332.603 107.051 331.985C106.205 331.34 105.729 330.54 105.621 329.586C105.593 329.332 105.596 329.074 105.631 328.812C105.634 328.554 105.63 328.378 105.619 328.282L105.645 327.652L112.084 326.927C111.649 326.203 110.874 325.614 109.76 325.16C108.646 324.705 106.84 324.538 104.342 324.659L90.1634 325.289L89.5853 328.735L88.8699 328.815L86.3729 306.636L87.0884 306.555L88.1261 309.336L109.113 306.974L109.507 304.031L110.222 303.951L111.726 317.306L111.01 317.387L109.973 314.605L88.7467 316.995L89.5254 323.911L104.181 323.228C107.223 323.078 109.517 323.432 111.063 324.288C112.608 325.145 113.462 326.289 113.623 327.719Z" fill="#3A3A3A"/>
<path d="M110.868 290.522C110.799 293.37 110.139 295.546 108.887 297.053C107.634 298.559 106.064 299.29 104.177 299.244C102.929 299.215 101.704 298.913 100.501 298.34C99.9308 298.102 99.4098 297.802 98.9384 297.438C98.65 296.119 98.3962 294.688 98.1771 293.147C97.6842 289.678 97.4056 286.614 97.3413 283.956L95.9017 283.922C92.3507 283.836 89.8931 284.21 88.5287 285.041C87.1644 285.873 86.4607 287.184 86.4178 288.976C86.4017 289.647 86.4678 290.225 86.6163 290.709L86.8401 291.386L94.038 291.559L94.167 292.186C94.2187 292.7 94.2403 293.132 94.2319 293.484C94.2058 294.572 93.8648 295.444 93.2089 296.101C92.5217 296.724 91.6343 297.023 90.5466 296.997C89.075 296.962 87.845 296.196 86.8566 294.7C85.869 293.172 85.4105 290.936 85.4811 287.993C85.5409 285.498 86.0402 283.365 86.9789 281.595C87.8864 279.792 89.1351 278.446 90.7249 277.556C92.2835 276.633 94.0705 276.195 96.0859 276.244L109.042 276.555L109.831 273.693L110.551 273.71L110.447 278.029C110.401 279.948 109.774 281.422 108.565 282.449C108.074 282.885 107.458 283.223 106.716 283.461C107.505 283.928 108.212 284.473 108.837 285.096C110.242 286.57 110.919 288.379 110.868 290.522ZM109.234 288.563C109.263 287.379 108.649 286.292 107.392 285.302C106.92 284.938 106.29 284.555 105.499 284.152L98.5409 283.985C98.5056 285.456 98.5519 286.866 98.6796 288.213C98.7837 289.208 98.8476 289.882 98.8712 290.235C99.2192 290.403 99.6952 290.574 100.299 290.749C101.507 291.098 102.703 291.287 103.887 291.315C105.678 291.358 107.012 291.118 107.889 290.595C108.766 290.072 109.214 289.394 109.234 288.563Z" fill="#3A3A3A"/>
<path d="M110.073 269.798L109.815 266.841L88.9579 263.518L87.7938 266.249L87.0828 266.136L89.0084 254.048C89.4464 251.299 90.0907 249.085 90.9415 247.406C91.7972 245.695 92.7463 244.517 93.7886 243.873C94.7993 243.224 95.8102 242.98 96.8215 243.141C98.0856 243.343 99.0472 243.917 99.7063 244.865C100.37 245.781 100.778 246.883 100.93 248.17C101.129 249.563 101.124 251.02 100.914 252.542L101.151 252.58C101.479 250.721 101.98 249.099 102.654 247.716C103.36 246.338 104.181 245.254 105.117 244.463C106.026 243.636 107.129 243.325 108.425 243.532C110.289 243.829 111.666 245.053 112.554 247.203C113.448 249.322 113.55 252.546 112.861 256.876L110.784 269.911L110.073 269.798ZM99.9109 255.785C100.087 254.679 99.7799 253.658 98.9893 252.722C98.1987 251.786 97.0608 251.199 95.5755 250.963C94.1851 250.741 92.9845 250.955 91.9738 251.604C90.9631 252.253 90.3696 253.131 90.1934 254.237L89.9291 255.896L99.6466 257.444L99.9109 255.785ZM111.675 256.687C111.892 255.328 111.607 254.165 110.822 253.197C110.036 252.23 108.822 251.615 107.179 251.353C105.535 251.091 104.19 251.298 103.143 251.974C102.095 252.65 101.463 253.667 101.247 255.026L100.832 257.633L111.26 259.294L111.675 256.687Z" fill="#3A3A3A"/>
<path d="M115.517 240.445L114.829 240.234L114.985 237.269L94.7921 231.079L93.2596 233.622L92.5712 233.411L96.5104 220.561L97.1988 220.772L97.043 223.737L106.451 226.621L108.561 219.737L99.1533 216.853L97.6208 219.395L96.9324 219.184L100.872 206.334L101.56 206.545L101.404 209.51L121.597 215.7L123.129 213.158L123.818 213.369L119.878 226.218L119.19 226.007L119.346 223.043L109.708 220.088L107.598 226.972L117.236 229.927L118.768 227.384L119.456 227.595L115.517 240.445Z" fill="#3A3A3A"/>
<path d="M124.134 208.735L124.792 205.841L105.947 196.305L104.004 198.549L103.362 198.224L109.43 186.232L110.073 186.557L109.415 189.452L116.696 193.136L117.779 190.995C121.536 183.571 125.556 180.943 129.839 183.11C134.121 185.278 134.385 190.073 130.628 197.497L124.776 209.061L124.134 208.735ZM136.696 185.505L136.054 185.18L136.712 182.285L117.867 172.749L115.924 174.993L115.282 174.668L121.35 162.676L121.993 163.001L121.335 165.896L140.179 175.432L142.122 173.188L142.765 173.513L136.696 185.505ZM129.557 196.955C130.193 195.699 130.249 194.49 129.725 193.328C129.187 192.123 128.033 191.073 126.263 190.177C124.492 189.281 122.977 188.981 121.716 189.275C120.441 189.527 119.486 190.28 118.85 191.537L117.766 193.678L128.474 199.096L129.557 196.955Z" fill="#3A3A3A"/>
<path d="M153.804 159.655C151.407 162.976 148.636 164.903 145.49 165.434C142.318 165.947 139.123 165.042 135.905 162.72C133.803 161.204 132.264 159.481 131.288 157.553C130.311 155.625 129.923 153.648 130.122 151.622C130.341 149.569 131.124 147.609 132.472 145.741C133.82 143.872 135.351 142.49 137.062 141.595C138.793 140.673 140.526 140.267 142.263 140.376C143.993 140.44 145.571 140.987 146.998 142.017C147.647 142.485 148.158 142.953 148.531 143.419L149.053 144.091C148.481 145.376 147.805 146.723 147.024 148.133C145.447 151.138 143.657 154.029 141.653 156.806C144.663 158.978 147.117 160.117 149.013 160.223C150.884 160.31 152.344 159.627 153.393 158.174C154.123 157.162 154.563 156.059 154.714 154.866C154.858 153.628 154.718 152.481 154.296 151.427C153.866 150.327 153.236 149.478 152.405 148.879L153.108 147.905C154.146 148.655 154.907 149.677 155.392 150.974C155.876 152.271 156.002 153.684 155.767 155.211C155.507 156.72 154.852 158.202 153.804 159.655ZM140.68 156.104C141.879 154.443 142.788 153.047 143.407 151.915C143.699 151.455 143.971 150.941 144.223 150.373C144.112 150.254 143.874 149.983 143.508 149.561C142.952 148.963 142.312 148.402 141.585 147.877C139.431 146.323 137.655 145.476 136.257 145.335C134.833 145.176 133.831 145.498 133.251 146.303C131.846 148.249 134.323 151.516 140.68 156.104Z" fill="#3A3A3A"/>
<path d="M169.112 138.962L168.618 138.439L170.215 135.937L155.703 120.593L153.116 122.048L152.621 121.525L162.386 112.29L162.881 112.813L161.283 115.315L172.167 126.824L168.677 111.956L166.863 110.038L164.275 111.494L163.781 110.971L173.545 101.736L174.04 102.259L172.442 104.761L186.955 120.106L189.542 118.65L190.036 119.173L180.272 128.408L179.777 127.885L181.375 125.383L170.491 113.874L173.981 128.742L175.795 130.66L178.382 129.204L178.877 129.727L169.112 138.962Z" fill="#3A3A3A"/>
<path d="M201.66 111.425C199.974 112.644 198.312 113.431 196.674 113.786C195.043 114.097 193.575 114.033 192.27 113.595C190.947 113.13 189.901 112.366 189.132 111.303L190.104 110.6C190.723 111.455 191.586 112.075 192.693 112.459C193.8 112.843 195.012 112.935 196.327 112.734C197.65 112.488 198.934 111.915 200.179 111.015C203.161 108.858 203.526 106.224 201.276 103.113C200.189 101.609 199.017 100.699 197.762 100.382C196.506 100.066 195.321 100.311 194.206 101.118L191.678 102.946L190.974 101.973L192.725 100.708C193.84 99.9014 194.462 98.8785 194.593 97.6389C194.723 96.3994 194.301 95.1055 193.326 93.7571C192.351 92.4087 191.254 91.6023 190.036 91.3379C188.818 91.0735 187.652 91.3444 186.537 92.1508C185.888 92.6196 185.378 93.0875 185.005 93.5547L184.484 94.2274L188.703 100.062L188.282 100.544C187.905 100.896 187.573 101.175 187.288 101.381C186.407 102.019 185.506 102.275 184.586 102.15C183.674 101.981 182.899 101.455 182.261 100.574C181.399 99.3809 181.29 97.9196 181.935 96.1897C182.605 94.4411 184.211 92.648 186.752 90.8103C188.904 89.2539 190.849 88.2028 192.587 87.6569C194.325 87.1111 195.786 87.0021 196.971 87.33C198.163 87.6131 199.087 88.2085 199.743 89.1161C200.531 90.2051 200.813 91.3046 200.589 92.4145C200.39 93.5056 199.887 94.6394 199.08 95.8159C198.279 96.9478 197.227 98.0048 195.923 98.9871L196.064 99.1816C197.457 98.2137 198.929 97.4648 200.481 96.9349C201.911 96.4541 203.264 96.3048 204.541 96.487C205.799 96.6433 206.85 97.3049 207.694 98.4718C208.932 100.183 209.134 102.129 208.303 104.31C207.452 106.466 205.238 108.837 201.66 111.425Z" fill="#3A3A3A"/>
<path d="M214.231 100.78L216.389 98.7418L206.044 80.3292L203.18 81.1122L202.827 80.4845L222.286 69.5512L226.401 76.8745L225.145 77.5798C224.349 77.4034 223.583 77.118 222.847 76.7237C221.108 75.7188 219.792 74.4213 218.899 72.8311L212.621 76.3579L223.084 94.9798L225.948 94.1968L226.301 94.8245L214.584 101.408L214.231 100.78Z" fill="#3A3A3A"/>
<path d="M236.981 88.7966L236.713 88.1282L239.119 86.3885L231.262 66.7844L228.32 67.1875L228.053 66.5192L240.528 61.5192L240.796 62.1875L238.39 63.9273L244.283 78.6303L246.501 63.5207L245.519 61.0701L242.578 61.4732L242.31 60.8049L254.785 55.805L255.053 56.4733L252.648 58.213L260.505 77.8171L263.446 77.414L263.714 78.0824L251.239 83.0823L250.971 82.414L253.376 80.6743L247.483 65.9712L245.265 81.0809L246.247 83.5314L249.189 83.1283L249.456 83.7966L236.981 88.7966Z" fill="#3A3A3A"/>
<path d="M281.137 74.2292C277.251 75.1742 274.051 74.8818 271.539 73.352C269.026 71.8222 267.297 69.114 266.352 65.2272L265.672 62.4287C264.326 56.8939 264.234 52.6517 265.394 49.7022C266.577 46.714 268.808 44.5088 272.084 43.0865L282.358 38.6128L282.491 36.1106L283.19 35.9405L284.211 40.1383C284.544 41.5064 284.474 42.643 284.003 43.548C283.531 44.453 282.657 45.1924 281.38 45.7662L271.106 50.2399C270.095 50.6835 269.209 51.4422 268.449 52.5161C267.682 53.5589 267.168 54.9022 266.909 56.5459C266.674 58.1509 266.806 59.9796 267.304 62.0318C267.343 60.8368 267.693 59.5662 268.354 58.2201C269.046 56.8663 270.02 55.658 271.276 54.5951C272.556 53.4935 274.067 52.7311 275.808 52.3078C279.664 51.3704 282.84 51.6355 285.338 53.1031C287.859 54.532 289.535 56.9566 290.366 60.377C291.198 63.7974 290.826 66.7365 289.25 69.1944C287.697 71.6136 284.993 73.2919 281.137 74.2292ZM280.911 73.2964C282.03 73.0243 282.778 72.0357 283.154 70.3306C283.56 68.618 283.322 65.9427 282.437 62.3047C281.553 58.6666 280.537 56.1803 279.389 54.8457C278.272 53.5035 277.154 52.9685 276.035 53.2406C274.915 53.5127 274.152 54.5051 273.745 56.2177C273.369 57.9228 273.624 60.5943 274.508 64.2323C275.393 67.8704 276.393 70.3605 277.51 71.7027C278.658 73.0373 279.791 73.5686 280.911 73.2964Z" fill="#3A3A3A"/>
<path d="M296.09 68.6139L298.905 67.672L297.262 46.616L294.334 46.1223L294.278 45.4045L307.678 44.3587L307.734 45.0765L304.918 46.0185L305.553 54.1537L307.946 53.967C316.241 53.3196 320.575 55.3886 320.948 60.174C321.322 64.9595 317.361 67.6759 309.067 68.3233L296.146 69.3317L296.09 68.6139ZM322.466 67.2775L322.41 66.5597L325.225 65.6178L323.582 44.5618L320.654 44.0681L320.598 43.3503L333.998 42.3045L334.054 43.0223L331.238 43.9642L332.882 65.0202L335.809 65.5139L335.865 66.2317L322.466 67.2775ZM308.973 67.1269C310.377 67.0174 311.439 66.437 312.159 65.3857C312.909 64.3001 313.207 62.7683 313.052 60.7903C312.898 58.8123 312.368 57.3612 311.461 56.437C310.584 55.4783 309.443 55.0538 308.039 55.1633L305.647 55.3501L306.58 67.3137L308.973 67.1269Z" fill="#3A3A3A"/>
</svg>
