<svg width="306" height="520" viewBox="0 0 306 520" fill="none" xmlns="http://www.w3.org/2000/svg">
<path d="M22.5 405.25L49.5 398.5V110.5L22.5 103.75V97H144C189.6 97 223.05 104.35 244.35 119.05C265.95 133.45 276.75 152.35 276.75 175.75C276.75 191.95 272.1 205 262.8 214.9C253.5 224.8 241.65 232.15 227.25 236.95C211.95 242.35 195.45 245.2 177.75 245.5V247.75C199.65 248.65 218.7 251.95 234.9 257.65C251.4 263.05 265.05 271.45 275.85 282.85C286.95 294.25 292.5 308.8 292.5 326.5C292.5 353.2 281.55 374.2 259.65 389.5C237.75 404.5 202.2 412 153 412H22.5V405.25ZM144 241C153.9 241 163.05 238.3 171.45 232.9C180.15 227.2 187.05 219.4 192.15 209.5C197.55 199.3 200.25 188.05 200.25 175.75C200.25 162.55 197.55 150.85 192.15 140.65C187.05 130.45 180.15 122.5 171.45 116.8C163.05 111.1 153.9 108.25 144 108.25H123.75V241H144ZM153 400.75C171.6 400.75 186.75 394.15 198.45 380.95C210.15 367.75 216 349.6 216 326.5C216 303.4 210.15 285.25 198.45 272.05C186.75 258.85 171.6 252.25 153 252.25H123.75V400.75H153Z" fill="white"/>
<circle cx="205" cy="243" r="72.5" stroke="#3A3A3A" stroke-width="5"/>
</svg>
