<svg width="291" height="520" viewBox="0 0 291 520" fill="none" xmlns="http://www.w3.org/2000/svg">
<path d="M22.5 405.25L49.5 398.5V110.5L22.5 103.75V97H263.25V178H249.75C244.05 173.5 239.1 167.8 234.9 160.9C225.3 144.7 220.5 127.15 220.5 108.25H123.75V250H175.5C177.6 238.6 181.5 227.95 187.2 218.05C189.6 213.55 192.45 209.2 195.75 205H209.25V306.25H195.75C192.45 302.05 189.6 297.7 187.2 293.2C181.5 283.3 177.6 272.65 175.5 261.25H123.75V400.75H229.5C229.5 381.85 234.3 364.3 243.9 348.1C248.1 341.2 253.05 335.5 258.75 331H272.25V412H22.5V405.25Z" fill="white"/>
<circle cx="199" cy="255" r="72.5" stroke="#3A3A3A" stroke-width="5"/>
</svg>
