<svg width="447" height="511" viewBox="0 0 447 511" fill="none" xmlns="http://www.w3.org/2000/svg">
<path d="M447.484 244.083C450.219 234.119 459.141 212.504 472.945 205.754L467.573 194.218C458.642 200.65 439.266 218.551 433.208 238.699C437.199 238.846 445.642 240.128 447.484 244.083Z" stroke="#3A3A3A" stroke-width="3"/>
<path d="M457.361 170.994C442.028 182.547 425.111 191.134 421.324 191.426M451.368 156.339C442.088 159.056 422.991 168.722 417.057 172.154" stroke="#3A3A3A" stroke-width="3"/>
<path d="M377.426 221.496C391.513 213.331 415.132 200.968 420.787 191.276C419.219 190.268 416.201 185.068 416.674 172.334C400.397 172.427 364.826 174.018 352.756 179.639C317.601 179.967 281.978 151.625 273.692 138.245C260.388 116.765 228.01 93.7399 196.728 92.2637C151.853 87.8928 190.784 113.883 215.48 124.443C224.011 128.091 242.41 160.032 273.524 167.202C282.779 170.914 310.858 186.717 342.426 196.883C339.077 197.935 335.729 198.863 332.435 199.702C212.623 171.899 156.959 158.514 148.934 155.432C132.883 149.27 60.0078 154.863 40.0421 165.231C27.1456 188.082 102.798 183.736 133.531 189.077C159.142 193.528 253.957 198.775 306.399 205.639C298.204 207.654 292.111 209.828 289.837 213.352C288.964 217.111 289.283 223.429 290.935 228.851C270.875 229.246 222.064 231.597 187.308 237.835C154.811 252.969 123.561 264.714 87.114 307.758C83.8531 312.886 69.3667 325.248 74.8926 337.114L79.1967 344.334C82.2729 348.918 84.0538 347.688 97.0413 345.249C114.541 341.964 150.193 354.991 191.158 317.865C216.647 294.764 273.629 246.89 297.64 240.201C299.585 243.658 301.347 248.161 301.846 252.28C301.725 252.625 301.601 253.026 301.482 253.47L300.158 248.655C276.348 268.968 228.212 316.573 226.147 344.488C225.697 348.575 223.717 361.102 219.401 378.513C202.596 489.019 248.642 514.103 253.831 387.748C259.47 363.464 251.391 327.919 306.416 271.41C307.7 274.265 308.663 277.771 308.323 281.352C309.22 281.4 310.211 281.443 311.271 281.478C311.11 281.854 310.95 282.23 310.791 282.609C298.208 304.111 291.712 338.698 284.616 351.753C273.038 373.055 257.434 421.768 267.594 458.75C280.425 448.898 302.488 418.435 309.429 372.687C310.226 348.684 316.598 312.673 330.421 280.829C334.239 280.292 337.127 279.412 337.847 278.031C338.42 275.892 340.418 271.218 343.822 269.633C348.802 266.512 357.131 258.382 350.602 250.833C349.754 250.496 348.761 250.126 347.674 249.729C356.017 238.036 365.884 228.185 377.426 221.496Z" fill="white"/>
<path d="M354.706 223.252C344.563 230.115 324.413 250.194 310.791 282.609C298.208 304.111 291.712 338.698 284.616 351.753C273.038 373.055 257.434 421.768 267.594 458.75C280.425 448.898 302.488 418.435 309.429 372.687C310.85 329.91 329.975 248.997 377.426 221.496C391.513 213.331 415.132 200.968 420.787 191.276C419.219 190.268 416.201 185.068 416.674 172.334C400.397 172.427 364.826 174.018 352.756 179.639C317.601 179.967 281.978 151.625 273.692 138.245C260.388 116.765 228.01 93.7398 196.728 92.2637C151.853 87.8928 190.784 113.883 215.48 124.443C224.011 128.091 242.41 160.032 273.524 167.202C282.779 170.914 310.858 186.717 342.426 196.883C339.077 197.935 335.729 198.863 332.435 199.702M354.706 223.252C365.803 215.744 394.535 202.298 410.341 196.14M354.706 223.252C333.292 232.262 327.468 236.873 327.232 238.052C326.261 242.916 343.477 248.001 350.602 250.833C357.131 258.382 348.802 266.512 343.822 269.633C340.418 271.218 338.42 275.892 337.847 278.031C335.857 281.845 317.335 281.834 308.323 281.352C308.663 277.771 307.7 274.265 306.416 271.41M306.416 271.41C305.292 268.912 303.921 266.912 302.963 265.799C299.637 261.892 300.833 255.159 301.846 252.28C301.347 248.161 299.585 243.658 297.64 240.201M306.416 271.41C251.391 327.919 259.47 363.464 253.831 387.748C248.642 514.103 202.596 489.019 219.401 378.513C223.717 361.102 225.697 348.575 226.147 344.488C228.212 316.573 276.348 268.968 300.158 248.655L306.416 271.41ZM297.64 240.201C296.358 237.923 294.997 236.1 293.864 235.141C292.627 233.405 291.655 231.213 290.935 228.851M297.64 240.201C273.629 246.89 216.647 294.764 191.158 317.865C150.193 354.991 114.541 341.964 97.0413 345.249C84.0538 347.688 82.2729 348.918 79.1967 344.334L74.8926 337.114C69.3667 325.248 83.8531 312.886 87.114 307.758C123.561 264.714 154.811 252.969 187.308 237.835C222.064 231.597 270.875 229.246 290.935 228.851M290.935 228.851C289.283 223.429 288.964 217.111 289.837 213.352C292.111 209.828 298.204 207.654 306.399 205.639M332.435 199.702C212.623 171.899 156.959 158.514 148.934 155.432C132.883 149.27 60.0078 154.863 40.0421 165.231C27.1456 188.082 102.798 183.736 133.531 189.077C159.142 193.528 253.957 198.775 306.399 205.639M332.435 199.702C322.888 202.134 313.789 203.822 306.399 205.639" stroke="white" stroke-width="3"/>
<path d="M171.856 202.631C166.438 208.006 163.917 214.467 165.879 222.145L169.907 218.664C177.48 193.479 217.517 188.471 266.666 184.835L243.504 179.578C218.494 181.482 185.411 189.185 171.856 202.631ZM171.856 202.631C149.125 206.386 128.914 222.629 127.991 231.767L120.628 239.207C118.934 212.32 160.415 198.618 178.475 196.625L171.856 202.631ZM292.012 233.196C237.409 241.296 206.061 244.744 180.257 269.195L176.561 265.301C190.405 245.698 232.381 228.477 290.324 229.57L292.012 233.196ZM269.472 201.979C208.331 205.744 163.545 227.242 152.736 249.523L147.32 252.045C150.8 226.359 192.352 206.207 232.241 198.861L269.472 201.979ZM315.257 187.075C241.233 164.592 181.785 175.43 166.482 202.21L163 203.832C162.511 162.346 266.815 161.903 300.52 180.702L315.257 187.075ZM203.385 235.964C162.156 251.554 138.772 268.059 137.088 287.694L133.133 292.343C128.978 276.951 145.293 257.802 188.776 237.954L203.385 235.964Z" stroke="#3A3A3A" stroke-width="3"/>
<ellipse cx="10.6903" cy="4.3285" rx="10.6903" ry="4.3285" transform="matrix(0.616116 -0.787655 -0.866305 -0.499515 132.113 303.648)" fill="#3A3A3A"/>
<ellipse cx="9.47358" cy="4.83858" rx="9.47358" ry="4.83858" transform="matrix(-0.525217 -0.850969 -0.8673 0.497786 186.135 275.978)" fill="#3A3A3A"/>
<ellipse cx="11.0241" cy="4.16587" rx="11.0241" ry="4.16587" transform="matrix(-0.810238 0.586101 0.640666 0.76782 156.416 243.548)" fill="#3A3A3A"/>
<ellipse cx="11.0241" cy="4.16587" rx="11.0241" ry="4.16587" transform="matrix(-0.810238 0.586101 0.640666 0.76782 130.197 227.681)" fill="#3A3A3A"/>
<ellipse cx="11.034" cy="4.16088" rx="11.034" ry="4.16088" transform="matrix(-0.966697 0.255922 0.192975 0.981204 174.559 198.76)" fill="#3A3A3A"/>
<ellipse cx="10.9848" cy="4.18561" rx="10.9848" ry="4.18561" transform="matrix(-0.782156 0.623082 0.686636 0.727001 174.881 213.129)" fill="#3A3A3A"/>
<path d="M422.206 348.508C414.073 354.301 411.482 354.233 406.597 349.359C381.105 323.93 397.548 279.373 433.214 238.697C436.773 237.04 444.112 241.377 447.338 243.752C450.231 265.802 449.409 323.006 422.206 348.508Z" fill="white"/>
<path d="M415.852 329.809C410.592 312.044 427.356 274.315 436.396 257.671M406.597 349.359C411.482 354.233 414.073 354.301 422.206 348.508C449.409 323.006 450.231 265.802 447.338 243.752C444.112 241.377 436.773 237.04 433.214 238.697C397.548 279.373 381.105 323.93 406.597 349.359Z" stroke="white" stroke-width="3"/>
</svg>
