<svg width="388" height="493" viewBox="0 0 388 493" fill="none" xmlns="http://www.w3.org/2000/svg">
<path d="M-7.16038 366.757C-16.1857 361.727 -37.8585 352.945 -52.3468 358.064L-56.8128 346.148C-45.9661 344.283 -19.6177 343.003 -0.997894 352.799C-3.69005 355.749 -8.69157 362.672 -7.16038 366.757Z" stroke="#3A3A3A" stroke-width="3"/>
<path d="M25.8172 300.946C10.1213 305.275 -15.2487 313.463 -26.1262 310.705C-25.7467 308.881 -27.3417 303.084 -36.7576 294.498C-25.286 282.951 0.77423 258.688 13.2423 254.016C38.1097 229.164 42.8508 183.89 39.1121 168.603C33.1098 144.06 39.3703 104.826 60.2368 81.474C88.5634 46.3956 79.8258 92.3825 70.055 117.401C66.6796 126.043 76.5753 161.552 59.8881 188.774C56.0509 197.978 47.6502 229.083 32.7831 258.729C35.8806 257.077 38.8882 255.339 41.7952 253.577C105.913 148.616 135.369 99.524 138.794 91.6393C145.645 75.8697 200.7 27.7973 222.087 20.8176C247.427 27.6293 191.315 78.557 173.59 104.226C158.82 125.617 96.125 196.938 64.2748 239.161C71.4546 234.727 77.2753 231.903 81.3822 232.75C84.6758 234.762 88.9599 239.416 91.6708 244.394C106.01 230.359 141.889 197.183 170.694 176.758C204.262 164.178 234.539 150.113 290.787 154.272C296.731 155.539 315.701 153.866 320.294 166.123L322.43 174.253C323.545 179.66 321.419 180.068 310.579 187.625C295.973 197.808 280.284 232.372 225.092 235.583C190.75 237.581 116.668 244.688 95.0703 257.131C96.1734 260.941 98.1518 265.353 100.741 268.596C101.072 268.751 101.445 268.943 101.845 269.17L99.3372 264.851C130.513 262.098 198.206 261.113 219.569 279.201C222.8 281.743 233.125 289.108 248.57 298.23C339.185 363.674 324.816 414.102 231.034 329.265C209.757 316.271 190.059 285.6 111.186 285.261C112.323 288.177 114.149 291.321 116.943 293.587C116.349 294.261 115.685 294.999 114.968 295.779C115.348 295.928 115.729 296.077 116.11 296.229C140.268 302.319 169.495 321.92 183.782 326.006C207.092 332.672 252.78 355.674 272.045 388.836C256.025 391.086 218.832 385.481 181.33 358.377C163.646 342.126 133.49 321.439 101.085 308.987C98.0263 311.334 95.3757 312.778 93.8857 312.324C91.9582 311.234 87.224 309.385 83.7073 310.702C77.9907 312.068 66.3546 312.313 65.5435 302.366C65.8977 301.524 66.3293 300.557 66.8081 299.503C52.6194 297.262 38.6781 297.399 25.8172 300.946Z" fill="white"/>
<path d="M42.991 285.967C54.994 283.54 83.4394 283.234 116.11 296.229C140.268 302.319 169.495 321.92 183.782 326.006C207.092 332.672 252.78 355.674 272.045 388.836C256.025 391.086 218.832 385.481 181.33 358.377C149.816 329.416 78.6876 286.364 25.8172 300.946C10.1213 305.275 -15.2487 313.463 -26.1262 310.705C-25.7467 308.881 -27.3417 303.084 -36.7576 294.498C-25.286 282.951 0.774225 258.688 13.2423 254.016C38.1097 229.164 42.8508 183.89 39.1121 168.603C33.1098 144.06 39.3703 104.826 60.2368 81.474C88.5633 46.3955 79.8258 92.3825 70.055 117.4C66.6796 126.043 76.5753 161.552 59.8881 188.774C56.0509 197.978 47.6502 229.083 32.7831 258.729C35.8806 257.077 38.8882 255.339 41.7952 253.577M42.991 285.967C29.8582 288.623 0.132198 299.7 -15.3365 306.662M42.991 285.967C64.424 277.003 71.7948 276.079 72.8011 276.737C76.9521 279.453 68.5157 295.299 65.5436 302.366C66.3546 312.313 77.9907 312.068 83.7073 310.702C87.224 309.385 91.9582 311.234 93.8857 312.324C98.0014 313.577 110.972 300.355 116.943 293.587C114.149 291.321 112.323 288.177 111.186 285.261M111.186 285.261C110.192 282.708 109.726 280.329 109.603 278.865C109.146 273.755 103.504 269.89 100.741 268.596C98.1518 265.353 96.1734 260.941 95.0703 257.131M111.186 285.261C190.059 285.6 209.757 316.271 231.034 329.265C324.816 414.102 339.185 363.674 248.57 298.23C233.125 289.108 222.8 281.743 219.569 279.201C198.206 261.113 130.513 262.098 99.3372 264.851L111.186 285.261ZM95.0703 257.131C94.3434 254.62 93.9966 252.371 94.1056 250.891C93.7337 248.792 92.8515 246.562 91.6708 244.394M95.0703 257.131C116.668 244.688 190.75 237.581 225.092 235.583C280.284 232.372 295.973 197.808 310.579 187.625C321.419 180.068 323.545 179.66 322.43 174.253L320.294 166.123C315.701 153.866 296.731 155.539 290.787 154.272C234.539 150.113 204.262 164.178 170.694 176.758C141.889 197.183 106.01 230.359 91.6708 244.394M91.6708 244.394C88.96 239.416 84.6758 234.762 81.3822 232.75C77.2753 231.903 71.4546 234.727 64.2748 239.161M41.7952 253.577C105.913 148.616 135.369 99.524 138.794 91.6393C145.645 75.8697 200.7 27.7973 222.087 20.8176C247.427 27.6293 191.315 78.557 173.59 104.226C158.82 125.617 96.125 196.938 64.2748 239.161M41.7952 253.577C50.2202 248.469 57.8001 243.16 64.2748 239.161" stroke="white" stroke-width="3"/>
<path d="M156.405 141.066C164.036 140.967 170.412 143.695 174.514 150.475L169.209 150.91C145.934 138.665 114.307 163.72 77.2727 196.237L89.7519 176.028C108.636 159.519 137.313 141.314 156.405 141.066ZM156.405 141.066C175.011 127.479 200.762 124.442 207.928 130.186L218.395 130.146C200.4 110.098 161.558 130.091 147.482 141.579L156.405 141.066ZM94.0148 248.207C138.055 214.927 162.481 194.979 198.007 193.702L197.819 188.336C174.132 184.477 132.433 202.357 92.6112 244.461L94.0148 248.207ZM87.538 210.251C133.067 169.27 179.787 152.382 203.256 160.283L208.851 158.186C188.087 142.67 144.594 158.193 111.401 181.505L87.538 210.251ZM44.8224 232.472C80.6518 163.907 130.04 129.089 159.87 136.936L163.467 135.589C134.212 106.17 60.8083 180.274 50.602 217.493L44.8224 232.472ZM158.092 186.916C198.105 168.426 226.266 163.308 241.454 175.866L247.543 176.302C239.473 162.552 214.378 160.774 169.749 177.888L158.092 186.916Z" stroke="#3A3A3A" stroke-width="3"/>
<ellipse cx="10.6903" cy="4.3285" rx="10.6903" ry="4.3285" transform="matrix(-0.993667 -0.112364 0.250664 -0.968074 256.324 183.496)" fill="#3A3A3A"/>
<ellipse cx="9.47358" cy="4.83858" rx="9.47358" ry="4.83858" transform="matrix(-0.239084 -0.970999 0.962873 -0.269956 198.729 202.648)" fill="#3A3A3A"/>
<ellipse cx="11.0241" cy="4.16587" rx="11.0241" ry="4.16587" transform="matrix(0.985895 -0.167363 0.0988656 0.995101 196.416 158.722)" fill="#3A3A3A"/>
<ellipse cx="11.0241" cy="4.16587" rx="11.0241" ry="4.16587" transform="matrix(0.985895 -0.167363 0.0988656 0.995101 203.467 128.899)" fill="#3A3A3A"/>
<ellipse cx="11.034" cy="4.16088" rx="11.034" ry="4.16088" transform="matrix(0.859967 -0.510349 0.564807 0.825223 151.75 140.281)" fill="#3A3A3A"/>
<ellipse cx="10.9848" cy="4.18561" rx="10.9848" ry="4.18561" transform="matrix(0.992602 -0.121414 0.0375321 0.999295 161.775 150.58)" fill="#3A3A3A"/>
<path d="M85.0541 421.894C94.8862 420.152 96.6531 418.255 96.5996 411.355C96.3197 375.349 53.0092 355.858 -1.00248 352.802C-4.67809 354.179 -6.72737 362.454 -7.29256 366.42C6.4114 383.934 47.799 423.432 85.0541 421.894Z" fill="white"/>
<path d="M76.1663 404.258C67.1777 388.057 28.5133 373.58 10.3047 368.367M96.5996 411.355C96.6531 418.255 94.8862 420.152 85.0541 421.894C47.799 423.432 6.41141 383.934 -7.29256 366.42C-6.72738 362.454 -4.6781 354.179 -1.00248 352.802C53.0092 355.858 96.3197 375.349 96.5996 411.355Z" stroke="white" stroke-width="3"/>
</svg>
