<svg width="1044" height="730" viewBox="0 0 1044 730" fill="none" xmlns="http://www.w3.org/2000/svg">
<path d="M340.887 139.621L306.26 139.621V183.068H340.887V139.621Z" fill="white"/>
<path d="M729.933 139.621L696.664 139.621V183.889H729.933V139.621Z" fill="white"/>
<path d="M340.887 139.621L306.26 139.621V183.068H340.887V139.621Z" stroke="white" stroke-width="5"/>
<path d="M729.933 139.621L696.664 139.621V183.889H729.933V139.621Z" stroke="white" stroke-width="5"/>
<path d="M341.104 3H305.119V59.6479H341.104V3Z" fill="white"/>
<path d="M695.523 59.3742V4.91563H730.15V59.3742H695.523Z" fill="white"/>
<path d="M341.104 3H305.119V59.6479H341.104V3Z" stroke="white" stroke-width="5"/>
<path d="M695.523 59.3742V4.91563H730.15V59.3742H695.523Z" stroke="white" stroke-width="5"/>
<path d="M167.75 139.283H867.397" stroke="white" stroke-width="5"/>
<path d="M252.133 122.367V46.8359H782.403V122.367H252.133Z" fill="#F3C9CB" stroke="#F3C9CB" stroke-width="5"/>
<path d="M815.336 174.763H221.686V589.224H815.336V174.763Z" fill="#F3C9CB" stroke="#F3C9CB" stroke-width="5"/>
<path d="M868.754 642.82V14.4932H167.385V642.82M868.754 642.82H167.385M868.754 642.82V680.038V726.286H167.385V680.038V642.82" stroke="white" stroke-width="5"/>
<path d="M694.143 54.1416H731.593V61.8128H694.143V54.1416Z" fill="white"/>
<path d="M304.006 54.1416H341.456V61.8128H304.006V54.1416Z" fill="white"/>
<path d="M304.006 184.187H341.456V191.858H304.006V184.187Z" fill="white"/>
<path d="M694.143 184.187H731.593V191.858H694.143V184.187Z" fill="white"/>
<path d="M916.009 500.394C904.214 506.627 887.297 532.292 885.629 543.658" stroke="#070707" stroke-width="3"/>
<path d="M913.51 258.405C926.02 269.771 933.811 296.023 923.518 314.502C921.299 315.953 916.192 317.984 913.51 314.502C906.005 309.736 895.64 300.203 894.567 287.37C894.567 276.737 895.997 263.171 894.567 249.972C888.491 234.205 897.427 224.306 906.005 239.705C907.434 245.938 909.579 253.272 913.51 258.405Z" fill="#F3C9CB"/>
<path d="M935.313 350.801C935.313 313.402 956.52 294.459 968.553 287.37C974.271 273.071 983.921 272.337 983.564 281.504C982.58 284.194 982.881 285.728 983.564 286.547C1004.29 282.514 1010.73 291.403 1016.45 305.336C1025.02 313.402 1022.88 321.469 1017.52 326.602C1020.66 337.748 1013.83 342.49 1010.01 343.468C1011.16 344.641 1007.87 346.401 1006.08 347.134C1025.74 357.4 1025.02 367.3 1012.51 363.267C1012.51 368.84 1007.03 367.544 1004.29 366.2C1004.29 370.013 996.271 365.842 994.841 362.175C985.216 368.92 964.207 376.547 943.176 361.8C942.634 361.421 941.979 360.916 941.283 360.315C940.027 359.232 938.634 357.837 937.509 356.3C937.098 355.738 936.723 355.157 936.403 354.566C935.737 353.332 935.313 352.051 935.313 350.801Z" fill="#F3C9CB"/>
<path d="M836.309 427.064C832.497 424.253 830.945 413.865 836.309 395.899C837.957 395.899 839.702 396.438 841.31 397.183C844.527 386.366 850.364 383.922 852.747 386.366C853.891 380.206 858.466 380.866 860.61 381.966C862.612 373.166 872.643 376.675 877.409 379.53C881.971 378.372 888.153 379.84 894.922 381.966C898.139 379.4 902.785 376.833 907.432 386.366C909.695 384.777 914.437 384.019 915.295 393.699C918.869 412.154 922.657 452.876 909.219 468.129C876.694 505.894 849.53 459.329 849.53 450.53C848.935 444.419 845.457 431.171 836.309 427.064Z" fill="#F3C9CB"/>
<path d="M932.808 561.625C923.158 572.625 907.575 577.758 892.42 561.625C891.288 560.851 890.216 560.048 889.203 559.22C863.353 538.068 876.045 500.021 914.222 490.495C939.241 471.796 941.386 479.862 930.306 491.961C942.887 487.562 947.224 494.528 947.819 498.561C963.26 500.321 954.253 519.318 947.819 528.597C952.201 528.919 957.253 527.949 960.329 523.493C964.975 530.827 960.329 546.592 951.394 550.992C946.032 552.948 934.81 557.812 932.808 561.625Z" fill="#F3C9CB"/>
<path d="M894.567 236.039C903.717 248.945 903.86 266.104 902.788 273.071C900.501 283.044 908.983 296.781 913.51 302.403M936.403 354.566C942.122 344.3 959.975 334.79 968.553 333.201C984.994 328.802 991.427 308.269 987.853 295.07M987.853 295.07C988.33 292.503 988.496 287.37 985.351 287.37C984.041 287.37 981.848 286.197 983.564 281.504C983.921 272.337 974.271 273.071 968.553 287.37C956.52 294.459 935.313 313.402 935.313 350.801C935.313 355.201 940.555 359.967 943.176 361.8C965.765 377.64 988.33 367.667 996.788 360.7C992.499 349.701 966.302 354.815 941.283 360.315M987.853 295.07C1002.15 299.103 1006.08 309.736 1008.58 316.336C1014.87 316.336 1014.3 323.669 1008.58 326.602C1011.73 335.401 1007.03 337.112 1004.29 336.868C1007.73 341.268 1001.9 345.173 998.449 346.151M983.564 286.547C1004.29 282.514 1010.73 291.403 1016.45 305.336C1025.02 313.402 1022.88 321.469 1017.52 326.602C1020.66 337.748 1013.83 342.49 1010.01 343.468C1011.16 344.641 1007.87 346.401 1006.08 347.134M1006.08 347.134C1025.74 357.4 1025.02 367.3 1012.51 363.267C1012.51 368.84 1007.03 367.544 1004.29 366.2C1004.29 370.013 996.271 365.842 994.841 362.175M1006.08 347.134C998.575 345.912 981.705 344.201 974.271 347.134C969.625 349.823 951.234 357.767 937.509 356.3M894.922 381.966C898.139 379.4 902.785 376.833 907.432 386.366C909.695 384.777 914.437 384.019 915.295 393.699C918.869 412.154 922.657 452.876 909.219 468.129C876.694 505.894 849.53 459.33 849.53 450.53C848.935 444.419 845.457 431.171 836.309 427.064C832.497 424.253 830.945 413.865 836.309 395.899C837.957 395.899 839.702 396.438 841.31 397.183M894.922 381.966C890.991 389.666 884.081 395.166 879.911 395.899C875.622 396.779 872.882 407.509 872.048 412.765M894.922 381.966C888.153 379.84 881.971 378.372 877.409 379.53M872.048 412.765C867.004 389.821 870.167 381.367 877.409 379.53M872.048 412.765C871.335 418.045 879.614 435.986 883.842 444.297M841.31 397.183C843.605 398.247 844.884 400.394 846.671 400.665C856.321 402.132 869.188 411.298 872.048 421.931C873.763 433.664 870.38 441.73 868.473 444.297C865.9 447.523 872.405 460.307 875.979 466.296M841.31 397.183C844.527 386.366 850.364 383.922 852.747 386.366C853.891 380.206 858.466 380.866 860.61 381.966C862.612 373.166 872.643 376.675 877.409 379.53M874.55 437.697C888.489 450.53 884.676 469.84 881.34 475.095M849.53 421.931C854.105 428.091 854.773 435.008 854.534 437.697M849.53 415.331C854.963 420.611 856.798 429.997 857.036 434.031M851.318 412.765C858.752 421.271 859.419 428.775 858.823 431.464M960.329 523.493C964.975 530.826 960.329 546.592 951.394 550.992C946.032 552.948 934.81 557.812 932.808 561.625C923.158 572.625 907.575 577.758 892.42 561.625C891.288 560.851 890.216 560.048 889.203 559.22M960.329 523.493C957.253 527.949 952.201 528.919 947.819 528.597M960.329 523.493C966.762 517.627 974.983 494.528 960.329 494.528C958.184 490.495 955.754 484.628 937.454 486.095M930.306 491.961C941.386 479.862 939.241 471.796 914.222 490.495C876.045 500.021 863.353 538.068 889.203 559.22M930.306 491.961C924.016 491.961 921.49 509.072 921.013 517.627C921.013 527.6 899.807 549.511 889.203 559.22M930.306 491.961C942.887 487.562 947.224 494.528 947.819 498.561C963.26 500.321 954.253 519.318 947.819 528.597M889.203 559.22C901.713 548.533 929.663 527.16 941.386 527.16C942.961 527.788 945.277 528.41 947.819 528.597M939.956 506.261C934.238 515.354 923.277 526.427 918.511 530.826M921.013 530.826C928.876 523.493 937.454 513.472 944.245 510.661M923.518 314.502C933.811 296.023 926.02 269.771 913.51 258.405C909.579 253.272 907.434 245.938 906.005 239.705C897.427 224.306 888.491 234.205 894.567 249.972C895.997 263.171 894.567 276.737 894.567 287.37C895.64 300.203 906.005 309.736 913.51 314.502C916.192 317.984 921.299 315.953 923.518 314.502Z" stroke="white" stroke-width="3"/>
<path d="M858.119 686.654C856.331 661.084 850.639 621.32 884.888 556.123C882.8 516.804 879.504 486.694 875.109 481.642C874.807 481.433 874.502 481.207 874.193 480.963C874.504 481.069 874.809 481.297 875.109 481.642C880.632 485.474 885.096 483.82 886.703 482.43C885.034 484.284 886.933 519.799 889.16 564.526C891.512 611.773 894.23 669.299 893.496 708.287L886.705 720.386C888.137 677.026 887.685 617.923 885.528 569.281C861.053 604.134 859.593 666.671 863.115 686.654H858.119Z" fill="#3A3A3A"/>
<path d="M913.868 314.87C913.952 315.014 914.037 315.162 914.122 315.315C916.117 318.327 921.153 316.321 923.518 314.87C923.518 318.985 927.425 337.511 931.538 361.098C933.71 357.041 935.313 353.297 935.313 350.802C935.313 355.174 940.555 359.957 943.176 361.801C941.3 360.839 937.388 363.587 933.079 370.144C932.164 371.538 931.23 373.104 930.294 374.843C920.532 392.98 910.533 429.946 918.157 486.829L912.796 490.129C904.575 440.631 917.036 386.792 921.016 379.034C922.659 375.832 925.813 370.971 928.741 366.027C924.311 342.45 918.405 322.996 914.122 315.315C914.031 315.177 913.946 315.029 913.868 314.87Z" fill="#3A3A3A"/>
<path d="M914.94 598.658L914.226 572.259H919.587V594.625L914.94 598.658Z" fill="#3A3A3A"/>
<path d="M885.273 555.393C850.596 621.024 856.324 660.989 858.119 686.654H863.115C859.303 665.022 861.328 593.525 892.066 561.26M934.956 427.432C934.956 381.234 921.588 328.07 913.868 314.87C915.652 318.511 921.045 316.387 923.518 314.87C923.518 322.936 938.53 386.367 940.674 434.765M874.193 480.963C884.916 484.63 889.564 633.857 886.705 720.386L893.496 708.287C894.925 632.39 883.272 486.243 886.703 482.43C885.008 483.896 880.135 485.656 874.193 480.963ZM935.313 350.802C935.313 357.255 924.591 372.068 921.016 379.034C917.036 386.792 904.575 440.631 912.796 490.129L918.157 486.83C906.362 398.833 936.743 358.502 943.176 361.801C940.555 359.957 935.313 355.174 935.313 350.802ZM914.226 572.259L914.94 598.658L919.587 594.625V572.259H914.226Z" stroke="#3A3A3A" stroke-width="3"/>
<path d="M892.461 725.325C903.461 713.825 949.249 703.181 949.249 685.185C955.326 679.536 961.64 649.009 963.903 630.921C963.903 601.589 992.139 590.223 1028.95 595.356L1041.46 592.056C1020.59 577.39 999.406 580.812 991.424 584.356C975.126 572.33 956.517 582.279 949.249 588.756C948.95 591.392 948.622 593.989 948.266 596.548C947.201 620.821 945.128 645.067 941.386 652.92C935.787 660.986 928.282 676.019 926.852 685.185C924.915 689.636 913.553 699.974 903.877 709.281C899.037 715.328 894.714 719.668 891.461 722.325V718.325L890.461 714.825C901.541 671.56 927.209 647.176 938.169 633.854C940.743 633.854 946.628 579.345 949.249 552.091C949.249 563.478 948.991 580.019 948.266 596.548C948.622 593.989 948.95 591.392 949.249 588.756C956.517 582.279 975.126 572.33 991.424 584.356C999.406 580.812 1020.59 577.39 1041.46 592.056C1038.25 595.6 1030.02 602.689 1022.88 602.689C1016.56 601.956 1003.29 601.369 1000.72 604.889C991.424 609.655 977.842 620.655 963.903 630.921C961.64 649.009 955.326 679.536 949.249 685.185C950.961 717.325 892.58 724.903 892.461 728.325V725.325Z" fill="white"/>
<path d="M932.451 561.991C934.519 593.575 903.827 644.952 887.362 671.147C888.269 679.413 888.675 687.98 888.461 696.825L890.461 727.825H852.961C856.059 722.936 855.25 698.751 842.74 678.586C829.992 650.842 810.43 585.603 834.162 546.591C845.678 563.835 873.32 600.701 884.103 651.027C891.685 632.692 904.885 607.973 910.649 604.889C915.772 603.3 931.129 592.056 932.451 561.991Z" fill="white"/>
<path d="M825.227 458.962C826.061 472.772 831.088 511.393 844.527 555.391C856.25 528.699 847.506 507.359 841.668 500.026C839.523 492.327 831.66 469.594 825.227 458.962Z" fill="white"/>
<path d="M982.132 456.395C977.473 457.849 971.896 461.918 967.157 469.228C996.071 479.86 1006.08 483.433 1013.94 484.26C1025.09 485.434 996.667 466.05 982.132 456.395Z" fill="white"/>
<path d="M949.249 685.185C949.249 703.181 903.461 713.825 892.461 725.325V728.325C892.58 724.903 950.961 717.325 949.249 685.185ZM949.249 685.185C955.326 679.536 961.64 649.009 963.903 630.921M963.903 630.921C963.903 601.589 992.139 590.223 1028.95 595.356L1041.46 592.056M963.903 630.921C977.842 620.655 991.424 609.655 1000.72 604.889C1003.29 601.369 1016.56 601.956 1022.88 602.689C1030.02 602.689 1038.25 595.6 1041.46 592.056M1041.46 592.056C1020.59 577.39 999.406 580.812 991.424 584.356C975.126 572.33 956.517 582.279 949.249 588.756C940.385 666.918 905.686 710.704 891.461 722.325M891.461 722.325C898.61 712.792 923.874 692.03 926.852 685.185C928.282 676.019 935.787 660.986 941.386 652.92C947.677 639.721 949.249 580.201 949.249 552.091C946.628 579.345 940.743 633.854 938.169 633.854C927.209 647.176 901.541 671.56 890.461 714.825L891.461 718.325V722.325ZM842.74 678.586C829.992 650.842 810.43 585.603 834.162 546.591C848.935 568.712 890.248 623.128 888.461 696.825L890.461 727.825M842.74 678.586C855.25 698.751 856.059 722.936 852.961 727.825H890.461M842.74 678.586C862.183 686.212 888.078 715.725 890.461 727.825M825.227 458.962C826.061 472.772 831.088 511.393 844.527 555.391C856.25 528.699 847.506 507.359 841.668 500.026C839.523 492.327 831.66 469.594 825.227 458.962ZM825.227 458.962C854.392 484.187 870.023 513.47 874.193 524.959M936.025 478.027C951.751 451.262 964.618 452.729 969.622 455.753M958.542 491.96C960.401 482.301 963.534 474.817 967.157 469.228M982.132 456.395C980.225 453.95 973.268 451.482 960.687 461.161M982.132 456.395C977.473 457.849 971.896 461.918 967.157 469.228M982.132 456.395C996.667 466.05 1025.09 485.434 1013.94 484.26C1006.08 483.433 996.071 479.86 967.157 469.228M902.428 494.893C904.573 484.749 904.215 454.929 900.999 434.763C898.854 426.696 891.348 415.33 898.854 393.698C898.854 412.764 905.764 427.185 909.577 430.73C922.086 445.396 926.732 462.628 925.66 482.794M921.014 399.198C925.303 420.317 930.307 422.297 932.094 424.13C942.459 434.763 949.25 449.307 950.679 457.862M932.451 561.991C935.024 601.296 886.864 671.253 878.525 685.185L878.481 668.825C879.077 657.703 902.428 609.289 910.649 604.889C915.772 603.3 931.129 592.056 932.451 561.991Z" stroke="white" stroke-width="3"/>
<path d="M128.444 500.068C140.238 506.301 157.154 531.967 158.822 543.333" stroke="#070707" stroke-width="3"/>
<path d="M130.943 258.079C118.434 269.445 110.643 295.697 120.936 314.177C123.154 315.627 128.261 317.658 130.943 314.177C138.448 309.41 148.811 299.877 149.884 287.044C149.884 276.411 148.454 262.845 149.884 249.646C155.96 233.88 147.025 223.98 138.448 239.38C137.018 245.613 134.874 252.946 130.943 258.079Z" fill="#F3C9CB"/>
<path d="M109.141 350.475C109.141 313.077 87.9361 294.133 75.9039 287.044C70.1857 272.745 60.5362 272.012 60.8936 281.178C61.877 283.869 61.5762 285.402 60.8936 286.221C40.1649 282.188 33.7319 291.078 28.0137 305.01C19.4363 313.077 21.5807 321.143 26.9415 326.276C23.7965 337.422 30.6346 342.164 34.4467 343.142C33.3031 344.315 36.591 346.075 38.378 346.809C18.7216 357.075 19.4363 366.974 31.945 362.941C31.945 368.514 37.425 367.219 40.165 365.874C40.165 369.688 48.1876 365.516 49.6171 361.85C59.2411 368.594 80.2496 376.221 101.279 361.475C101.821 361.095 102.475 360.59 103.172 359.989C104.427 358.907 105.821 357.512 106.945 355.975C107.356 355.413 107.732 354.832 108.051 354.24C108.718 353.006 109.141 351.726 109.141 350.475Z" fill="#F3C9CB"/>
<path d="M208.138 426.739C211.95 423.928 213.502 413.539 208.138 395.573C206.49 395.573 204.745 396.112 203.138 396.857C199.921 386.04 194.084 383.596 191.701 386.04C190.558 379.88 185.983 380.54 183.839 381.64C181.837 372.841 171.807 376.35 167.041 379.204C162.479 378.046 156.298 379.515 149.529 381.64C146.313 379.074 141.667 376.507 137.021 386.04C134.757 384.451 130.016 383.694 129.158 393.373C125.584 411.828 121.796 452.551 135.234 467.803C167.756 505.569 194.918 459.004 194.918 450.204C195.514 444.093 198.992 430.845 208.138 426.739Z" fill="#F3C9CB"/>
<path d="M111.646 561.299C121.296 572.299 136.878 577.432 152.031 561.299C153.163 560.525 154.235 559.723 155.248 558.894C181.096 537.742 168.405 499.696 130.23 490.169C105.213 471.47 103.069 479.536 114.148 491.636C101.568 487.236 97.2313 494.202 96.6357 498.236C81.1964 499.995 90.2027 518.992 96.6357 528.271C92.2542 528.593 87.203 527.623 84.127 523.168C79.481 530.501 84.127 546.267 93.0618 550.667C98.4226 552.622 109.645 557.486 111.646 561.299Z" fill="#F3C9CB"/>
<path d="M149.884 235.713C140.735 248.619 140.592 265.779 141.664 272.745C143.951 282.718 135.469 296.455 130.943 302.077M108.051 354.24C102.333 343.974 84.4813 334.465 75.9039 332.876C59.464 328.476 53.031 307.944 56.6049 294.744M56.6049 294.744C56.1284 292.177 55.9616 287.044 59.1066 287.044C60.417 287.044 62.609 285.871 60.8936 281.178C60.5362 272.012 70.1857 272.745 75.9039 287.044C87.9361 294.133 109.141 313.077 109.141 350.475C109.141 354.875 103.899 359.641 101.279 361.475C78.6916 377.314 56.1284 367.341 47.6701 360.375C51.9588 349.375 78.1549 354.49 103.172 359.989M56.6049 294.744C42.3093 298.777 38.378 309.41 35.8763 316.01C29.5862 316.01 30.158 323.343 35.8763 326.276C32.7313 335.076 37.425 336.787 40.165 336.542C36.734 340.942 42.555 344.847 46.0098 345.825M60.8936 286.221C40.1649 282.188 33.7319 291.078 28.0137 305.01C19.4363 313.077 21.5807 321.143 26.9415 326.276C23.7965 337.422 30.6346 342.164 34.4467 343.142C33.3031 344.315 36.5911 346.075 38.378 346.809M38.378 346.809C18.7216 357.075 19.4363 366.974 31.945 362.941C31.945 368.514 37.425 367.219 40.165 365.874C40.165 369.688 48.1876 365.516 49.6171 361.85M38.378 346.809C45.8832 345.586 62.752 343.875 70.1857 346.809C74.8318 349.497 93.2213 357.441 106.945 355.975M149.529 381.64C146.313 379.074 141.667 376.507 137.021 386.04C134.757 384.451 130.016 383.694 129.158 393.373C125.584 411.828 121.796 452.551 135.234 467.803C167.756 505.569 194.918 459.004 194.918 450.204C195.514 444.093 198.992 430.845 208.138 426.739C211.95 423.928 213.502 413.539 208.138 395.573C206.49 395.573 204.745 396.112 203.138 396.857M149.529 381.64C153.461 389.34 160.37 394.84 164.54 395.573C168.828 396.453 171.568 407.184 172.402 412.439M149.529 381.64C156.298 379.515 162.479 378.046 167.041 379.204M172.402 412.439C177.445 389.496 174.283 381.042 167.041 379.204M172.402 412.439C173.115 417.719 164.837 435.66 160.608 443.971M203.138 396.857C200.843 397.921 199.564 400.068 197.777 400.34C188.127 401.806 175.261 410.972 172.402 421.605C170.687 433.338 174.07 441.405 175.976 443.971C178.549 447.198 172.045 459.982 168.471 465.97M203.138 396.857C199.921 386.04 194.084 383.596 191.701 386.04C190.558 379.88 185.983 380.54 183.839 381.64C181.837 372.841 171.807 376.35 167.041 379.204M169.901 437.371C155.962 450.204 159.775 469.514 163.11 474.77M194.918 421.605C190.343 427.765 189.676 434.683 189.914 437.371M194.918 415.006C189.486 420.285 187.651 429.672 187.413 433.705M193.131 412.439C185.697 420.945 185.03 428.45 185.626 431.138M84.127 523.168C79.481 530.501 84.127 546.267 93.0618 550.667C98.4226 552.622 109.645 557.486 111.646 561.3C121.296 572.299 136.878 577.432 152.031 561.3C153.163 560.525 154.235 559.723 155.248 558.894M84.127 523.168C87.203 527.623 92.2542 528.593 96.6357 528.271M84.127 523.168C77.694 517.301 69.4741 494.202 84.127 494.202C86.2714 490.169 88.7016 484.303 107 485.769M114.148 491.636C103.069 479.536 105.213 471.47 130.23 490.169C168.405 499.696 181.096 537.742 155.248 558.894M114.148 491.636C120.438 491.636 122.963 508.746 123.44 517.301C123.44 527.274 144.645 549.185 155.248 558.894M114.148 491.636C101.568 487.236 97.2313 494.202 96.6357 498.235C81.1964 499.995 90.2027 518.992 96.6357 528.271M155.248 558.894C142.739 548.207 114.791 526.834 103.069 526.834C101.494 527.462 99.1776 528.084 96.6357 528.271M104.498 505.935C110.216 515.028 121.176 526.101 125.942 530.501M123.44 530.501C115.577 523.168 107 513.146 100.21 510.335M120.936 314.177C110.643 295.697 118.434 269.445 130.943 258.079C134.874 252.946 137.018 245.613 138.448 239.38C147.025 223.98 155.96 233.88 149.884 249.646C148.454 262.845 149.884 276.411 149.884 287.044C148.811 299.877 138.448 309.41 130.943 314.177C128.261 317.658 123.154 315.627 120.936 314.177Z" stroke="white" stroke-width="3"/>
<path d="M186.332 686.329C188.044 661.857 193.33 624.386 163.762 564.063C163.609 520.645 164.924 486.547 169.401 481.277C169.684 481.078 169.97 480.866 170.259 480.637C169.961 480.739 169.675 480.954 169.401 481.277C163.852 485.16 159.362 483.499 157.75 482.104C159.3 483.826 159.821 515.515 160.058 556.741C160.085 561.293 160.107 565.961 160.128 570.718C160.33 618.26 160.287 674.67 161 712.5L167.5 720L167.366 715.945C166.025 675.391 164.27 622.334 163.846 576.862C183.582 612.565 184.605 667.779 181.336 686.329H186.332Z" fill="#3A3A3A"/>
<path d="M130.587 314.544C130.503 314.688 130.419 314.836 130.333 314.989C128.338 318.002 123.303 315.995 120.937 314.544C120.937 318.66 117.031 337.185 112.918 360.772C110.746 356.715 109.144 352.971 109.144 350.476C109.144 354.849 103.902 359.631 101.281 361.476C103.157 360.514 107.069 363.261 111.377 369.819C112.293 371.212 113.226 372.778 114.162 374.517C123.924 392.654 133.922 429.62 126.298 486.504L131.659 489.804C139.879 440.306 127.419 386.467 123.439 378.708C121.796 375.506 118.643 370.645 115.715 365.701C120.145 342.124 126.051 322.67 130.333 314.989C130.424 314.851 130.509 314.703 130.587 314.544Z" fill="#3A3A3A"/>
<path d="M129.515 598.332L130.23 571.934H124.869V594.299L129.515 598.332Z" fill="#3A3A3A"/>
<path d="M159.18 555.068C193.855 620.698 188.127 660.663 186.332 686.329H181.336C185.149 664.696 183.123 593.199 152.388 560.934M109.501 427.106C109.501 380.908 122.867 327.744 130.587 314.544C128.803 318.186 123.411 316.062 120.937 314.544C120.937 322.611 105.927 386.041 103.783 434.439M170.259 480.637C159.537 484.304 164.641 633.47 167.5 720L161 712.5C159.57 636.603 161.181 485.917 157.75 482.104C159.445 483.571 164.318 485.331 170.259 480.637ZM109.144 350.476C109.144 356.929 119.865 371.742 123.439 378.708C127.419 386.467 139.879 440.306 131.659 489.804L126.298 486.504C138.092 398.508 107.714 358.176 101.281 361.476C103.902 359.631 109.144 354.849 109.144 350.476ZM130.23 571.934L129.515 598.332L124.869 594.299V571.934H130.23Z" stroke="#3A3A3A" stroke-width="3"/>
<path d="M80.5536 630.595C82.8171 648.684 89.1307 679.211 95.2066 684.86C92.3507 711.075 164 727.999 168.5 727.499L167.395 726.157C167.972 726.649 168.508 727.097 169 727.499H192C188.903 722.61 189.2 698.426 201.709 678.26C214.456 650.517 234.017 585.277 210.286 546.265C197.514 565.391 172.365 607.356 166.942 665.999C166.347 654.877 142.025 608.963 133.805 604.563C128.682 602.974 113.326 591.73 112.004 561.665C109.431 600.97 156.161 670.927 164.5 684.86L166.942 665.999C166.093 675.184 165.728 684.779 165.97 694.759L169 727.499L168 717.499L166.942 711.499C155.863 668.234 117.246 646.85 106.286 633.528C103.712 633.528 97.8275 579.02 95.2066 551.765C95.2066 563.044 95.4598 579.379 96.1692 595.75C95.8083 593.339 95.4866 590.899 95.2066 588.43C87.9397 581.953 69.3316 572.005 53.0346 584.031C45.0529 580.486 23.8716 577.064 3.00003 591.73C6.21654 595.275 14.4365 602.363 21.5843 602.363C27.8982 601.63 41.1693 601.043 43.7425 604.563C53.0346 609.33 66.6154 620.329 80.5536 630.595Z" fill="white"/>
<path d="M219.221 458.636C218.387 472.446 213.359 511.067 199.922 555.065C188.199 528.373 196.943 507.034 202.781 499.701C204.925 492.001 212.788 469.269 219.221 458.636Z" fill="white"/>
<path d="M62.3264 456.069C66.9847 457.524 72.5611 461.592 77.2996 468.902C48.3882 479.535 38.3813 483.107 30.5188 483.935C19.3682 485.108 47.7926 465.724 62.3264 456.069Z" fill="white"/>
<path d="M95.2066 684.86C95.2066 702.855 155.21 702.866 161.5 718.999L168.5 727.499C164 727.999 92.3507 711.075 95.2066 684.86ZM95.2066 684.86C89.1307 679.211 82.8171 648.684 80.5536 630.595M80.5536 630.595C80.5536 601.263 52.3198 589.897 15.5087 595.03L3.00003 591.73M80.5536 630.595C66.6154 620.329 53.0346 609.33 43.7425 604.563C41.1693 601.043 27.8982 601.63 21.5843 602.363C14.4365 602.363 6.21654 595.275 3.00003 591.73M3.00003 591.73C23.8716 577.064 45.0529 580.486 53.0346 584.031C69.3316 572.005 87.9397 581.953 95.2066 588.43C104.07 666.593 154.776 715.878 169 727.499M169 727.499C161.852 717.966 120.58 691.704 117.602 684.86C116.172 675.694 108.668 660.661 103.069 652.594C96.7791 639.395 95.2066 579.875 95.2066 551.765C97.8275 579.02 103.712 633.528 106.286 633.528C117.246 646.85 155.863 668.234 166.942 711.499L168 717.499L169 727.499ZM169 727.499C171.383 715.4 182.266 685.886 201.709 678.26M169 727.499L165.97 694.759C164.183 621.062 195.514 568.387 210.286 546.265C234.017 585.277 214.456 650.517 201.709 678.26M169 727.499H192C188.903 722.61 189.2 698.426 201.709 678.26M219.221 458.636C218.387 472.446 213.359 511.067 199.922 555.065C188.199 528.373 196.943 507.034 202.781 499.701C204.925 492.001 212.788 469.269 219.221 458.636ZM219.221 458.636C190.058 483.861 174.428 513.145 170.258 524.633M108.43 477.702C92.7046 450.936 79.8385 452.403 74.8351 455.427M85.9142 491.634C84.0559 481.975 80.9227 474.491 77.2996 468.902M62.3264 456.069C64.2325 453.625 71.1897 451.156 83.7698 460.836M62.3264 456.069C66.9847 457.524 72.5611 461.592 77.2996 468.902M62.3264 456.069C47.7926 465.724 19.3682 485.108 30.5188 483.935C38.3813 483.107 48.3882 479.535 77.2996 468.902M142.024 494.568C139.88 484.424 140.237 454.603 143.454 434.437C145.598 426.371 153.103 415.004 145.598 393.372C145.598 412.438 138.689 426.86 134.877 430.404C122.368 445.07 117.722 462.302 118.794 482.468M123.44 398.872C119.151 419.991 114.148 421.971 112.361 423.804C101.997 434.437 95.2063 448.981 93.7767 457.536M112.004 561.665C109.431 600.97 156.161 670.927 164.5 684.86L166.942 665.999C166.347 654.877 142.025 608.963 133.805 604.563C128.682 602.974 113.326 591.73 112.004 561.665Z" stroke="white" stroke-width="3"/>
</svg>
