<svg width="323" height="738" viewBox="0 0 323 738" fill="none" xmlns="http://www.w3.org/2000/svg">
<path d="M130.554 151.707C124.804 157.716 113.448 172.041 114.023 181.271V189.924C130.554 183.434 133.429 163.821 130.554 151.707Z" stroke="white" stroke-width="5"/>
<path d="M86.7182 246.169C96.4929 255.399 94.6242 261.312 94.6242 265.638C91.5097 265.638 84.4183 264.773 80.9684 261.312C80.9684 272.118 87.6437 281.586 97.4991 284.726M86.7182 246.169C96.5389 250.736 113.594 266.071 103.249 290.876M86.7182 246.169C77.5139 244.438 66.5881 252.659 70.1817 257.706C51.4981 257.706 45.7446 272.128 58.679 280.06C47.182 288.023 62.0373 298.52 69.463 301.692M104.686 285.828C102.153 285.828 99.7436 285.441 97.4991 284.726M97.4991 284.726C88.8744 282.209 71.05 278.906 68.75 285.828C65.7217 288.867 73.532 291.655 84.5563 292.177M103.249 290.876C96.8629 292.108 90.2769 292.447 84.5563 292.177M103.249 290.876C99.8929 303.855 86.7182 312.508 69.463 301.692M84.5563 292.177C81.686 299.789 73.2981 301.692 69.463 301.692" stroke="white" stroke-width="5"/>
<path d="M93.5842 167.75C100.234 182.604 95.3966 188.287 93.3868 193.089C89.9017 191.621 82.3683 187.318 80.1157 181.85C75.0956 193.846 78.1674 207.502 87.7367 215.633M93.5842 167.75C102.452 177.449 114.413 202.511 91.3139 225.171M93.5842 167.75C84.0885 161.491 68.0438 165.466 69.7203 172.763C48.8133 163.957 35.6757 177.254 46.4646 192.156C29.9004 195.576 41.6469 214.231 48.4829 221.252M95.2672 220.245C92.4326 219.051 89.9161 217.485 87.7367 215.633M87.7367 215.633C79.2548 208.774 60.8437 196.706 55.0544 203.306C50.2542 205.252 57.6988 212.028 69.7926 217.804M91.3139 225.171C83.5957 223.528 76.0682 220.8 69.7926 217.804M91.3139 225.171C81.5291 237.997 62.7669 241.392 48.4829 221.252M69.7926 217.804C63.0445 224.901 52.7744 223.06 48.4829 221.252" stroke="white" stroke-width="5"/>
<path d="M199.411 221.241C187.602 232.41 180.665 229.686 175.484 229.354C175.725 225.57 177.309 217.019 181.721 213.092C168.779 212.263 156.925 219.648 152.402 231.383M199.411 221.241C193.182 232.824 173.499 252.372 144.593 237.898M199.411 221.241C202.195 210.189 193.196 196.282 186.873 200.262C188.318 177.559 171.492 169.461 160.993 184.57C152.346 169.988 138.625 187.234 134.252 196.014M150.526 240.032C150.722 236.954 151.372 234.056 152.402 231.383M152.402 231.383C156.083 221.096 161.418 199.69 153.305 196.365C149.901 192.452 145.958 201.728 144.481 215.084M144.593 237.898C143.611 230.044 143.714 222.015 144.481 215.084M144.593 237.898C129.308 232.824 119.965 216.151 134.252 196.014M144.481 215.084C135.586 211.012 133.956 200.674 134.252 196.014" stroke="white" stroke-width="5"/>
<path d="M80.2406 88.2517C64.7161 75.5606 62.9912 56.524 64.4286 44.9867C70.1784 50.0343 83.1155 70.2246 80.2406 88.2517Z" stroke="white" stroke-width="5"/>
<path d="M79.4687 126.42C56.7255 112.102 51.301 87.0566 51.3171 71.4671C59.7976 77.2321 80.3309 101.957 79.4687 126.42Z" stroke="white" stroke-width="5"/>
<path d="M124.309 251.475C109.517 254.266 98.2431 246.048 92.667 239.638C98.3351 238.773 115.915 241.099 124.309 251.475Z" stroke="white" stroke-width="5"/>
<path d="M165.53 128.288C154.683 133.195 150.526 129.642 147.014 128.169C148.083 125.604 151.22 120.059 155.213 118.397C146.443 114.716 136.467 116.989 130.535 124.036M165.53 128.288C158.452 134.821 140.151 143.643 123.57 126.677M165.53 128.288C170.094 121.298 167.173 109.501 161.843 110.741C168.257 95.3552 158.527 85.7058 147.649 93.6561C145.133 81.4764 131.513 90.1349 126.39 95.1699M127.173 129.579C128.043 127.493 129.184 125.641 130.535 124.036M130.535 124.036C135.539 117.79 144.339 104.237 139.51 99.9853C138.084 96.4566 133.139 101.939 128.931 110.84M123.57 126.677C124.763 120.998 126.748 115.459 128.931 110.84M123.57 126.677C114.188 119.493 111.688 105.696 126.39 95.1699M128.931 110.84C123.738 105.884 125.073 98.3282 126.39 95.1699" stroke="white" stroke-width="5"/>
<path d="M140.32 58.6347C127.668 64.3576 122.818 60.2138 118.722 58.4951C119.97 55.5034 123.628 49.0353 128.286 47.0963C118.056 42.8036 106.42 45.455 99.5008 53.6743M140.32 58.6347C132.064 66.2541 110.717 76.5452 91.3763 56.7545M140.32 58.6347C145.644 50.4807 142.236 36.7202 136.019 38.1671C143.5 20.2201 132.151 8.96465 119.463 18.2383C116.528 4.03137 100.642 14.131 94.6654 20.004M95.5792 60.1403C96.5936 57.707 97.9249 55.5463 99.5008 53.6743M99.5008 53.6743C105.337 46.3894 115.602 30.5798 109.969 25.6208C108.305 21.5049 102.538 27.8997 97.63 38.2821M91.3763 56.7545C92.7674 50.131 95.0831 43.6697 97.63 38.2821M91.3763 56.7545C80.4325 48.3749 77.5163 32.2824 94.6654 20.004M97.63 38.2821C91.5727 32.5011 93.1298 23.6879 94.6654 20.004" stroke="white" stroke-width="5"/>
<path d="M53.5603 99.4301C60.3212 111.59 56.619 116.791 55.261 121.031C52.1837 120.039 45.4486 116.933 43.1263 112.442C39.7343 123.034 43.3584 134.44 52.1104 140.657M53.5603 99.4301C61.8303 107.034 73.8685 127.497 55.8613 148.516M53.5603 99.4301C45.0091 94.8025 31.6336 99.3803 33.6 105.472C15.1395 99.5221 4.92816 111.826 15.2185 123.719C1.3594 127.863 12.7424 142.884 19.0839 148.358M58.8659 144.026C56.3629 143.219 54.1037 142.072 52.1104 140.657M52.1104 140.657C44.3787 135.443 27.8039 126.528 23.3587 132.581C19.4128 134.595 26.2547 139.815 36.9836 143.837M55.8613 148.516C49.1649 147.689 42.551 145.925 36.9836 143.837M55.8613 148.516C48.4715 160.169 32.7382 164.455 19.0839 148.358M36.9836 143.837C31.7583 150.385 22.8733 149.579 19.0839 148.358" stroke="white" stroke-width="5"/>
<path d="M130.597 333.845C145 302.603 138.748 276.824 130.597 260.59M93.8971 64.4557C80.9009 76.3093 75.1892 122.263 89.1303 150.265M129.836 130.074C112.586 143.919 107.487 167.09 107.094 176.945M107.094 176.945C112.059 196.966 108.651 233.57 118.334 243.284C122.048 247.011 126.708 252.845 130.597 260.59M107.094 176.945C105.794 171.701 103.919 167.595 101.084 165.407C96.0934 161.555 92.1506 156.331 89.1303 150.265M60.8379 138.006C68.3126 148.967 82.814 150.745 89.1303 150.265M149.96 232.468C147.66 245.159 136.093 256.504 130.597 260.59M94.618 218.768C100.368 221.075 110.43 233.189 114.742 238.958" stroke="white" stroke-width="5"/>
<path d="M191.847 150.707C197.597 156.716 208.952 171.041 208.377 180.271V188.924C191.847 182.434 188.972 162.821 191.847 150.707Z" stroke="white" stroke-width="5"/>
<path d="M235.682 245.169C225.908 254.399 227.776 260.312 227.776 264.638C230.891 264.638 237.982 263.773 241.432 260.312C241.432 271.118 234.757 280.586 224.901 283.726M235.682 245.169C225.862 249.736 208.806 265.071 219.152 289.876M235.682 245.169C244.887 243.438 255.812 251.659 252.219 256.706C270.902 256.706 276.656 271.128 263.721 279.06C275.218 287.023 260.363 297.52 252.937 300.692M217.714 284.828C220.247 284.828 222.657 284.441 224.901 283.726M224.901 283.726C233.526 281.209 251.35 277.906 253.65 284.828C256.679 287.867 248.868 290.655 237.844 291.177M219.152 289.876C225.538 291.108 232.124 291.447 237.844 291.177M219.152 289.876C222.507 302.855 235.682 311.508 252.937 300.692M237.844 291.177C240.714 298.789 249.102 300.692 252.937 300.692" stroke="white" stroke-width="5"/>
<path d="M228.816 166.75C222.166 181.604 227.004 187.287 229.014 192.089C232.499 190.621 240.032 186.318 242.285 180.85C247.305 192.846 244.233 206.502 234.664 214.633M228.816 166.75C219.948 176.449 207.987 201.511 231.086 224.171M228.816 166.75C238.312 160.491 254.357 164.466 252.68 171.763C273.587 162.957 286.725 176.254 275.936 191.156C292.5 194.576 280.753 213.231 273.918 220.252M227.133 219.245C229.968 218.051 232.484 216.485 234.664 214.633M234.664 214.633C243.146 207.774 261.557 195.706 267.346 202.306C272.146 204.252 264.702 211.028 252.608 216.804M231.086 224.171C238.805 222.528 246.332 219.8 252.608 216.804M231.086 224.171C240.871 236.997 259.633 240.392 273.918 220.252M252.608 216.804C259.356 223.901 269.626 222.06 273.918 220.252" stroke="white" stroke-width="5"/>
<path d="M122.989 220.241C134.799 231.41 141.735 228.686 146.917 228.354C146.676 224.57 145.091 216.019 140.679 212.092C153.621 211.263 165.475 218.648 169.998 230.383M122.989 220.241C129.218 231.824 148.902 251.372 177.808 236.898M122.989 220.241C120.205 209.189 129.205 195.282 135.527 199.262C134.082 176.559 150.908 168.461 161.408 183.57C170.055 168.988 183.775 186.234 188.148 195.014M171.874 239.032C171.678 235.954 171.028 233.056 169.998 230.383M169.998 230.383C166.317 220.096 160.983 198.69 169.095 195.365C172.499 191.452 176.442 200.728 177.92 214.084M177.808 236.898C178.789 229.044 178.686 221.015 177.92 214.084M177.808 236.898C193.092 231.824 202.436 215.151 188.148 195.014M177.92 214.084C186.814 210.012 188.445 199.674 188.148 195.014" stroke="white" stroke-width="5"/>
<path d="M242.16 87.2517C257.684 74.5606 259.409 55.524 257.972 43.9867C252.222 49.0343 239.285 69.2246 242.16 87.2517Z" stroke="white" stroke-width="5"/>
<path d="M242.932 125.42C265.675 111.102 271.099 86.0566 271.083 70.4671C262.603 76.2321 242.07 100.957 242.932 125.42Z" stroke="white" stroke-width="5"/>
<path d="M198.092 250.475C212.883 253.266 224.157 245.048 229.733 238.638C224.065 237.773 206.486 240.099 198.092 250.475Z" stroke="white" stroke-width="5"/>
<path d="M156.871 127.288C167.717 132.195 171.875 128.642 175.386 127.169C174.317 124.604 171.18 119.059 167.187 117.397C175.958 113.716 185.933 115.989 191.865 123.036M156.871 127.288C163.949 133.821 182.25 142.643 198.83 125.677M156.871 127.288C152.306 120.298 155.227 108.501 160.558 109.741C154.144 94.3552 163.873 84.7058 174.751 92.6561C177.267 80.4764 190.887 89.1349 196.011 94.1699M195.227 128.579C194.358 126.493 193.216 124.641 191.865 123.036M191.865 123.036C186.862 116.79 178.062 103.237 182.891 98.9853C184.317 95.4566 189.261 100.939 193.469 109.84M198.83 125.677C197.638 119.998 195.653 114.459 193.469 109.84M198.83 125.677C208.213 118.493 210.713 104.696 196.011 94.1699M193.469 109.84C198.662 104.884 197.327 97.3282 196.011 94.1699" stroke="white" stroke-width="5"/>
<path d="M182.081 57.6347C194.733 63.3576 199.582 59.2138 203.678 57.4951C202.431 54.5034 198.772 48.0353 194.114 46.0963C204.345 41.8036 215.98 44.455 222.9 52.6743M182.081 57.6347C190.337 65.2541 211.684 75.5452 231.024 55.7545M182.081 57.6347C176.757 49.4807 180.164 35.7202 186.381 37.1671C178.9 19.2201 190.249 7.96465 202.937 17.2383C205.872 3.03137 221.759 13.131 227.735 19.004M226.821 59.1403C225.807 56.707 224.476 54.5463 222.9 52.6743M222.9 52.6743C217.063 45.3894 206.799 29.5798 212.431 24.6208C214.095 20.5049 219.862 26.8997 224.77 37.2821M231.024 55.7545C229.633 49.131 227.317 42.6697 224.77 37.2821M231.024 55.7545C241.968 47.3749 244.884 31.2824 227.735 19.004M224.77 37.2821C230.828 31.5011 229.271 22.6879 227.735 19.004" stroke="white" stroke-width="5"/>
<path d="M268.84 98.4301C262.079 110.59 265.781 115.791 267.139 120.031C270.217 119.039 276.952 115.933 279.274 111.442C282.666 122.034 279.042 133.44 270.29 139.657M268.84 98.4301C260.57 106.034 248.532 126.497 266.539 147.516M268.84 98.4301C277.391 93.8025 290.767 98.3803 288.8 104.472C307.261 98.5221 317.472 110.826 307.182 122.719C321.041 126.863 309.658 141.884 303.316 147.358M263.535 143.026C266.037 142.219 268.297 141.072 270.29 139.657M270.29 139.657C278.022 134.443 294.597 125.528 299.042 131.581C302.988 133.595 296.146 138.815 285.417 142.837M266.539 147.516C273.235 146.689 279.849 144.925 285.417 142.837M266.539 147.516C273.929 159.169 289.662 163.455 303.316 147.358M285.417 142.837C290.642 149.385 299.527 148.579 303.316 147.358" stroke="white" stroke-width="5"/>
<path d="M191.803 332.845C177.401 301.603 183.652 275.824 191.803 259.59M228.503 63.4557C241.5 75.3093 247.211 121.263 233.27 149.265M192.565 129.074C209.814 142.919 214.913 166.09 215.306 175.945M215.306 175.945C210.341 195.966 213.749 232.57 204.067 242.284C200.352 246.011 195.693 251.845 191.803 259.59M215.306 175.945C216.607 170.701 218.481 166.595 221.316 164.407C226.307 160.555 230.25 155.331 233.27 149.265M261.562 137.006C254.088 147.967 239.586 149.745 233.27 149.265M172.44 231.468C174.74 244.159 186.307 255.504 191.803 259.59M227.782 217.768C222.033 220.075 211.97 232.189 207.658 237.958" stroke="white" stroke-width="5"/>
<path d="M96.75 724V706.5C123.75 720 191.75 720 225.25 706.5V722.5C207.75 737.5 126.25 740.5 96.75 724Z" fill="white" stroke="white" stroke-width="5"/>
<path d="M109.75 390.5C109.75 358 108.731 345 82.7308 326H242.253C223.753 337 215.753 353.5 219.753 390.5C309.753 424.5 291.253 626 226.253 705C209.253 718.5 110.249 721.8 98.2309 705C38.7548 626.5 12.2723 426.5 109.75 390.5Z" fill="#F3C9CB" stroke="#F3C9CB" stroke-width="5"/>
</svg>
